<?xml version="1.0"?>
<svg width="1305.1" height="331.2" xmlns="http://www.w3.org/2000/svg" xmlns:xlink="http://www.w3.org/1999/xlink">
 <style type="text/css">.st0{display:none;}
	.st1{display:inline;fill:#BFE7F7;}
	.st2{fill:url(#SVGID_1_);}
	.st3{fill:url(#SVGID_2_);}
	.st4{fill:#1087AB;}
	.st5{fill:#4EBBA0;}
	.st6{fill:#0D887F;}
	.st7{fill:url(#SVGID_3_);}
	.st8{fill:#7CC68A;}
	.st9{fill:#FFFFFF;}
	.st10{fill:#B3DFD3;}
	.st11{fill:#D7B2D4;}
	.st12{fill:#F9CDB6;}
	.st13{fill:#C9E9EB;}
	.st14{fill:#EFDCEB;}
	.st15{fill:url(#SVGID_4_);}
	.st16{fill:#F1656B;}
	.st17{fill:#E55C2C;}
	.st18{fill:#F0AA2F;}
	.st19{fill:#C74B27;}
	.st20{fill:#F47838;}
	.st21{fill:#CA9FC8;}
	.st22{fill:#42C1C9;}
	.st23{fill:#2D8BCB;}
	.st24{fill:#DE4E58;}
	.st25{fill:#354EA1;}
	.st26{fill:#116877;}
	.st27{fill:#DD9727;}
	.st28{fill:#EE4788;}
	.st29{fill:#EAB39B;}
	.st30{fill:#E61563;}
	.st31{fill:#E5C7E0;}
	.st32{fill:#E9BC3F;}
	.st33{fill:#A2D4D5;}
	.st34{fill:#ED6623;}
	.st35{display:inline;}
	.st36{opacity:0.42;fill:#FFFFFF;}
	.st37{clip-path:url(#SVGID_6_);}
	.st38{clip-path:url(#SVGID_8_);fill:#FFFFFF;}
	.st39{clip-path:url(#SVGID_8_);}
	.st40{fill:#CD6432;}
	.st41{fill:#F17232;}
	.st42{fill:#9ECFEF;}
	.st43{fill:#191817;}
	.st44{font-family:'Lato-Black';}
	.st45{font-size:11.4357px;}
	.st46{font-size:18.7872px;}
	.st47{opacity:0.4;fill:#FFFFFF;}
	.st48{fill:#010101;}
	.st49{clip-path:url(#SVGID_10_);fill:#354EA1;}
	.st50{clip-path:url(#SVGID_10_);}
	.st51{clip-path:url(#SVGID_12_);fill:url(#SVGID_13_);}
	.st52{clip-path:url(#SVGID_12_);}
	.st53{fill:#98D5C5;}
	.st54{fill:#81CCB5;}
	.st55{fill:url(#SVGID_14_);}
	.st56{fill:url(#SVGID_15_);}
	.st57{clip-path:url(#SVGID_17_);fill:#354EA1;}
	.st58{clip-path:url(#SVGID_17_);fill:#8AD0C4;}
	.st59{clip-path:url(#SVGID_17_);fill:#CB95C3;}
	.st60{clip-path:url(#SVGID_17_);fill:#D8B3D5;}
	.st61{clip-path:url(#SVGID_17_);fill:#D1ABD0;}
	.st62{clip-path:url(#SVGID_17_);}
	.st63{clip-path:url(#SVGID_19_);}
	.st64{font-family:'MyriadPro-Semibold';}
	.st65{clip-path:url(#SVGID_21_);}
	.st66{fill:url(#SVGID_22_);}
	.st67{fill:#CB95C3;}
	.st68{fill:#D1ABD0;}
	.st69{clip-path:url(#SVGID_21_);fill:#CD6432;}
	.st70{clip-path:url(#SVGID_21_);fill:#F17232;}
	.st71{font-family:'Lato-BlackItalic';}
	.st72{font-size:29.7911px;}
	.st73{font-size:28.3172px;}
	.st74{display:inline;fill:#83D0D0;}
	.st75{display:inline;fill:#FFFFFF;}</style>
 <g>
  <title>background</title>
  <rect x="-1" y="-1" width="1307.1" height="333.2" id="canvas_background" fill="none"/>
 </g>
 <g>
  <title>Layer 1</title>
  <g id="back" class="st0">
   <rect x="-2" y="0" class="st1" width="1305.1" height="821.6" id="svg_1"/>
  </g>
  <g stroke="null" id="mountains">
   <g stroke="null" id="svg_2">
    <polygon stroke="null" class="st4" points="-2.9979 303.177 328.816 310.377 1178.11 332.577 1177.91 306.877 317.581 81.4774 -2.9979 169.677" id="svg_3"/>
    <polyline stroke="null" class="st4" points="1306.3 201.077 1306.1 97.6774 1214.52 91.7774 635.854 186.277" id="svg_4"/>
    <polyline stroke="null" class="st5" points="1306.3 322.977 1306.3 191.177 857.33 73.4774 501.443 145.577" id="svg_5"/>
    <polyline stroke="null" class="st6" points="1306.3 332.577 1306.1 267.277 600.145 93.8774 -2.9979 282.177" id="svg_6"/>
   </g>
   <g stroke="null" id="svg_7">
    <polygon stroke="null" class="st2" points="1188.14 112.577 1188.64 186.877 1204.09 177.977" id="svg_8"/>
    <polygon stroke="null" class="st8" points="1188.14 112.577 1173.19 177.977 1188.64 186.877" id="svg_9"/>
   </g>
   <circle stroke="null" class="st9" cx="850.008061" cy="146.677726" r="4.6" id="svg_10"/>
   <g stroke="null" id="svg_11">
    <polygon stroke="null" class="st10" points="349.178 303.677 794.037 119.777 1306.3 332.577" id="svg_12"/>
    <polyline stroke="null" class="st11" points="-2.9979 332.577 -2.9979 298.777 435.241 128.777 728.035 333.777 306.447 255.977" id="svg_13"/>
    <polyline stroke="null" class="st12" points="-2.9979 332.577 -2.9979 282.177 167.623 156.577 606.163 332.577" id="svg_14"/>
    <polygon stroke="null" class="st13" points="794.037 119.777 1088.84 330.777 1306.1 247.777" id="svg_15"/>
    <polygon stroke="null" class="st14" points="435.241 128.777 513.079 305.877 716.901 305.877" id="svg_16"/>
   </g>
   <g stroke="null" id="svg_17">
    <polygon stroke="null" class="st3" points="1218.93 126.277 1219.54 200.577 1234.88 191.677" id="svg_18"/>
    <polygon stroke="null" class="st8" points="1218.93 126.277 1204.09 191.677 1219.54 200.577" id="svg_19"/>
   </g>
   <g stroke="null" id="svg_20">
    <path stroke="null" class="st16" d="m1073.189941,280.877441c0,0 -129.696289,-25.400024 -205.527893,-28.800049c-74.828613,-3.299988 -149.857849,3.300049 -193.892334,10c-44.034607,6.700012 -489.294861,63.5 -493.106491,65.400024c-3.81163,1.900024 891.122421,0.400024 891.122421,0.400024l1.404297,-47z" id="svg_21"/>
    <path stroke="null" class="st17" d="m-2.997907,332.577393c319.576368,-72.799988 318.07176,-74 857.920942,0l-184.262939,0l-673.658002,0z" id="svg_22"/>
    <path stroke="null" class="st18" d="m521.504517,332.577393c0,0 395.809204,-81.099976 535.536133,-78l248.960571,-6.799988l0.200562,84.799988l-784.697266,0z" id="svg_23"/>
   </g>
   <g stroke="null" id="svg_24">
    <ellipse stroke="null" class="st19" cx="323.298947" cy="296.077726" rx="34.104189" ry="4.2" id="svg_25"/>
    <g stroke="null" id="svg_26">
     <path stroke="null" class="st20" d="m293.507965,295.177429c0,-19.5 13.340759,-35.299988 29.790985,-35.299988c16.450287,0 29.791046,15.799988 29.791046,35.299988" id="svg_27"/>
    </g>
   </g>
   <g stroke="null" id="svg_28">
    <ellipse stroke="null" transform="matrix(0.948999 -0.340187 0.324993 0.993366 -190 132.503)" class="st21" cx="547.880308" cy="195.064822" rx="21.8" ry="2.7" id="svg_29"/>
    <g stroke="null" id="svg_30">
     <path stroke="null" class="st22" d="m375.057068,145.729919c-4.112549,-12.494568 0.702148,-25.409058 10.732788,-28.978882c10.03064,-3.569885 21.365265,3.569824 25.477875,16.064392" id="svg_31"/>
    </g>
   </g>
   <g stroke="null" id="svg_32">
    <ellipse stroke="null" transform="matrix(0.113948 -1.04313 0.996545 0.119275 -342.186 1209.3)" class="st19" cx="962.948554" cy="730.653411" rx="3.7" ry="30.7" id="svg_33"/>
    <g stroke="null" id="svg_34">
     <polygon stroke="null" class="st23" points="470.148 288.629 501.142 242.746 521.304 294.824" id="svg_35"/>
    </g>
   </g>
   <g stroke="null" id="svg_36">
    <ellipse stroke="null" transform="matrix(1.00066 -0.0726504 0.0694057 1.04744 -54.2816 17.6595)" class="st24" cx="774.327902" cy="282.634655" rx="28.9" ry="3.7" id="svg_37"/>
    <polygon stroke="null" class="st25" points="764.948 255.451 714.594 258.6 723.622 226.052 752.31 224.267" id="svg_38"/>
   </g>
   <g stroke="null" id="svg_39">
    <ellipse stroke="null" transform="matrix(0.979994 -0.223956 0.213954 1.02581 -139.685 -5.7038)" class="st26" cx="176.140801" cy="184.748278" rx="14.9" ry="1.9" id="svg_40"/>
    <polygon stroke="null" class="st22" points="84.8706 141.425 59.3928 146.99 61.6998 129.666 76.2442 126.516" id="svg_41"/>
   </g>
   <ellipse stroke="null" class="st27" cx="1051.122472" cy="262.695546" rx="27.88519" ry="5.774771" id="svg_42"/>
   <polygon stroke="null" class="st28" points="1032.16 263.64 1026.45 232.981 1050.02 215.132 1073.69 232.981 1069.38 263.64" id="svg_43"/>
   <ellipse stroke="null" transform="matrix(0.968659 -0.272674 0.260496 1.01394 -196.758 22.4516)" class="st29" cx="244.675218" cy="303.788046" rx="42.3" ry="6.2" id="svg_44"/>
   <g stroke="null" id="svg_45">
    <polygon stroke="null" class="st30" points="152.377 255.031 142.145 211.352 86.5758 271.935" id="svg_46"/>
   </g>
   <g stroke="null" id="svg_47">
    <ellipse stroke="null" transform="matrix(0.518685 -0.898659 0.858523 0.542933 -332.433 758.102)" class="st31" cx="909.958368" cy="427.805069" rx="2.8" ry="21.6" id="svg_48"/>
    <g stroke="null" id="svg_49">
     <polygon stroke="null" class="st32" points="490.51 162.214 502.847 140.375 524.514 183.213" id="svg_50"/>
    </g>
   </g>
   <g stroke="null" id="svg_51">
    <ellipse stroke="null" transform="matrix(0.190281 -1.03085 0.984809 0.199177 77.4509 1388.47)" class="st33" cx="1324.155022" cy="542.172416" rx="1.9" ry="15.3" id="svg_52"/>
    <rect stroke="null" x="1319.482244" y="521.919471" transform="matrix(0.19961 -1.02896 0.983003 0.208942 76.4146 1377.91)" class="st34" width="10.2" height="22.2" id="svg_53"/>
   </g>
   <g stroke="null" id="svg_54">
    <ellipse stroke="null" transform="matrix(0.517982 -0.899079 0.858924 0.542198 37.0642 1170.97)" class="st9" cx="1441.96066" cy="298.324256" rx="26.9" ry="26.9" id="svg_55"/>
    <ellipse stroke="null" transform="matrix(0.467428 -0.929003 0.887511 0.489281 26.5546 1241.78)" class="st9" cx="1440.222929" cy="366.698596" rx="4.6" ry="4.6" id="svg_56"/>
    <ellipse stroke="null" transform="matrix(0.467428 -0.929003 0.887511 0.489281 -35.7119 1168.48)" class="st9" cx="1351.322929" cy="383.298596" rx="4.6" ry="4.6" id="svg_57"/>
    <ellipse stroke="null" transform="matrix(0.467428 -0.929003 0.887511 0.489281 -21.7561 1260.28)" class="st9" cx="1430.722929" cy="415.398596" rx="4.6" ry="4.6" id="svg_58"/>
    <ellipse stroke="null" transform="matrix(0.467428 -0.929003 0.887511 0.489281 41.0884 1173.44)" class="st9" cx="1393.522929" cy="322.198596" rx="4.6" ry="4.6" id="svg_59"/>
    <ellipse stroke="null" transform="matrix(0.934254 -0.38229 0.365216 0.977931 -147.756 379.685)" class="st9" cx="1155.25827" cy="142.990877" rx="4.6" ry="4.6" id="svg_60"/>
   </g>
   <ellipse stroke="null" transform="matrix(0.627818 -0.818862 0.78229 0.657169 -239.369 862.226)" class="st9" cx="1142.634247" cy="380.747902" rx="4.6" ry="4.6" id="svg_61"/>
   <ellipse stroke="null" transform="matrix(0.627818 -0.818862 0.78229 0.657169 -376.024 704.454)" class="st9" cx="917.834247" cy="447.647902" rx="4.6" ry="4.6" id="svg_62"/>
   <ellipse stroke="null" transform="matrix(0.627818 -0.818862 0.78229 0.657169 -535.268 470.14)" class="st9" cx="605.834247" cy="501.547902" rx="4.6" ry="4.6" id="svg_63"/>
   <ellipse stroke="null" transform="matrix(0.627818 -0.818862 0.78229 0.657169 -512.828 424.205)" class="st9" cx="571.434247" cy="456.347902" rx="4.6" ry="4.6" id="svg_64"/>
   <ellipse stroke="null" transform="matrix(0.627818 -0.818862 0.78229 0.657169 -434.001 281.7)" class="st9" cx="469.234247" cy="306.547902" rx="4.6" ry="4.6" id="svg_65"/>
   <ellipse stroke="null" transform="matrix(0.627818 -0.818862 0.78229 0.657169 -387.563 422.265)" class="st9" cx="631.934247" cy="325.247902" rx="4.6" ry="4.6" id="svg_66"/>
   <ellipse stroke="null" transform="matrix(0.627818 -0.818862 0.78229 0.657169 -290.226 1016.31)" class="st9" cx="1270.234247" cy="506.947902" rx="4.6" ry="4.6" id="svg_67"/>
   <ellipse stroke="null" transform="matrix(0.627818 -0.818862 0.78229 0.657169 -153.394 1280.07)" class="st9" cx="1600.234247" cy="490.347902" rx="4.6" ry="4.6" id="svg_68"/>
   <ellipse stroke="null" transform="matrix(0.627818 -0.818862 0.78229 0.657169 -151.923 1318.12)" class="st9" cx="1638.834247" cy="506.947902" rx="4.6" ry="4.6" id="svg_69"/>
  </g>
  <g id="apps" class="st0">
   <g class="st35" id="svg_70">
    <path class="st36" d="m484.200012,435.299988l-206,0c-15.399994,0 -28,-12.600006 -28,-28l0,-206c0,-15.399994 12.600006,-28 28,-28l206,0c15.399994,0 28,12.600006 28,28l0,206c0,15.400024 -12.600006,28 -28,28z" id="svg_71"/>
    <g id="svg_72">
     <g id="svg_73">
      <g id="svg_74">
       <defs transform="translate(-2 0)">
        <circle id="SVGID_5_" cx="383.2" cy="245.4" r="48.8"/>
        <linearGradient id="SVGID_10_" x1="0.000007" y1="0.499986" x2="0.999992" y2="0.499986">
         <stop offset="0" stop-color="#396452"/>
         <stop offset="0.3571" stop-color="#0F697F"/>
         <stop offset="1" stop-color="#85CCAA"/>
        </linearGradient>
        <linearGradient id="SVGID_12_" x1="1.267901" y1="0.156875" x2="-0.748893" y2="0.902422">
         <stop offset="0" stop-color="#75CBC8"/>
         <stop offset="1" stop-color="#3C67A8"/>
        </linearGradient>
        <linearGradient id="SVGID_13_" x1="0.007394" y1="0.58872" x2="0.993719" y2="0.413472">
         <stop offset="0" stop-color="#FFFFFF"/>
         <stop offset="0.5714" stop-color="#D2EDF3"/>
         <stop offset="1" stop-color="#BAD1ED"/>
        </linearGradient>
        <linearGradient id="SVGID_19_" x1="-0.000055" y1="0.5001" x2="1.000034" y2="0.5001">
         <stop offset="0" stop-color="#396452"/>
         <stop offset="0.3571" stop-color="#0F697F"/>
         <stop offset="1" stop-color="#85CCAA"/>
        </linearGradient>
       </defs>
       <clipPath transform="translate(-2 0)" id="SVGID_3_">
        <use x="-2" y="0" xlink:href="#SVGID_5_" id="svg_75"/>
       </clipPath>
       <g clip-path="url(#SVGID_3_)" id="svg_76">
        <defs transform="translate(-2 0)">
         <circle id="SVGID_7_" cx="383.5" cy="244.5" r="55.2"/>
        </defs>
        <use x="-2" y="0" xlink:href="#SVGID_7_" fill="#415DAA" id="svg_77"/>
        <clipPath transform="translate(-2 0)" id="SVGID_4_">
         <use x="-2" y="0" xlink:href="#SVGID_7_" id="svg_78"/>
        </clipPath>
        <circle cx="362.1" cy="221.7" r="5.9" fill="#FFFFFF" clip-path="url(#SVGID_4_)" id="svg_79"/>
        <circle cx="389" cy="214.9" r="5.9" fill="#FFFFFF" clip-path="url(#SVGID_4_)" id="svg_80"/>
        <circle cx="381.2" cy="243.7" r="5.9" fill="#FFFFFF" clip-path="url(#SVGID_4_)" id="svg_81"/>
        <g clip-path="url(#SVGID_4_)" id="svg_82">
         <circle class="st9" cx="368.5" cy="267.8" r="1" id="svg_83"/>
         <circle class="st9" cx="336.3" cy="274.8" r="1" id="svg_84"/>
         <circle class="st9" cx="425.7" cy="264.3" r="1" id="svg_85"/>
         <path class="st40" d="m455.100006,270.299988c0,0 -29.199982,-12.700012 -46.299988,-14.399994c-16.899994,-1.699997 -33.800018,1.699982 -43.700012,5c-9.899994,3.299988 -110.300018,31.699982 -111.199997,32.699982c-0.899994,1 200.899979,0.200012 200.899979,0.200012l0.300018,-23.5z" id="svg_86"/>
         <g id="svg_87">
          <polygon class="st23" points="315.3 288.8 324.1 274.6 332 289.4" id="svg_88"/>
         </g>
         <circle class="st9" cx="413.9" cy="273.7" r="1" id="svg_89"/>
         <circle class="st9" cx="435.6" cy="237.7" r="1" id="svg_90"/>
         <circle class="st9" cx="262.2" cy="263.5" r="1" id="svg_91"/>
         <circle class="st9" cx="242.1" cy="241.7" r="1" id="svg_92"/>
         <circle class="st9" cx="237" cy="282.6" r="1" id="svg_93"/>
         <circle class="st9" cx="223.3" cy="262.7" r="1" id="svg_94"/>
         <path class="st17" d="m212.5,294c0,0 72.100006,-12.399994 193.399994,0.200012l-41.600006,-0.200012l-151.799988,0z" id="svg_95"/>
         <path class="st41" d="m196.399994,303.399994c0,0 191.5,-37.800018 259.399994,-36.300018l7.700012,0l-0.700012,35.700012l-266.399994,0.600006z" id="svg_96"/>
         <g id="svg_97">
          <path class="st42" d="m347.700012,271.600006c-1.200012,-8.799988 3.799988,-16.800003 11.200012,-17.899994c7.399994,-1 14.399994,5.299988 15.699982,14.100006" id="svg_98"/>
         </g>
         <g id="svg_99">
          <polygon class="st25" points="412.8 271.3 390.3 272.7 394.3 258.8 407.2 258" id="svg_100"/>
         </g>
         <g id="svg_101">
          <polygon class="st28" points="431 282.6 429.3 274.2 436.2 269.2 443 274.2 441.7 282.6" id="svg_102"/>
         </g>
        </g>
       </g>
      </g>
      <g id="svg_103">
       <path class="st9" d="m381.200012,296.700012c-28.299988,0 -51.299988,-23 -51.299988,-51.300003c0,-28.300003 23,-51.300003 51.299988,-51.300003c28.299988,0 51.299988,23 51.299988,51.300003c0,28.300003 -23,51.300003 -51.299988,51.300003zm0,-97.700012c-25.600006,0 -46.399994,20.800003 -46.399994,46.399994c0,25.600006 20.799988,46.399994 46.399994,46.399994c25.600006,0 46.399994,-20.799988 46.399994,-46.399994c0,-25.599991 -20.800018,-46.399994 -46.399994,-46.399994z" id="svg_104"/>
      </g>
      <text x="-2" y="0" transform="matrix(1 0 0 1 334.763 323.551)" class="st43 st44 st45" id="svg_105">Benjamin Britten&#8217;s</text>
      <text x="-2" y="0" transform="matrix(1 0 0 1 297.618 346.456)" id="svg_106">
       <tspan x="0" y="0" class="st43 st44 st46" id="svg_107">The Young Person&#8217;s</tspan>
       <tspan x="-12.1" y="19.6" class="st43 st44 st46" id="svg_108">Guide to the Orchestra</tspan>
      </text>
     </g>
    </g>
   </g>
   <g class="st35" id="svg_109">
    <path class="st47" d="m432.5,398.600006c0,8.200012 -6.700012,14.899994 -14.899994,14.899994l-66.399994,0c-8.200012,0 -14.900024,-6.699982 -14.900024,-14.899994l0,0c0,-8.199982 6.700012,-14.899994 14.900024,-14.899994l66.399994,0c8.199982,0 14.899994,6.699982 14.899994,14.899994l0,0z" id="svg_110"/>
    <g id="svg_111">
     <path class="st48" d="m373.899994,399.5l0,2.399994l-1.700012,0l0,-7.199982l2.5,0c0.5,0 0.899994,0.099976 1.300018,0.199982c0.399994,0.100006 0.699982,0.300018 0.899994,0.5c0.199982,0.200012 0.399994,0.5 0.5,0.700012c0.100006,0.299988 0.199982,0.600006 0.199982,0.899994c0,0.399994 -0.099976,0.700012 -0.199982,1c-0.100006,0.299988 -0.300018,0.600006 -0.5,0.799988c-0.200012,0.200012 -0.5,0.400024 -0.899994,0.5c-0.400024,0.100006 -0.800018,0.200012 -1.300018,0.200012l-0.799988,0zm0,-1.200012l0.899994,0c0.399994,0 0.700012,-0.100006 0.899994,-0.299988c0.200012,-0.200012 0.300018,-0.5 0.300018,-0.900024c0,-0.199982 0,-0.299988 -0.100006,-0.5c0,-0.099976 -0.100006,-0.299988 -0.200012,-0.299988c-0.100006,-0.100006 -0.199982,-0.200012 -0.399994,-0.200012c-0.200012,-0.099976 -0.299988,-0.099976 -0.5,-0.099976l-0.899994,0l0,2.299988z" id="svg_112"/>
     <path class="st48" d="m382.200012,400.600006l2.700012,0l0,1.300018l-4.300018,0l0,-7.200012l1.700012,0l0,5.899994l-0.100006,0z" id="svg_113"/>
     <path class="st48" d="m394.399994,402l-1.300018,0c-0.099976,0 -0.299988,0 -0.399994,-0.100006c-0.100006,-0.100006 -0.199982,-0.199982 -0.199982,-0.299988l-0.400024,-1.300018l-2.699982,0l-0.399994,1.300018c0,0.100006 -0.100006,0.199982 -0.200012,0.199982c-0.100006,0.100006 -0.200012,0.100006 -0.399994,0.100006l-1.300018,0l2.800018,-7.199982l1.699982,0l2.800018,7.299988zm-4.699982,-2.799988l2,0l-0.700012,-2c0,-0.100006 -0.099976,-0.299988 -0.199982,-0.399994c-0.100006,-0.200012 -0.100006,-0.399994 -0.200012,-0.600006c-0.100006,0.200012 -0.100006,0.399994 -0.199982,0.600006c-0.100006,0.199982 -0.100006,0.299988 -0.200012,0.399994l-0.5,2z" id="svg_114"/>
     <path class="st48" d="m399.5,399.200012l0,2.700012l-1.700012,0l0,-2.700012l-2.599976,-4.5l1.5,0c0.099976,0 0.299988,0 0.299988,0.100006c0.100006,0.100006 0.200012,0.199982 0.200012,0.299988l1,2.100006c0.099976,0.200012 0.199982,0.299988 0.199982,0.5c0.100006,0.100006 0.100006,0.299988 0.200012,0.399994c0,-0.100006 0.100006,-0.299988 0.199982,-0.399994c0.100006,-0.100006 0.100006,-0.299988 0.200012,-0.5l1,-2.100006c0,0 0,-0.100006 0.100006,-0.100006c0,0 0.100006,-0.099976 0.100006,-0.099976c0,0 0.099976,-0.100006 0.199982,-0.100006c0.100006,0 0.100006,0 0.200012,0l1.5,0l-2.600006,4.399994z" id="svg_115"/>
     <path class="st48" d="m405,401.200012c0,-0.100006 0,-0.200012 0.100006,-0.299988c0,-0.100006 0.100006,-0.200012 0.199982,-0.300018c0.100006,-0.100006 0.200012,-0.100006 0.300018,-0.199982c0.100006,0 0.199982,-0.100006 0.299988,-0.100006c0.100006,0 0.200012,0 0.300018,0.100006c0.099976,0 0.199982,0.099976 0.299988,0.199982c0.100006,0.100006 0.100006,0.200012 0.200012,0.300018c0,0.099976 0.099976,0.199982 0.099976,0.299988c0,0.100006 0,0.200012 -0.099976,0.299988c0,0.100006 -0.100006,0.200012 -0.200012,0.300018c-0.100006,0.100006 -0.200012,0.100006 -0.299988,0.199982c-0.100006,0 -0.200012,0.100006 -0.300018,0.100006c-0.100006,0 -0.199982,0 -0.299988,-0.100006c-0.100006,0 -0.200012,-0.099976 -0.300018,-0.199982c-0.099976,-0.100006 -0.099976,-0.200012 -0.199982,-0.300018c-0.100006,-0.100006 -0.100006,-0.200012 -0.100006,-0.299988zm1.600006,-6.5l0,2.799988c0,0.300018 0,0.600006 -0.100006,0.900024c0,0.299988 -0.099976,0.599976 -0.099976,0.899994l-1,0c-0.100006,-0.300018 -0.100006,-0.600006 -0.100006,-0.899994c0,-0.300018 -0.100006,-0.600006 -0.100006,-0.900024l0,-2.799988l1.399994,0z" id="svg_116"/>
    </g>
    <g id="svg_117">
     <circle class="st9" cx="353.1" cy="398.8" r="10" id="svg_118"/>
     <path class="st48" d="m348.600006,395.200012c0,-0.899994 0.600006,-1.200012 1.300018,-0.799988l6.199982,3.599976c0.700012,0.400024 0.700012,1.100006 0,1.5l-6.199982,3.600006c-0.700012,0.399994 -1.300018,0.100006 -1.300018,-0.799988l0,-7.100006z" id="svg_119"/>
    </g>
   </g>
   <g class="st35" id="svg_120">
    <path class="st36" d="m759.299988,436.100006l-206,0c-15.400024,0 -28,-12.600006 -28,-28l0,-206c0,-15.399994 12.599976,-28 28,-28l206,0c15.400024,0 28,12.600006 28,28l0,206c0,15.399994 -12.599976,28 -28,28z" id="svg_121"/>
    <g id="svg_122">
     <g id="svg_123">
      <g id="svg_124">
       <g id="svg_125">
        <defs transform="translate(-2 0)">
         <circle id="SVGID_9_" cx="658.3" cy="246.2" r="49.3"/>
        </defs>
        <clipPath transform="translate(-2 0)" id="SVGID_6_">
         <use x="-2" y="0" xlink:href="#SVGID_9_" id="svg_126"/>
        </clipPath>
        <ellipse cx="655.6" cy="245.5" rx="55.9" ry="55.9" fill="#354EA1" clip-path="url(#SVGID_6_)" id="svg_127"/>
        <g class="st37" id="svg_128">
         <defs transform="translate(-2 0)">
          <ellipse id="SVGID_11_" cx="657.6" cy="245.5" rx="55.9" ry="55.9"/>
         </defs>
         <clipPath transform="translate(-2 0)" id="SVGID_8_">
          <use x="-2" y="0" xlink:href="#SVGID_11_" id="svg_129"/>
         </clipPath>
         <polyline points="1306.8 436.6 659.4 270.4 19.9 434.6" fill="url(#SVGID_10_)" clip-path="url(#SVGID_8_)" id="svg_130"/>
         <g class="st39" id="svg_131">
          <polygon class="st53" points="649.1 250.7 649.5 301.9 660.1 295.8" id="svg_132"/>
          <polygon class="st54" points="649.1 250.7 638.9 295.8 649.9 301.9" id="svg_133"/>
          <polygon points="632.4 255.6 632.7 297.3 641.3 292.3" fill="url(#SVGID_12_)" id="svg_134"/>
          <polygon class="st8" points="632.4 255.6 624.1 292.3 632.7 297.3" id="svg_135"/>
         </g>
         <g class="st39" id="svg_136">
          <circle cx="680.5" cy="228.4" r="22.1" fill="url(#SVGID_13_)" id="svg_137"/>
          <ellipse transform="matrix(0.573 -0.8196 0.8196 0.573 105.602 699.191)" class="st9" cx="722.654084" cy="246.66092" rx="1.9" ry="1.9" id="svg_138"/>
          <ellipse transform="matrix(0.5726 -0.8199 0.8199 0.5726 72.6558 668.093)" class="st9" cx="675.954922" cy="262.760375" rx="5.5" ry="5.5" id="svg_139"/>
          <ellipse transform="matrix(0.5726 -0.8199 0.8199 0.5726 93.4575 625.214)" class="st9" cx="645.154922" cy="221.360375" rx="5.5" ry="5.5" id="svg_140"/>
          <path class="st9" d="m632.799988,243.100006c-1.700012,2.5 -5.099976,3.100006 -7.599976,1.400009c-2.5,-1.700012 -3.100037,-5.100006 -1.400024,-7.600006c1.700012,-2.5 5.099976,-3.100006 7.599976,-1.399994c2.500061,1.699982 3.100037,5.099991 1.400024,7.599991z" id="svg_141"/>
          <ellipse transform="matrix(0.5727 -0.8197 0.8197 0.5727 116.773 611.373)" class="st9" cx="643.754478" cy="192.060425" rx="1.9" ry="1.9" id="svg_142"/>
         </g>
        </g>
       </g>
       <g id="svg_143">
        <path class="st9" d="m656.299988,297.399994c-28.299988,0 -51.299988,-23 -51.299988,-51.300003c0,-28.299988 23,-51.299988 51.299988,-51.299988c28.299988,0 51.299988,23 51.299988,51.299988c0,28.300003 -23,51.300003 -51.299988,51.300003zm0,-98.5c-26.099976,0 -47.299988,21.199997 -47.299988,47.300003c0,26.099991 21.200012,47.300003 47.299988,47.300003c26.099976,0 47.299988,-21.200012 47.299988,-47.300003c0,-26.099991 -21.199951,-47.300003 -47.299988,-47.300003z" id="svg_144"/>
       </g>
      </g>
      <text x="-2" y="0" transform="matrix(1 0 0 1 605.668 320.798)" class="st43 st44 st45" id="svg_145">Felix Mendelssohn&#8217;s</text>
      <text x="-2" y="0" transform="matrix(1 0 0 1 596.059 340.432)" id="svg_146">
       <tspan x="0" y="0" class="st43 st44 st46" id="svg_147">A Midsummer</tspan>
       <tspan x="-1.5" y="19.6" class="st43 st44 st46" id="svg_148">Night&#8217;s Dream:</tspan>
       <tspan x="-28" y="39.2" class="st43 st44 st46" id="svg_149">Music of Two Worlds</tspan>
      </text>
     </g>
    </g>
   </g>
   <g class="st35" id="svg_150">
    <path class="st47" d="m707.700012,399.399994c0,8.199982 -6.700012,14.899994 -14.900024,14.899994l-66.399963,0c-8.200012,0 -14.900024,-6.700012 -14.900024,-14.899994l0,0c0,-8.200012 6.700012,-14.899994 14.900024,-14.899994l66.399963,0c8.200012,0 14.900024,6.700012 14.900024,14.899994l0,0z" id="svg_151"/>
    <g id="svg_152">
     <path class="st48" d="m649.099976,400.299988l0,2.399994l-1.700012,0l0,-7.199982l2.5,0c0.5,0 0.900024,0.099976 1.299988,0.199982c0.400024,0.100006 0.700012,0.300018 0.900024,0.5c0.200012,0.200012 0.400024,0.5 0.5,0.700012c0.099976,0.299988 0.200012,0.600006 0.200012,0.899994c0,0.399994 -0.100037,0.700012 -0.200012,1c-0.099976,0.299988 -0.299988,0.600006 -0.5,0.799988c-0.200012,0.200012 -0.5,0.400024 -0.900024,0.5c-0.399963,0.100006 -0.799988,0.200012 -1.299988,0.200012l-0.799988,0zm0,-1.299988l0.900024,0c0.399963,0 0.699951,-0.100006 0.899963,-0.299988c0.200012,-0.200012 0.299988,-0.5 0.299988,-0.900024c0,-0.199982 0,-0.299988 -0.099976,-0.399994c0,-0.100006 -0.099976,-0.299988 -0.200012,-0.299988c-0.099976,-0.100006 -0.200012,-0.200012 -0.399963,-0.200012c-0.200012,-0.100006 -0.300049,-0.100006 -0.5,-0.100006l-0.900024,0l0,2.200012z" id="svg_153"/>
     <path class="st48" d="m657.400024,401.399994l2.700012,0l0,1.299988l-4.299988,0l0,-7.199982l1.699951,0l0,5.899994l-0.099976,0z" id="svg_154"/>
     <path class="st48" d="m669.5,402.700012l-1.299988,0c-0.100037,0 -0.299988,0 -0.400024,-0.100006c-0.099976,-0.100006 -0.200012,-0.199982 -0.200012,-0.299988l-0.399963,-1.300018l-2.700012,0l-0.400024,1.300018c0,0.100006 -0.099976,0.199982 -0.199951,0.199982c-0.100037,0.100006 -0.200012,0.100006 -0.400024,0.100006l-1.299988,0l2.799988,-7.199982l1.700012,0l2.799988,7.299988zm-4.599976,-2.700012l2,0l-0.700012,-2c0,-0.100006 -0.099976,-0.299988 -0.200012,-0.399994c-0.099976,-0.200012 -0.099976,-0.399994 -0.199951,-0.600006c-0.100037,0.200012 -0.100037,0.399994 -0.200012,0.600006c-0.100037,0.199982 -0.100037,0.299988 -0.200012,0.399994l-0.5,2z" id="svg_155"/>
     <path class="st48" d="m674.700012,400l0,2.700012l-1.700012,0l0,-2.700012l-2.599976,-4.5l1.5,0c0.099976,0 0.299988,0 0.299988,0.100006c0.099976,0.100006 0.200012,0.199982 0.200012,0.299988l1,2.100006c0.099976,0.200012 0.199951,0.299988 0.199951,0.5c0.100037,0.100006 0.100037,0.299988 0.200012,0.399994c0,-0.100006 0.100037,-0.299988 0.200012,-0.399994c0.099976,-0.100006 0.099976,-0.299988 0.200012,-0.5l1,-2.100006c0,0 0,-0.100006 0.099976,-0.100006c0,0 0.100037,-0.099976 0.100037,-0.099976c0,0 0.099976,-0.100006 0.199951,-0.100006c0.100037,0 0.100037,0 0.200012,0l1.5,0l-2.599976,4.399994z" id="svg_156"/>
     <path class="st48" d="m680.200012,401.899994c0,-0.100006 0,-0.200012 0.099976,-0.300018c0,-0.099976 0.100037,-0.199982 0.200012,-0.299988c0.100037,-0.100006 0.200012,-0.100006 0.299988,-0.200012c0.100037,0 0.200012,-0.099976 0.300049,-0.099976c0.099976,0 0.199951,0 0.299988,0.099976c0.099976,0 0.200012,0.100006 0.299988,0.200012c0.099976,0.100006 0.099976,0.200012 0.200012,0.299988c0,0.100006 0.099976,0.200012 0.099976,0.300018c0,0.100006 0,0.199982 -0.099976,0.299988c0,0.100006 -0.100037,0.200012 -0.200012,0.300018c-0.099976,0.099976 -0.200012,0.099976 -0.299988,0.199982c-0.100037,0 -0.200012,0.100006 -0.299988,0.100006c-0.100037,0 -0.200012,0 -0.300049,-0.100006c-0.099976,0 -0.199951,-0.100006 -0.299988,-0.199982c-0.099976,-0.100006 -0.099976,-0.200012 -0.200012,-0.300018c-0.099976,0.000031 -0.099976,-0.099976 -0.099976,-0.299988zm1.599976,-6.399994l0,2.799988c0,0.300018 0,0.600006 -0.099976,0.900024c0,0.299988 -0.100037,0.599976 -0.100037,0.899994l-1,0c-0.099976,-0.300018 -0.099976,-0.600006 -0.099976,-0.899994c0,-0.300018 -0.100037,-0.600006 -0.100037,-0.900024l0,-2.799988l1.400024,0z" id="svg_157"/>
    </g>
    <g id="svg_158">
     <circle class="st9" cx="628.2" cy="399.6" r="10" id="svg_159"/>
     <path class="st48" d="m623.799988,396c0,-0.899994 0.599976,-1.200012 1.299988,-0.799988l6.200012,3.599976c0.700012,0.400024 0.700012,1.100006 0,1.5l-6.200012,3.600006c-0.700012,0.399994 -1.299988,0.100006 -1.299988,-0.799988l0,-7.100006z" id="svg_160"/>
    </g>
   </g>
   <g class="st35" id="svg_161">
    <path class="st36" d="m1034.400024,436.899994l-206,0c-15.400024,0 -28,-12.600006 -28,-28l0,-206c0,-15.400009 12.599976,-28 28,-28l206,0c15.400024,0 28,12.599991 28,28l0,206c0,15.399994 -12.599976,28 -28,28z" id="svg_162"/>
    <g id="svg_163">
     <g id="svg_164">
      <g id="svg_165">
       <defs transform="translate(-2 0)">
        <circle id="SVGID_16_" cx="933.4" cy="246.9" r="49.3"/>
       </defs>
       <clipPath transform="translate(-2 0)" id="SVGID_14_">
        <use x="-2" y="0" xlink:href="#SVGID_16_" id="svg_166"/>
       </clipPath>
       <ellipse cx="930.7" cy="246.3" rx="55.9" ry="55.9" fill="#354EA1" clip-path="url(#SVGID_14_)" id="svg_167"/>
       <polygon points="866.1 310.1 971.1 241.8 1120 328.8" fill="#8AD0C4" clip-path="url(#SVGID_14_)" id="svg_168"/>
       <polyline points="766.4 303.4 906.1 234 970 304.3 862.5 303.4" fill="#CB95C3" clip-path="url(#SVGID_14_)" id="svg_169"/>
       <polygon points="906.1 234 923.8 304.3 1002.6 296.2" fill="#D8B3D5" clip-path="url(#SVGID_14_)" id="svg_170"/>
       <ellipse transform="matrix(0.3835 -0.9235 0.9235 0.3835 322.688 1053.94)" cx="950.032942" cy="283.45286" rx="2.6" ry="23" fill="#D1ABD0" clip-path="url(#SVGID_14_)" id="svg_171"/>
       <g clip-path="url(#SVGID_14_)" id="svg_172">
        <polyline class="st30" points="931.2 277.2 959 262.5 967.4 292.8" id="svg_173"/>
       </g>
       <g clip-path="url(#SVGID_14_)" id="svg_174">
        <defs transform="translate(-2 0)">
         <ellipse id="SVGID_18_" cx="932.7" cy="246.3" rx="55.9" ry="55.9"/>
        </defs>
        <clipPath transform="translate(-2 0)" id="SVGID_15_">
         <use x="-2" y="0" xlink:href="#SVGID_18_" id="svg_175"/>
        </clipPath>
        <g clip-path="url(#SVGID_15_)" id="svg_176">
         <ellipse transform="matrix(0.5728 -0.8197 0.8197 0.5728 232.822 925.524)" class="st9" cx="1003.154409" cy="237.760613" rx="1.9" ry="1.9" id="svg_177"/>
         <ellipse transform="matrix(0.5725 -0.8199 0.8199 0.5725 206.64 871.293)" class="st9" cx="937.754991" cy="235.860187" rx="5.5" ry="5.5" id="svg_178"/>
         <ellipse transform="matrix(0.5725 -0.8199 0.8199 0.5725 220.661 851.476)" class="st9" cx="925.754991" cy="212.460187" rx="5.5" ry="5.5" id="svg_179"/>
         <path class="st9" d="m961,224.600006c-1.700012,2.5 -5.099976,3.100006 -7.599976,1.400009c-2.5,-1.700012 -3.100037,-5.100006 -1.400024,-7.600006c1.700012,-2.5 5.099976,-3.100006 7.599976,-1.399994c2.5,1.699982 3.100037,5.099991 1.400024,7.599991z" id="svg_180"/>
         <ellipse transform="matrix(0.5727 -0.8197 0.8197 0.5727 243.898 837.567)" class="st9" cx="924.254478" cy="183.160425" rx="1.9" ry="1.9" id="svg_181"/>
        </g>
       </g>
      </g>
      <g id="svg_182">
       <path class="st9" d="m931.400024,298.200012c-28.299988,0 -51.299988,-23 -51.299988,-51.300003c0,-28.300003 23,-51.300003 51.299988,-51.300003c28.299988,0 51.299988,23 51.299988,51.300003c0,28.300003 -23,51.300003 -51.299988,51.300003zm0,-98.600006c-26.099976,0 -47.299988,21.199997 -47.299988,47.300003c0,26.099991 21.200012,47.300003 47.299988,47.300003c26.099976,0 47.299988,-21.200012 47.299988,-47.300003c0,-26.100006 -21.200012,-47.300003 -47.299988,-47.300003z" id="svg_183"/>
      </g>
     </g>
     <text x="-2" y="0" transform="matrix(1 0 0 1 887.884 327.377)" id="svg_184">
      <tspan x="0" y="0" class="st43 st44 st45" id="svg_185">Anton&#237;n Dvo</tspan>
      <tspan x="66.4" y="0" class="st43 st64 st45" id="svg_186">&#345;</tspan>
      <tspan x="70.5" y="0" class="st43 st44 st45" id="svg_187">&#225;k&#8217;s</tspan>
     </text>
     <text x="-2" y="0" transform="matrix(1 0 0 1 882.393 347.625)" id="svg_188">
      <tspan x="0" y="0" class="st43 st44 st46" id="svg_189">New World</tspan>
      <tspan x="5.6" y="19.6" class="st43 st44 st46" id="svg_190">Symphony</tspan>
     </text>
    </g>
   </g>
   <g class="st35" id="svg_191">
    <path class="st47" d="m980.900024,400.200012c0,8.200012 -6.700012,14.899994 -14.900024,14.899994l-66.399963,0c-8.200012,0 -14.900024,-6.699982 -14.900024,-14.899994l0,0c0,-8.200012 6.700012,-14.899994 14.900024,-14.899994l66.399963,0c8.200012,-0.000031 14.900024,6.599976 14.900024,14.899994l0,0z" id="svg_192"/>
    <g id="svg_193">
     <path class="st48" d="m922.299988,401.100006l0,2.399994l-1.700012,0l0,-7.199982l2.5,0c0.5,0 0.900024,0.100006 1.299988,0.199982c0.400024,0.100006 0.700012,0.300018 0.900024,0.5c0.200012,0.200012 0.400024,0.5 0.5,0.700012c0.099976,0.299988 0.200012,0.600006 0.200012,0.899994c0,0.399994 -0.100037,0.700012 -0.200012,1c-0.099976,0.300018 -0.299988,0.600006 -0.5,0.800018c-0.200012,0.199982 -0.5,0.399994 -0.900024,0.5c-0.399963,0.099976 -0.799988,0.199982 -1.299988,0.199982l-0.799988,0zm0,-1.300018l0.900024,0c0.399963,0 0.699951,-0.100006 0.899963,-0.299988c0.200012,-0.200012 0.299988,-0.5 0.299988,-0.900024c0,-0.199982 0,-0.299988 -0.099976,-0.5c0,-0.099976 -0.099976,-0.299988 -0.200012,-0.299988c-0.099976,-0.100006 -0.200012,-0.200012 -0.399963,-0.200012c-0.200012,-0.099976 -0.300049,-0.099976 -0.5,-0.099976l-0.900024,0l0,2.299988z" id="svg_194"/>
     <path class="st48" d="m930.599976,402.200012l2.700012,0l0,1.299988l-4.299988,0l0,-7.199982l1.700012,0l0,5.899994l-0.100037,0z" id="svg_195"/>
     <path class="st48" d="m942.799988,403.5l-1.299988,0c-0.100037,0 -0.299988,0 -0.400024,-0.100006c-0.099976,-0.100006 -0.200012,-0.199982 -0.200012,-0.299988l-0.399963,-1.300018l-2.700012,0l-0.400024,1.300018c0,0.100006 -0.099976,0.199982 -0.199951,0.199982c-0.100037,0.100006 -0.200012,0.100006 -0.400024,0.100006l-1.299988,0l2.799988,-7.199982l1.700012,0l2.799988,7.299988zm-4.700012,-2.799988l2,0l-0.700012,-2c0,-0.100006 -0.099976,-0.299988 -0.200012,-0.399994c-0.099976,-0.200012 -0.099976,-0.399994 -0.199951,-0.600006c-0.100037,0.200012 -0.100037,0.399994 -0.200012,0.600006c-0.100037,0.199982 -0.100037,0.299988 -0.200012,0.399994l-0.5,2z" id="svg_196"/>
     <path class="st48" d="m947.900024,400.700012l0,2.700012l-1.700012,0l0,-2.700012l-2.599976,-4.5l1.5,0c0.099976,0 0.299988,0 0.299988,0.100006c0.099976,0.100006 0.200012,0.199982 0.200012,0.299988l1,2.100006c0.099976,0.200012 0.200012,0.299988 0.200012,0.5c0.099976,0.100006 0.099976,0.299988 0.199951,0.399994c0,-0.100006 0.100037,-0.299988 0.200012,-0.399994c0.100037,-0.100006 0.100037,-0.299988 0.200012,-0.5l1,-2.100006c0,0 0,-0.100006 0.099976,-0.100006c0,0 0.100037,-0.099976 0.100037,-0.099976c0,0 0.099976,-0.100006 0.200012,-0.100006c0.099976,0 0.099976,0 0.199951,0l1.5,0l-2.599976,4.399994z" id="svg_197"/>
     <path class="st48" d="m953.400024,402.700012c0,-0.100006 0,-0.200012 0.099976,-0.299988c0,-0.100006 0.100037,-0.200012 0.200012,-0.300018c0.100037,-0.100006 0.200012,-0.100006 0.299988,-0.199982c0.100037,0 0.200012,-0.100006 0.300049,-0.100006c0.099976,0 0.199951,0 0.299988,0.100006c0.099976,0 0.200012,0.099976 0.299988,0.199982c0.099976,0.100006 0.099976,0.200012 0.200012,0.300018c0,0.099976 0.099976,0.199982 0.099976,0.299988c0,0.100006 0,0.200012 -0.099976,0.299988c0,0.100006 -0.100037,0.200012 -0.200012,0.300018c-0.099976,0.100006 -0.200012,0.100006 -0.299988,0.199982c-0.100037,0 -0.200012,0.100006 -0.299988,0.100006c-0.100037,0 -0.200012,0 -0.300049,-0.100006c-0.099976,0 -0.199951,-0.099976 -0.299988,-0.199982c-0.099976,-0.100006 -0.099976,-0.200012 -0.200012,-0.300018c-0.099976,-0.100006 -0.099976,-0.200012 -0.099976,-0.299988zm1.599976,-6.400024l0,2.799988c0,0.300018 0,0.600006 -0.099976,0.900024c0,0.299988 -0.100037,0.599976 -0.100037,0.899994l-1,0c-0.099976,-0.300018 -0.099976,-0.600006 -0.099976,-0.899994c0,-0.300018 -0.100037,-0.600006 -0.100037,-0.900024l0,-2.799988l1.400024,0z" id="svg_198"/>
    </g>
    <g id="svg_199">
     <circle class="st9" cx="901.5" cy="400.4" r="10" id="svg_200"/>
     <path class="st48" d="m897,396.799988c0,-0.899994 0.599976,-1.200012 1.299988,-0.799988l6.200012,3.599976c0.700012,0.400024 0.700012,1.100006 0,1.5l-6.200012,3.600006c-0.700012,0.399994 -1.299988,0.100006 -1.299988,-0.799988l0,-7.100006z" id="svg_201"/>
    </g>
   </g>
  </g>
  <g id="logo" class="st0">
   <g class="st35" id="svg_202">
    <circle class="st9" cx="72" cy="61.1" r="36.299999" id="svg_203"/>
    <g id="svg_204">
     <defs transform="translate(-2 0)">
      <circle id="SVGID_20_" cx="74" cy="61.1" r="31.1"/>
     </defs>
     <use x="-2" y="0" xlink:href="#SVGID_20_" fill="#BFE7F7" id="svg_205"/>
     <clipPath transform="translate(-2 0)" id="SVGID_17_">
      <use x="-2" y="0" xlink:href="#SVGID_20_" id="svg_206"/>
     </clipPath>
     <g class="st62" id="svg_207">
      <circle class="st9" cx="107.1" cy="63.2" r="0.7" id="svg_208"/>
      <polyline points="479 148.1 66.1 42 -345.8 153.5" fill="url(#SVGID_19_)" id="svg_209"/>
      <polyline class="st67" points="488.7 160.1 75.8 54 -336.2 165.5" id="svg_210"/>
      <circle class="st9" cx="64.3" cy="82.4" r="0.7" id="svg_211"/>
      <circle class="st9" cx="43.8" cy="86.8" r="0.7" id="svg_212"/>
      <circle class="st9" cx="100.8" cy="80.2" r="0.7" id="svg_213"/>
      <polygon class="st23" points="30.3 95.8 36 86.7 41 96.2" id="svg_214"/>
      <circle class="st9" cx="93.2" cy="86.1" r="0.7" id="svg_215"/>
      <path class="st17" d="m-35.200001,99.099998c0,0 46.000001,-7.900002 123.299992,0.099998l-26.5,-0.099998l-96.799992,0z" id="svg_216"/>
      <polygon class="st28" points="104.1 91.8 103.1 86.4 107.4 83.3 111.8 86.4 111 91.8" id="svg_217"/>
      <path class="st68" d="m88.599998,116.900002c-7.5,-3.099998 -13.199997,-6.300003 -12.900002,-7.200005" id="svg_218"/>
      <g id="svg_219">
       <polyline class="st30" points="78.1 110.2 95.8 100.8 101.1 120.2" id="svg_220"/>
      </g>
     </g>
     <path d="m103.900002,76c0,0 -18.599998,-8.099998 -29.5,-9.199997c-10.800003,-1.100006 -21.5,1.099998 -27.900002,3.199997c-6.299999,2.099998 -70.299999,20.199997 -70.9,20.800003c-0.6,0.599998 128.099997,0.099998 128.099997,0.099998l0.199989,-14.900002l0.000015,0z" fill="#CD6432" clip-path="url(#SVGID_17_)" id="svg_221"/>
     <path d="m-43.299999,95.699997c0,0 122.100002,-24.099998 165.39999,-23.099998l4.899994,0l-0.399994,22.800003l-169.89999,0.299995z" fill="#F17232" clip-path="url(#SVGID_17_)" id="svg_222"/>
    </g>
   </g>
   <g class="st35" id="svg_223">
    <text x="-2" y="0" transform="matrix(1 0 0 1 114.473 85.781)" class="st71 st72" id="svg_224">Playgrounds</text>
    <text x="-2" y="0" transform="matrix(1 0 0 1 114.474 61.1497)" class="st44 st73" id="svg_225">Variation</text>
   </g>
  </g>
  <g id="footer" class="st0">
   <rect x="-3.4" y="821.6" class="st74" width="1306.7" height="113.6" id="svg_226"/>
   <path class="st75" d="m126.399994,897.900024c-2.800003,0 -5.000008,-2.200012 -5.000008,-5c0,-2.799988 2.200005,-4.900024 5.000008,-4.900024c2.699997,0 5,2.200012 5,4.900024c0,2.699951 -2.199997,5 -5,5m-33.699997,-5.5l-3.099998,0l0,-5.099976l3.099998,0c1.800003,0 2.600006,1.199951 2.700005,2.399963c-0.099998,1.399963 -1,2.700012 -2.700005,2.700012m-16.5,0.699951l2.600006,-5.400024l2.599998,5.400024l-5.200005,0zm-24.899998,-10.5c-3.899998,0 -7,-3.099976 -7,-7c0,-3.900024 3.100002,-7 7,-7c3.900002,0 7,3.099976 7,7c0,3.900024 -3.099998,7 -7,7m11.000004,-14.199951l3.399994,0c1.900002,0 2.800003,1.299988 2.800003,2.700012c0,1.299988 -0.900002,2.799988 -2.800003,2.799988l-3.399994,0l0,-5.5zm9.099998,4.399963l0,7.900024l-2.900002,-4.300049c1.400002,-0.799988 2.400002,-2.199951 2.900002,-3.599976m54.999992,12c-3.200005,0 -5.900002,1.799988 -7.200005,4.400024l0,-5.300049c0,-0.199951 -0.199997,-0.399963 -0.400002,-0.399963l-1.799988,0c-0.199997,0 -0.300003,0.099976 -0.400002,0.200012l-6.199997,9.899963l0,0l-0.800003,1.100037l-0.099998,0l-0.699997,-1.100037l0,0l-6.300003,-9.799988c-0.099998,-0.200012 -0.199997,-0.200012 -0.400002,-0.200012l-1.799995,0c-0.200005,0 -0.400002,0.200012 -0.400002,0.400024l0,17.299988l-4.200012,-6.299988c1.900009,-0.900024 3,-3 3,-4.900024c0,-2.399963 -2,-5.399963 -5.099991,-5.399963l-6.599998,0c-0.199997,0 -0.400002,0.199951 -0.400002,0.399963l0,13l-7.599998,-15.5c-0.099998,-0.099976 -0.199997,-0.200012 -0.300003,-0.200012l-0.199997,0c-0.099998,0 -0.199997,0.100037 -0.300003,0.200012l-8.699997,17.900024l0,-16.5c0,-0.200012 -0.199997,-0.400024 -0.400002,-0.400024l-2.199997,0c-0.200012,0 -0.400002,0.200012 -0.400002,0.400024l0,6.799988l-7.5,0l0,-8.200012c0,-0.099976 0.099998,-0.200012 0.200001,-0.299988l2.200001,0c0.199997,0 0.399998,-0.100037 0.399998,-0.400024l0,-4.799988l3.299999,0l2.800003,4.299988c0.199997,0.299988 0.699997,0.900024 1.299995,0.900024l2,0l0,0l0,0l2.200005,0c0.199997,0 0.400002,-0.200012 0.400002,-0.400024l0,-8.299988l7.099998,8.5c0.099998,0.099976 0.299995,0.200012 0.400002,0.200012l2.299995,0c0.599998,0 0.800003,-0.600037 0.400002,-1l-6.800003,-8.100037l6.400002,-6.699951c0.300003,-0.300049 0.099998,-0.900024 -0.400002,-0.900024l-2.299995,0c-0.200005,0 -0.300003,0.099976 -0.599998,0.200012l-6.700005,7l0,-6.200012c0,-0.599976 -0.400002,-1 -1.099998,-1l-1.400002,0c-0.199997,0 -0.299995,0.200012 -0.199997,0.599976c0.099998,0.400024 0.099998,0.800049 0.199997,1.300049l0,2.199951c-0.699997,-2.099976 -2.599998,-4.099976 -5.099998,-4.099976l-6.700001,0c-0.200001,0 -0.399998,0.200012 -0.399998,0.400024l0,3.099976c-1.900002,-2.200012 -4.700001,-3.700012 -7.900002,-3.700012c-2,0 -3.799999,0.600037 -5.299999,1.400024l2.200001,-4.400024c0.199997,-0.299988 -0.100002,-0.799988 -0.400002,-0.799988l-2.299999,0c-0.200001,0 -0.299999,0.099976 -0.400002,0.299988l-4.899998,10.200012l-6.5,-10.400024c-0.100002,-0.099976 -0.200001,-0.199951 -0.400002,-0.199951l-2.599998,0c-0.400002,0 -0.700001,0.399963 -0.400002,0.799988l8,12.799988c0.099998,0.099976 0.099998,0.299988 0,0.599976l-3.900002,7.900024c-0.299999,0.400024 -0.099998,1 0.700001,1l2.100002,0c0.099998,0 0.199997,-0.099976 0.199997,-0.099976l3.800003,-7.700012c0.599998,5.200012 4.899998,9.200012 10.199997,9.200012c1.900002,0 3.700001,-0.600037 5.200001,-1.400024l0,12.099976c0,0.200012 0.200001,0.400024 0.400002,0.400024l2.299999,0c0.200001,0 0.400002,-0.200012 0.400002,-0.400024l0,-3l7.299995,0l0,7.700012c0,0.700012 0.300003,1.100037 1,1.100037l1.400002,0l0,0l2.400002,0c0.199997,0 0.300003,-0.100037 0.400002,-0.200012l3,-6.299988l7.400002,0l1.399994,3l0,0c0.100006,0.299988 0.400002,0.599976 0.900002,0.599976l2.400002,0c0,0 0,0 0.099998,0c0,0 0,0 0.099998,0l2.200005,0c0.199997,0 0.299995,-0.099976 0.299995,-0.400024l0,-3.599976l3.100006,0l6,9.200012c0.199997,0.299988 0.699997,0.899963 1.199997,0.899963l2.300003,0c0.199997,0 0.399994,-0.199951 0.399994,-0.399963l0,-15.200012l5.600006,8.299988c0.099998,0.200012 0.199997,0.200012 0.399994,0.200012l1.400002,0c0.200005,0 0.300003,-0.099976 0.400002,-0.200012l5.5,-8.299988l0,10.700012c0,0.200012 0.199997,0.399963 0.400002,0.399963l2.099998,0c0.199997,0 0.400002,-0.199951 0.400002,-0.399963l0,-4c1.299995,2.700012 4,4.399963 7.200005,4.399963c4.399994,0 8,-3.599976 8,-8.099976c0.299988,-4.799988 -3.200012,-8.299988 -7.700012,-8.299988m26.400009,-8l-2.100006,0c-0.199997,0 -0.399994,0.200012 -0.399994,0.400024l0,21.899963l-12.5,-14.299988c-0.100006,-0.200012 -0.199997,-0.200012 -0.400009,-0.200012l-1.199997,0c-0.199997,0 -0.399994,0.200012 -0.399994,0.400024c0,0 0,15.5 0,15.700012c0,0.199951 0.199997,0.299988 0.399994,0.299988l2.100006,0c0.199997,0 0.300003,-0.100037 0.300003,-0.200012l0,-0.099976l0,-10.200012l12.5,14.299988c0.099991,0.200012 0.199997,0.299988 0.399994,0.299988l1.199997,0c0.199997,0 0.400009,-0.200012 0.400009,-0.399963l0,-27.400024c0.099991,-0.299988 0,-0.5 -0.300003,-0.5m18.800003,19.5c-0.199997,-0.099976 -0.300003,-0.099976 -0.599991,0c-0.900009,0.900024 -2.200012,1.400024 -3.600006,1.400024c-2.800003,0 -5,-2.100037 -5,-4.900024c0,-2.799988 2.199997,-5 5,-5c1.399994,0 2.699997,0.599976 3.699997,1.400024c0.199997,0.199951 0.300003,0.199951 0.600006,0l1.699997,-1.400024c0.199997,-0.099976 0.199997,-0.299988 0,-0.599976c-1.399994,-1.700012 -3.600006,-2.700012 -5.899994,-2.700012c-4.400009,0 -8,3.599976 -8,8.099976c0,4.600037 3.599991,8 8,8c2.299988,0 4.399994,-1 5.899994,-2.599976c0.199997,-0.200012 0.100006,-0.400024 0,-0.600037l-1.800003,-1.099976zm-111.000008,3l-6.399998,0l0,-11.099976c0,-0.100037 -0.100002,-0.200012 -0.299999,-0.200012l-2.300003,0c-0.099998,0 -0.199997,0.099976 -0.199997,0.200012l0,13.799988c0,0.099976 0.099998,0.299988 0.299999,0.299988l9.099998,0c0.100002,0 0.200001,-0.099976 0.200001,-0.299988l0,-2.400024c-0.099998,-0.199951 -0.200001,-0.299988 -0.400002,-0.299988m97.000008,-14.799988l-2.099991,0c-0.200012,0 -0.400009,0.200012 -0.400009,0.400024l0,15.5c0,0.199951 0.199997,0.399963 0.400009,0.399963l2.099991,0c0.199997,0 0.400009,-0.200012 0.400009,-0.399963l0,-15.5c-0.100021,-0.200012 -0.200012,-0.400024 -0.400009,-0.400024m-109.000008,3.5l-2.299999,0c-0.200001,0 -0.299999,0.099976 -0.299999,0.299988l0,16.700012c0,0.200012 0.099998,0.299988 0.299999,0.299988l2.299999,0c0.100002,0 0.300003,-0.099976 0.300003,-0.299988l0,-16.799988c0,-0.100037 -0.100002,-0.200012 -0.300003,-0.200012m-10.199997,-26.599976l2.099998,0c0.200001,0 0.400002,-0.200012 0.400002,-0.400024l0,-10.099976l11.399998,12.400024c0.299999,0.299988 0.799999,0.799988 1.900002,0.799988l7.5,0c0.200001,0 0.399998,-0.200012 0.399998,-0.400024l0,-2.200012c0,-0.199951 -0.199997,-0.399963 -0.399998,-0.399963l-6.200001,0l0,-3.600037l3.799999,0c0.200001,0 0.400002,-0.199951 0.400002,-0.399963l0,-2.200012c0,-0.200012 -0.200001,-0.400024 -0.400002,-0.400024l-3.899998,0l0,-3.799988l4.599998,0c0.099998,0 0.200001,0.100037 0.299999,0.100037l6.000004,13c0.099998,0.199951 0.199997,0.399963 0.399994,0.399963l0.300003,0c0.199997,0 0.300003,-0.200012 0.400002,-0.399963l2.199997,-4.800049l2.200012,4.800049c0.099991,0.199951 0.199989,0.399963 0.399986,0.399963l0.200005,0c0.199997,0 0.299995,-0.200012 0.400009,-0.399963l8.899986,-18.5c0.100014,-0.200012 -0.199997,-0.400024 -0.399986,-0.400024l-2.700012,0c-0.199997,0 -0.299988,0.200012 -0.400002,0.400024l-5.599998,12.399963c-0.099998,0 -0.099998,0 -0.099998,0l-1.099998,-2.399963l3.299995,-7.200012c0.100014,-0.200012 -0.199997,-0.400024 -0.399986,-0.400024l-2.700012,0c-0.199997,0 -0.299988,0.200012 -0.400002,0.400024l-1.599998,3.399963l-1.599998,-3.399963c-0.099998,-0.200012 -0.199989,-0.400024 -0.400002,-0.400024l-2.599998,0c-0.199989,0 -0.599998,0.200012 -0.400002,0.400024l3.300003,7.200012l-1.099991,2.399963c-0.100014,0 -0.100014,0 -0.100014,0l-4.299995,-9.700012c-0.099991,-0.199951 -0.200005,-0.399963 -0.400002,-0.399963l-9.299999,0c-0.200001,0 -0.400002,0.200012 -0.400002,0.399963l0,11.400024l-12.099998,-14.299988c-0.100002,-0.200012 -0.200001,-0.200012 -0.400002,-0.200012l-1.200001,0c-0.199997,0 -0.399998,0.200012 -0.399998,0.400024l0,16c-0.299999,-0.000061 0,0.099976 0.200001,0.099976m-11.800001,30l-3.1,0l0,-5.099976l3.1,0c1.799999,0 2.699999,1.199951 2.699999,2.599976c-0.099998,1.299988 -1,2.5 -2.699999,2.5m16.800001,-6.900024l-2.300003,0c-0.199997,0 -0.299999,0.099976 -0.299999,0.299988l0,7.299988l-7.299999,0l0,-5c0,-0.199951 -0.099998,-0.299988 -0.299999,-0.299988l-1.299999,0c-0.800003,-1.799988 -2.400002,-3.299988 -4.700001,-3.299988l-6.200001,0c-0.200001,0 -0.4,0.200012 -0.4,0.400024l0,18.099976c0,0.200012 0.1,0.400024 0.299999,0.400024l2.1,0c0.200001,0 0.299999,-0.100037 0.299999,-0.400024l0,-7.5l3.800001,0c1.299999,0 2.6,-0.599976 3.4,-1.299988l0,9c0,0.200012 0.099998,0.299988 0.299999,0.299988l2.299999,0c0.200001,0 0.300003,-0.099976 0.300003,-0.299988l0,-6.5l7.299999,0l0,5.099976c0,0.200012 0.099998,0.299988 0.299999,0.299988l2.299999,0c0.200001,0 0.299999,-0.099976 0.299999,-0.299988l0,-15.899963c0,-0.300049 -0.099998,-0.400024 -0.199997,-0.400024" id="svg_227"/>
   <g class="st35" id="svg_228">
    <g id="svg_229">
     <g id="svg_230">
      <ellipse transform="matrix(0.7527 -0.6584 0.6584 0.7527 -300.46 938.138)" class="st9" cx="1096.994672" cy="867.683263" rx="2.9" ry="2.9" id="svg_231"/>
     </g>
     <g id="svg_232">
      <ellipse transform="matrix(0.7528 -0.6582 0.6582 0.7528 -303.375 943.277)" class="st9" cx="1102.694302" cy="874.283514" rx="2.9" ry="2.9" id="svg_233"/>
     </g>
     <g id="svg_234">
      <ellipse transform="matrix(0.7528 -0.6582 0.6582 0.7528 -310.581 936.825)" class="st9" cx="1090.594302" cy="880.683514" rx="2.9" ry="2.9" id="svg_235"/>
     </g>
     <g id="svg_236">
      <ellipse transform="matrix(0.7527 -0.6583 0.6583 0.7527 -308.925 942.756)" class="st9" cx="1099.094474" cy="881.283289" rx="2.9" ry="2.9" id="svg_237"/>
     </g>
     <g id="svg_238">
      <ellipse transform="matrix(0.7527 -0.6584 0.6584 0.7527 -312.921 946.643)" class="st9" cx="1102.094672" cy="888.483263" rx="2.9" ry="2.9" id="svg_239"/>
     </g>
     <g id="svg_240">
      <ellipse transform="matrix(0.7528 -0.6582 0.6582 0.7528 -318.602 943.26)" class="st9" cx="1095.194302" cy="894.583514" rx="2.9" ry="2.9" id="svg_241"/>
     </g>
    </g>
    <g id="svg_242">
     <path class="st9" d="m1227.300049,857.400024l0,27.200012l-5.599976,0l0,-27.200012l5.599976,0z" id="svg_243"/>
     <path class="st9" d="m1244.800049,884.599976c-0.5,0 -0.900024,-0.099976 -1.199951,-0.200012c-0.300049,-0.099976 -0.5,-0.399963 -0.700073,-0.899963l-0.400024,-1c-0.5,0.399963 -0.899902,0.799988 -1.399902,1.099976c-0.400024,0.299988 -0.900024,0.599976 -1.400024,0.799988c-0.5,0.200012 -1,0.400024 -1.5,0.5c-0.5,0.100037 -1.099976,0.200012 -1.800049,0.200012c-0.900024,0 -1.599976,-0.099976 -2.299927,-0.299988c-0.700073,-0.200012 -1.300049,-0.600037 -1.800049,-1c-0.5,-0.400024 -0.900024,-1 -1.099976,-1.600037c-0.300049,-0.599976 -0.400024,-1.399963 -0.400024,-2.299988c0,-0.700012 0.199951,-1.399963 0.5,-2.099976c0.300049,-0.700012 0.900024,-1.299988 1.800049,-1.900024c0.799927,-0.599976 2,-1.099976 3.399902,-1.399963c1.400024,-0.400024 3.200073,-0.600037 5.400024,-0.600037l0,-0.799988c0,-1.099976 -0.199951,-1.900024 -0.699951,-2.400024c-0.5,-0.5 -1.099976,-0.699951 -1.900024,-0.699951c-0.699951,0 -1.199951,0.099976 -1.599976,0.199951c-0.400024,0.100037 -0.800049,0.300049 -1.099976,0.5c-0.300049,0.200012 -0.700073,0.300049 -1,0.5c-0.300049,0.100037 -0.700073,0.200012 -1.100098,0.200012c-0.399902,0 -0.699951,-0.099976 -1,-0.299988c-0.299927,-0.200012 -0.5,-0.400024 -0.599976,-0.700012l-1,-1.799988c1.099976,-1 2.400024,-1.799988 3.800049,-2.200012c1.400024,-0.5 2.900024,-0.700012 4.5,-0.700012c1.099976,0 2.199951,0.200012 3.099976,0.600037c0.900024,0.399963 1.699951,0.899963 2.300049,1.5s1.099976,1.399963 1.5,2.399963c0.299927,0.900024 0.5,1.900024 0.5,3l0,11.800049l-2.800049,0l0,-0.400024zm-6.400024,-3.399963c0.699951,0 1.400024,-0.099976 1.900024,-0.400024c0.5,-0.299988 1.099976,-0.699951 1.699951,-1.199951l0,-2.600037c-1.099976,0 -2.099976,0.099976 -2.799927,0.200012c-0.700073,0.099976 -1.300049,0.299988 -1.700073,0.5c-0.400024,0.200012 -0.699951,0.5 -0.900024,0.799988c-0.199951,0.299988 -0.199951,0.599976 -0.199951,0.900024c0,0.599976 0.199951,1.099976 0.5,1.399963c0.299927,0.200012 0.799927,0.400024 1.5,0.400024z" id="svg_244"/>
     <path class="st9" d="m1251.400024,884.599976l0,-27.200012l5.599976,0l0,10.400024c0.700073,-0.700012 1.5,-1.200012 2.400024,-1.700012c0.900024,-0.400024 1.900024,-0.599976 3.099976,-0.599976c1,0 1.900024,0.199951 2.700073,0.599976c0.799927,0.400024 1.599976,1 2.199951,1.900024c0.599976,0.799988 1.099976,1.799988 1.400024,3c0.299927,1.199951 0.5,2.5 0.5,4.099976c0,1.400024 -0.200073,2.700012 -0.599976,3.900024c-0.400024,1.199951 -0.900024,2.199951 -1.700073,3.099976c-0.699951,0.900024 -1.599976,1.599976 -2.5,2.099976c-1,0.5 -2.099976,0.700012 -3.299927,0.700012c-0.600098,0 -1.100098,-0.099976 -1.5,-0.200012c-0.400024,-0.099976 -0.800049,-0.299988 -1.200073,-0.5c-0.400024,-0.199951 -0.699951,-0.399963 -1,-0.699951c-0.299927,-0.300049 -0.599976,-0.600037 -0.900024,-0.900024l-0.199951,0.900024c-0.099976,0.399963 -0.199951,0.699951 -0.5,0.799988c-0.199951,0.099976 -0.5,0.200012 -0.900024,0.200012l-3.599976,0l0,0.099976zm9.199951,-14.899963c-0.400024,0 -0.800049,0 -1.099976,0.099976c-0.300049,0.100037 -0.599976,0.200012 -0.900024,0.300049c-0.300049,0.099976 -0.5,0.299988 -0.800049,0.599976c-0.199951,0.200012 -0.5,0.5 -0.699951,0.799988l0,8c0.400024,0.5 0.900024,0.799988 1.400024,1c0.5,0.200012 1,0.299988 1.599976,0.299988c0.5,0 1,-0.099976 1.400024,-0.299988c0.400024,-0.200012 0.799927,-0.5 1.099976,-1c0.300049,-0.5 0.599976,-1 0.800049,-1.799988c0.199951,-0.700012 0.299927,-1.599976 0.299927,-2.700012c0,-1 -0.099976,-1.799988 -0.199951,-2.5c-0.099976,-0.700012 -0.300049,-1.200012 -0.599976,-1.599976c-0.300049,-0.400024 -0.600098,-0.700012 -0.900024,-0.900024c-0.599976,-0.200012 -1,-0.299988 -1.400024,-0.299988z" id="svg_245"/>
    </g>
    <g id="svg_246">
     <path class="st9" d="m1113.300049,884.400024l0,-18.599976l3.400024,0c0.299927,0 0.599976,0.099976 0.900024,0.199951c0.199951,0.200012 0.399902,0.400024 0.5,0.700012l0.299927,1c0.300049,-0.299988 0.599976,-0.599976 1,-0.899963c0.300049,-0.300049 0.700073,-0.5 1.099976,-0.700012c0.400024,-0.200012 0.800049,-0.400024 1.300049,-0.5c0.400024,-0.100037 0.900024,-0.200012 1.5,-0.200012c1.099976,0 2.099976,0.299988 2.800049,0.900024c0.699951,0.599976 1.299927,1.399963 1.699951,2.299988c0.300049,-0.600037 0.699951,-1.100037 1.099976,-1.5c0.400024,-0.400024 0.900024,-0.700012 1.400024,-1c0.5,-0.299988 1.099976,-0.400024 1.599976,-0.600037c0.599976,-0.099976 1.200073,-0.199951 1.700073,-0.199951c1.099976,0 2,0.199951 2.799927,0.5c0.800049,0.299988 1.5,0.799988 2.099976,1.399963c0.600098,0.600037 1,1.299988 1.300049,2.200012c0.300049,0.900024 0.400024,1.900024 0.400024,3l0,11.799988l-5.5,0l0,-11.799988c0,-1.900024 -0.800049,-2.900024 -2.5,-2.900024c-0.800049,0 -1.400024,0.200012 -1.900024,0.700012c-0.5,0.5 -0.699951,1.200012 -0.699951,2.100037l0,11.799988l-5.5,0l0,-11.799988c0,-1.100037 -0.200073,-1.800049 -0.600098,-2.200012c-0.399902,-0.400024 -1,-0.600037 -1.799927,-0.600037c-0.5,0 -1,0.100037 -1.400024,0.300049c-0.400024,0.199951 -0.900024,0.5 -1.300049,0.899963l0,13.400024l-5.699951,0l0,0.299988z" id="svg_247"/>
     <path class="st9" d="m1149.300049,865.799988l0,11.799988c0,0.900024 0.199951,1.600037 0.599976,2.100037c0.400024,0.5 1,0.799988 1.800049,0.799988c0.599976,0 1.199951,-0.100037 1.699951,-0.400024s1,-0.599976 1.5,-1.099976l0,-13.200012l5.5,0l0,18.599976l-3.400024,0c-0.699951,0 -1.099976,-0.299988 -1.399902,-0.899963l-0.300049,-1.100037c-0.400024,0.300049 -0.699951,0.700012 -1.099976,0.900024c-0.400024,0.299988 -0.800049,0.5 -1.200073,0.700012c-0.399902,0.200012 -0.899902,0.399963 -1.399902,0.5c-0.5,0.099976 -1,0.200012 -1.600098,0.200012c-1,0 -1.899902,-0.200012 -2.699951,-0.5c-0.800049,-0.400024 -1.400024,-0.800049 -2,-1.5c-0.5,-0.600037 -0.900024,-1.400024 -1.199951,-2.200012c-0.300049,-0.900024 -0.400024,-1.799988 -0.400024,-2.799988l0,-11.800049l5.599976,0l0,-0.099976z" id="svg_248"/>
     <path class="st9" d="m1176.199951,869.900024c-0.099976,0.200012 -0.300049,0.400024 -0.5,0.5c-0.199951,0.099976 -0.400024,0.099976 -0.599976,0.099976c-0.300049,0 -0.5,-0.099976 -0.800049,-0.199951c-0.299927,-0.100037 -0.5,-0.200012 -0.799927,-0.400024c-0.300049,-0.099976 -0.600098,-0.299988 -1,-0.400024c-0.400024,-0.099976 -0.800049,-0.199951 -1.300049,-0.199951c-0.699951,0 -1.199951,0.099976 -1.599976,0.399963c-0.400024,0.299988 -0.599976,0.600037 -0.599976,1.100037c0,0.299988 0.099976,0.599976 0.399902,0.899963c0.200073,0.200012 0.600098,0.400024 1,0.600037c0.400024,0.199951 0.900024,0.299988 1.400024,0.5c0.5,0.199951 1,0.299988 1.599976,0.5c0.5,0.199951 1.100098,0.399963 1.600098,0.699951c0.5,0.300049 1,0.600037 1.399902,0.900024c0.400024,0.400024 0.700073,0.799988 1,1.400024c0.200073,0.5 0.400024,1.199951 0.400024,1.899963c0,0.900024 -0.199951,1.799988 -0.5,2.5c-0.299927,0.799988 -0.799927,1.400024 -1.5,2c-0.699951,0.600037 -1.5,1 -2.400024,1.299988c-1,0.300049 -2.099976,0.5 -3.399902,0.5c-0.600098,0 -1.300049,-0.099976 -1.900024,-0.199951c-0.599976,-0.100037 -1.200073,-0.300049 -1.800049,-0.5c-0.599976,-0.200012 -1.099976,-0.400024 -1.599976,-0.700012c-0.5,-0.299988 -0.900024,-0.600037 -1.300049,-0.900024l1.300049,-2c0.199951,-0.200012 0.300049,-0.399963 0.599976,-0.599976c0.200073,-0.100037 0.5,-0.200012 0.800049,-0.200012c0.299927,0 0.599976,0.099976 0.900024,0.200012c0.299927,0.099976 0.5,0.299988 0.799927,0.5c0.300049,0.200012 0.599976,0.299988 1,0.5c0.400024,0.099976 0.900024,0.200012 1.5,0.200012c0.400024,0 0.800049,0 1.099976,-0.100037c0.300049,-0.099976 0.5,-0.200012 0.700073,-0.399963c0.199951,-0.200012 0.299927,-0.300049 0.400024,-0.5c0.099976,-0.200012 0.099976,-0.400024 0.099976,-0.600037c0,-0.399963 -0.099976,-0.700012 -0.400024,-0.899963c-0.199951,-0.200012 -0.599976,-0.400024 -1,-0.600037c-0.400024,-0.200012 -0.900024,-0.299988 -1.400024,-0.5c-0.5,-0.099976 -1,-0.299988 -1.599976,-0.5c-0.5,-0.200012 -1.099976,-0.399963 -1.599976,-0.700012c-0.5,-0.299988 -1,-0.599976 -1.400024,-1c-0.400024,-0.399963 -0.699951,-0.899963 -1,-1.5c-0.199951,-0.599976 -0.400024,-1.299988 -0.400024,-2.199951c0,-0.800049 0.200073,-1.5 0.5,-2.200012c0.300049,-0.700012 0.800049,-1.299988 1.400024,-1.900024c0.599976,-0.5 1.400024,-1 2.300049,-1.299988c0.899902,-0.299988 2,-0.5 3.199951,-0.5c0.699951,0 1.300049,0.099976 1.900024,0.200012c0.599976,0.099976 1.199951,0.299988 1.799927,0.5c0.5,0.200012 1,0.5 1.5,0.799988c0.5,0.299988 0.900024,0.599976 1.200073,1l-1.400024,2z" id="svg_249"/>
     <path class="st9" d="m1188.5,865.599976c1.199951,0 2.400024,0.200012 3.400024,0.599976c1,0.400024 1.900024,0.900024 2.599976,1.700012c0.699951,0.700012 1.300049,1.600037 1.699951,2.700012c0.400024,1.099976 0.600098,2.299988 0.600098,3.599976c0,0.400024 0,0.800049 -0.100098,1c0,0.300049 -0.099976,0.5 -0.199951,0.600037c-0.099976,0.200012 -0.199951,0.299988 -0.400024,0.299988c-0.199951,0.099976 -0.400024,0.099976 -0.599976,0.099976l-10.699951,0c0.199951,1.600037 0.699951,2.700012 1.399902,3.400024c0.800049,0.700012 1.700073,1 3,1c0.600098,0 1.200073,-0.099976 1.700073,-0.200012c0.5,-0.200012 0.900024,-0.299988 1.199951,-0.5c0.400024,-0.200012 0.700073,-0.399963 1,-0.5c0.300049,-0.200012 0.599976,-0.200012 1,-0.200012c0.400024,0 0.800049,0.200012 1,0.5l1.599976,2c-0.599976,0.700012 -1.199951,1.200012 -1.899902,1.600037c-0.700073,0.399963 -1.300049,0.700012 -2,1c-0.700073,0.200012 -1.400024,0.399963 -2.100098,0.5c-0.699951,0.099976 -1.399902,0.099976 -2,0.099976c-1.299927,0 -2.5,-0.200012 -3.699951,-0.599976c-1.099976,-0.400024 -2.099976,-1.100037 -3,-1.900024c-0.900024,-0.799988 -1.5,-1.899963 -2,-3.099976c-0.5,-1.200012 -0.699951,-2.700012 -0.699951,-4.299988c0,-1.200012 0.199951,-2.400024 0.599976,-3.5c0.400024,-1.100037 1,-2.100037 1.799927,-2.900024c0.800049,-0.799988 1.800049,-1.5 2.900024,-2c1.200073,-0.799988 2.5,-1 3.900024,-1zm0.099976,3.800049c-1.099976,0 -1.900024,0.299988 -2.5,0.900024c-0.599976,0.599976 -1,1.5 -1.199951,2.599976l6.899902,0c0,-0.400024 -0.099976,-0.900024 -0.199951,-1.299988c-0.099976,-0.400024 -0.300049,-0.799988 -0.599976,-1.100037c-0.300049,-0.299988 -0.599976,-0.599976 -1,-0.799988c-0.300049,-0.200012 -0.800049,-0.299988 -1.400024,-0.299988z" id="svg_250"/>
     <path class="st9" d="m1213.099976,884.400024c-0.300049,0 -0.599976,-0.099976 -0.900024,-0.200012c-0.199951,-0.200012 -0.400024,-0.399963 -0.5,-0.700012l-0.400024,-1.399963c-0.399902,0.399963 -0.799927,0.799988 -1.199951,1.099976c-0.400024,0.299988 -0.800049,0.600037 -1.300049,0.799988c-0.5,0.200012 -1,0.400024 -1.5,0.5c-0.5,0.100037 -1.099976,0.200012 -1.799927,0.200012c-1,0 -1.900024,-0.200012 -2.700073,-0.599976c-0.799927,-0.400024 -1.5,-1 -2.099976,-1.900024c-0.599976,-0.799988 -1.099976,-1.799988 -1.400024,-3c-0.299927,-1.200012 -0.5,-2.5 -0.5,-4c0,-1.399963 0.200073,-2.700012 0.600098,-3.899963c0.399902,-1.200012 0.899902,-2.200012 1.599976,-3.100037c0.699951,-0.899963 1.5,-1.5 2.5,-2c1,-0.5 2.099976,-0.700012 3.199951,-0.700012c1,0 1.800049,0.100037 2.400024,0.400024c0.699951,0.299988 1.300049,0.599976 1.800049,1.099976l0,-9.399963l5.5,0l0,26.799988l-3.300049,0zm-5.699951,-4c0.400024,0 0.800049,0 1.099976,-0.099976c0.300049,-0.100037 0.599976,-0.200012 0.900024,-0.300049c0.300049,-0.099976 0.5,-0.299988 0.800049,-0.5c0.199951,-0.199951 0.5,-0.5 0.699951,-0.799988l0,-7.899963c-0.400024,-0.5 -0.900024,-0.800049 -1.400024,-1c-0.5,-0.200012 -1,-0.300049 -1.5,-0.300049c-0.5,0 -1,0.100037 -1.400024,0.300049c-0.399902,0.199951 -0.799927,0.5 -1.099976,1c-0.299927,0.399963 -0.599976,1 -0.699951,1.699951c-0.200073,0.700012 -0.300049,1.600037 -0.300049,2.600037c0,1 0.099976,1.799988 0.200073,2.5c0.099976,0.700012 0.299927,1.200012 0.599976,1.599976c0.299927,0.400024 0.599976,0.700012 0.900024,0.900024c0.399902,0.199951 0.799927,0.299988 1.199951,0.299988z" id="svg_251"/>
    </g>
    <g id="svg_252">
     <path class="st9" d="m1114.099976,888.599976c0,0 0.099976,0 0.099976,0c0,0 0.099976,0 0.099976,0.099976c0,0 0.100098,0.100037 0.100098,0.100037l4.599976,5.799988c0,-0.099976 0,-0.299988 0,-0.400024c0,-0.099976 0,-0.299988 0,-0.399963l0,-5.299988l1.400024,0l0,8.699951l-0.800049,0c-0.099976,0 -0.199951,0 -0.300049,-0.099976c-0.099976,0 -0.199951,-0.099976 -0.199951,-0.200012l-4.5,-5.799988c0,0.099976 0,0.299988 0,0.400024c0,0.099976 0,0.199951 0,0.299988l0,5.299988l-1.400024,0l0,-8.700012l0.800049,0c0,0.200012 0.099976,0.200012 0.099976,0.200012z" id="svg_253"/>
     <path class="st9" d="m1126,893.900024l0,3.400024l-1.599976,0l0,-3.400024l-3.200073,-5.299988l1.400024,0c0.099976,0 0.300049,0 0.300049,0.099976c0.099976,0.100037 0.199951,0.200012 0.199951,0.299988l1.599976,2.900024c0.100098,0.200012 0.200073,0.299988 0.200073,0.5c0.099976,0.200012 0.099976,0.299988 0.199951,0.5c0.099976,-0.200012 0.099976,-0.299988 0.200073,-0.5c0.099976,-0.200012 0.099976,-0.299988 0.199951,-0.5l1.599976,-2.900024c0,-0.099976 0.099976,-0.199951 0.200073,-0.199951c0.099976,-0.100037 0.199951,-0.100037 0.299927,-0.100037l1.400024,0l-3,5.200012z" id="svg_254"/>
     <path class="st9" d="m1133.5,896c0.300049,0 0.599976,-0.099976 0.800049,-0.200012c0.199951,-0.099976 0.5,-0.200012 0.599976,-0.399963c0.199951,-0.200012 0.299927,-0.400024 0.400024,-0.700012c0.099976,-0.299988 0.099976,-0.600037 0.099976,-0.900024l0,-5.200012l1.599976,0l0,5.200012c0,0.5 -0.099976,1 -0.199951,1.400024c-0.200073,0.399963 -0.400024,0.799988 -0.700073,1.099976c-0.299927,0.299988 -0.699951,0.600037 -1.099976,0.700012s-0.900024,0.299988 -1.5,0.299988c-0.599976,0 -1.099976,-0.099976 -1.5,-0.299988c-0.400024,-0.200012 -0.800049,-0.400024 -1.099976,-0.700012c-0.300049,-0.299988 -0.5,-0.700012 -0.700073,-1.099976c-0.199951,-0.400024 -0.199951,-0.900024 -0.199951,-1.400024l0,-5.200012l1.599976,0l0,5.200012c0,0.299988 0,0.600037 0.099976,0.900024c0.100098,0.299988 0.200073,0.5 0.400024,0.700012c0.200073,0.199951 0.400024,0.299988 0.599976,0.399963c0.200073,0.100037 0.5,0.200012 0.800049,0.200012z" id="svg_255"/>
     <path class="st9" d="m1141,897.299988l0,-6.200012l0.900024,0c0.199951,0 0.299927,0.100037 0.400024,0.299988l0.099976,0.5c0.099976,-0.099976 0.199951,-0.199951 0.299927,-0.299988c0.100098,-0.099976 0.200073,-0.200012 0.400024,-0.299988c0.099976,-0.099976 0.300049,-0.099976 0.400024,-0.200012c0.199951,0 0.300049,-0.099976 0.5,-0.099976c0.400024,0 0.699951,0.099976 1,0.299988c0.199951,0.200012 0.400024,0.5 0.599976,0.799988c0.099976,-0.200012 0.200073,-0.399963 0.400024,-0.5c0.099976,-0.099976 0.300049,-0.299988 0.5,-0.399963c0.199951,-0.100037 0.400024,-0.200012 0.5,-0.200012c0.199951,0 0.400024,-0.100037 0.599976,-0.100037c0.300049,0 0.599976,0.100037 0.900024,0.200012c0.300049,0.100037 0.5,0.299988 0.699951,0.5c0.200073,0.200012 0.300049,0.400024 0.400024,0.700012c0.099976,0.299988 0.099976,0.599976 0.099976,1l0,3.900024l-1.5,0l0,-3.900024c0,-0.400024 -0.099976,-0.700012 -0.299927,-0.900024c-0.200073,-0.199951 -0.400024,-0.299988 -0.800049,-0.299988c-0.199951,0 -0.299927,0 -0.400024,0.100037c-0.099976,0.099976 -0.199951,0.099976 -0.299927,0.199951c-0.099976,0.100037 -0.200073,0.200012 -0.200073,0.400024c-0.099976,0.099976 -0.099976,0.299988 -0.099976,0.5l0,3.900024l-1.5,0l0,-3.900024c0,-0.400024 -0.099976,-0.700012 -0.199951,-0.900024c-0.200073,-0.199951 -0.400024,-0.299988 -0.700073,-0.299988c-0.199951,0 -0.399902,0.100037 -0.599976,0.200012c-0.199951,0.099976 -0.400024,0.299988 -0.5,0.400024l0,4.5l-1.599976,0l0,0.099976z" id="svg_256"/>
     <path class="st9" d="m1152.5,891.099976l0,3.900024c0,0.399963 0.099976,0.699951 0.300049,0.899963c0.199951,0.200012 0.399902,0.299988 0.799927,0.299988c0.300049,0 0.5,-0.099976 0.700073,-0.199951c0.199951,-0.100037 0.399902,-0.300049 0.599976,-0.5l0,-4.400024l1.5,0l0,6.200012l-0.900024,0c-0.199951,0 -0.300049,-0.100037 -0.400024,-0.299988l-0.099976,-0.5c-0.099976,0.099976 -0.300049,0.199951 -0.400024,0.399963c-0.099976,0.100037 -0.299927,0.200012 -0.400024,0.299988c-0.199951,0.100037 -0.299927,0.100037 -0.5,0.200012c-0.199951,0 -0.399902,0.100037 -0.599976,0.100037c-0.299927,0 -0.599976,-0.100037 -0.900024,-0.200012c-0.299927,-0.100037 -0.5,-0.299988 -0.699951,-0.5c-0.199951,-0.200012 -0.300049,-0.5 -0.400024,-0.700012c-0.099976,-0.299988 -0.099976,-0.599976 -0.099976,-0.900024l0,-3.899963l1.5,0l0,-0.200012z" id="svg_257"/>
     <path class="st9" d="m1161.599976,892.299988c0,0.099976 -0.099976,0.099976 -0.099976,0.099976c0,0 -0.099976,0 -0.200073,0c-0.099976,0 -0.099976,0 -0.199951,-0.099976c-0.099976,0 -0.199951,-0.099976 -0.300049,-0.099976c-0.099976,0 -0.199951,-0.100037 -0.399902,-0.100037c-0.100098,0 -0.300049,-0.099976 -0.5,-0.099976c-0.300049,0 -0.5,0.099976 -0.700073,0.200012c-0.199951,0.099976 -0.299927,0.299988 -0.299927,0.5c0,0.099976 0,0.199951 0.099976,0.299988c0.099976,0.099976 0.199951,0.200012 0.299927,0.200012c0.100098,0.099976 0.300049,0.099976 0.5,0.199951c0.200073,0.100037 0.400024,0.100037 0.600098,0.200012c0.199951,0.100037 0.399902,0.100037 0.599976,0.200012c0.199951,0.099976 0.299927,0.200012 0.5,0.299988c0.099976,0.100037 0.299927,0.299988 0.299927,0.5c0.100098,0.200012 0.100098,0.400024 0.100098,0.600037c0,0.299988 -0.100098,0.599976 -0.200073,0.799988c-0.099976,0.200012 -0.299927,0.5 -0.5,0.599976c-0.199951,0.200012 -0.5,0.299988 -0.799927,0.400024c-0.300049,0.099976 -0.700073,0.200012 -1.100098,0.200012c-0.199951,0 -0.399902,0 -0.599976,-0.100037c-0.199951,0 -0.400024,-0.099976 -0.599976,-0.200012c-0.199951,-0.099976 -0.400024,-0.099976 -0.5,-0.199951c-0.199951,-0.100037 -0.300049,-0.200012 -0.400024,-0.300049l0.300049,-0.599976c0,-0.099976 0.099976,-0.099976 0.199951,-0.200012c0.099976,0 0.099976,-0.099976 0.200073,-0.099976c0.099976,0 0.199951,0 0.299927,0.099976c0.099976,0.100037 0.200073,0.100037 0.300049,0.200012c0.099976,0.099976 0.199951,0.099976 0.400024,0.200012c0.099976,0.099976 0.299927,0.099976 0.599976,0.099976c0.199951,0 0.299927,0 0.5,-0.099976c0.099976,0 0.199951,-0.100037 0.299927,-0.200012c0.100098,-0.099976 0.100098,-0.099976 0.200073,-0.200012c0,-0.099976 0.099976,-0.200012 0.099976,-0.299988c0,-0.099976 0,-0.299988 -0.099976,-0.400024c-0.099976,-0.099976 -0.200073,-0.199951 -0.300049,-0.199951c-0.099976,-0.100037 -0.299927,-0.100037 -0.5,-0.200012c-0.199951,-0.100037 -0.400024,-0.100037 -0.599976,-0.200012c-0.199951,-0.099976 -0.400024,-0.099976 -0.599976,-0.200012c-0.200073,-0.099976 -0.300049,-0.200012 -0.5,-0.299988c-0.099976,-0.099976 -0.300049,-0.299988 -0.300049,-0.5c-0.099976,-0.200012 -0.099976,-0.400024 -0.099976,-0.700012c0,-0.299988 0,-0.5 0.199951,-0.700012c0.100098,-0.199951 0.200073,-0.399963 0.400024,-0.599976c0.200073,-0.200012 0.400024,-0.299988 0.700073,-0.400024c0.299927,-0.099976 0.599976,-0.199951 1,-0.199951c0.399902,0 0.799927,0.099976 1.199951,0.199951c0.300049,0.100037 0.599976,0.300049 0.900024,0.600037l-0.400024,0.799988z" id="svg_258"/>
     <path class="st9" d="m1165,889.299988c0,0.099976 0,0.200012 -0.099976,0.400024c-0.099976,0.099976 -0.099976,0.199951 -0.200073,0.299988c-0.099976,0.099976 -0.199951,0.200012 -0.299927,0.200012c-0.099976,0.099976 -0.200073,0.099976 -0.400024,0.099976c-0.099976,0 -0.199951,0 -0.400024,-0.099976c-0.099976,0 -0.199951,-0.100037 -0.299927,-0.200012c-0.100098,-0.100037 -0.200073,-0.200012 -0.200073,-0.299988c0,-0.100037 -0.099976,-0.200012 -0.099976,-0.400024c0,-0.099976 0,-0.299988 0.099976,-0.400024c0,-0.099976 0.099976,-0.199951 0.200073,-0.299988c0.099976,-0.099976 0.199951,-0.200012 0.299927,-0.200012c0.099976,0 0.200073,-0.099976 0.400024,-0.099976c0.099976,0 0.300049,0 0.400024,0.099976c0.099976,0.100037 0.199951,0.100037 0.299927,0.200012c0.100098,0.100037 0.200073,0.200012 0.200073,0.299988c0,0.200012 0.099976,0.300049 0.099976,0.400024zm-0.300049,1.799988l0,6.200012l-1.5,0l0,-6.200012l1.5,0z" id="svg_259"/>
     <path class="st9" d="m1170.699951,892.400024c0,0.099976 -0.099976,0.099976 -0.099976,0.099976c0,0 -0.099976,0 -0.200073,0c-0.099976,0 -0.099976,0 -0.199951,-0.099976c-0.099976,0 -0.199951,-0.099976 -0.300049,-0.200012c-0.099976,-0.099976 -0.199951,-0.099976 -0.399902,-0.200012c-0.100098,0 -0.300049,-0.099976 -0.5,-0.099976c-0.300049,0 -0.5,0 -0.700073,0.099976c-0.199951,0.100037 -0.400024,0.200012 -0.5,0.400024c-0.099976,0.200012 -0.199951,0.400024 -0.299927,0.599976c-0.100098,0.300049 -0.100098,0.5 -0.100098,0.800049c0,0.299988 0,0.599976 0.100098,0.899963c0.099976,0.299988 0.199951,0.5 0.299927,0.600037c0.099976,0.199951 0.300049,0.299988 0.5,0.399963c0.200073,0.100037 0.400024,0.100037 0.599976,0.100037c0.200073,0 0.400024,0 0.600098,-0.100037c0.099976,-0.099976 0.299927,-0.099976 0.399902,-0.200012c0.100098,-0.099976 0.200073,-0.099976 0.300049,-0.199951c0.099976,-0.100037 0.199951,-0.100037 0.199951,-0.100037c0.100098,0 0.200073,0 0.300049,0.100037l0.400024,0.5c-0.200073,0.199951 -0.300049,0.399963 -0.5,0.5c-0.200073,0.099976 -0.400024,0.199951 -0.599976,0.299988c-0.200073,0.099976 -0.400024,0.099976 -0.600098,0.200012c-0.199951,0 -0.399902,0 -0.699951,0c-0.400024,0 -0.699951,-0.100037 -1.099976,-0.200012c-0.300049,-0.100037 -0.599976,-0.299988 -0.900024,-0.600037s-0.400024,-0.599976 -0.599976,-1c-0.099976,-0.399963 -0.200073,-0.799988 -0.200073,-1.299988c0,-0.5 0.100098,-0.899963 0.200073,-1.299988c0.099976,-0.400024 0.299927,-0.700012 0.599976,-1c0.300049,-0.299988 0.599976,-0.5 0.900024,-0.700012c0.400024,-0.200012 0.799927,-0.200012 1.299927,-0.200012c0.5,0 0.900024,0.100037 1.200073,0.200012c0.299927,0.100037 0.699951,0.400024 0.900024,0.600037l-0.300049,1.099976z" id="svg_260"/>
     <path class="st9" d="m1177,891c0.400024,0 0.699951,0.099976 1.099976,0.200012c0.300049,0.099976 0.599976,0.299988 0.800049,0.5c0.199951,0.200012 0.400024,0.5 0.599976,0.899963c0.099976,0.300049 0.199951,0.700012 0.199951,1.200012c0,0.100037 0,0.200012 0,0.299988c0,0.100037 0,0.100037 -0.099976,0.200012c0,0 -0.099976,0.100037 -0.099976,0.100037c0,0 -0.099976,0 -0.199951,0l-3.800049,0c0,0.599976 0.199951,1.099976 0.5,1.399963c0.300049,0.299988 0.699951,0.400024 1.199951,0.400024c0.200073,0 0.400024,0 0.600098,-0.100037c0.199951,-0.099976 0.299927,-0.099976 0.5,-0.199951c0.099976,-0.100037 0.199951,-0.100037 0.299927,-0.200012c0.099976,-0.100037 0.200073,-0.100037 0.300049,-0.100037c0.099976,0 0.099976,0 0.199951,0c0,0 0.099976,0.100037 0.099976,0.100037l0.400024,0.5c-0.199951,0.200012 -0.299927,0.399963 -0.599976,0.5c-0.199951,0.099976 -0.400024,0.200012 -0.599976,0.299988c-0.200073,0.099976 -0.400024,0.099976 -0.700073,0.200012c-0.199951,0 -0.5,0 -0.699951,0c-0.400024,0 -0.800049,-0.100037 -1.199951,-0.200012c-0.400024,-0.099976 -0.700073,-0.400024 -1,-0.599976c-0.300049,-0.300049 -0.5,-0.600037 -0.600098,-1c-0.199951,-0.400024 -0.199951,-0.900024 -0.199951,-1.400024c0,-0.400024 0.099976,-0.799988 0.199951,-1.200012c0.100098,-0.399963 0.300049,-0.700012 0.600098,-1c0.299927,-0.299988 0.599976,-0.5 0.899902,-0.700012c0.400024,0 0.800049,-0.099976 1.300049,-0.099976zm0,1.099976c-0.400024,0 -0.800049,0.099976 -1,0.400024c-0.199951,0.199951 -0.400024,0.599976 -0.5,1l2.800049,0c0,-0.200012 0,-0.400024 -0.100098,-0.5c-0.099976,-0.200012 -0.099976,-0.300049 -0.199951,-0.400024c-0.099976,-0.099976 -0.199951,-0.200012 -0.400024,-0.299988c-0.199951,-0.200012 -0.400024,-0.200012 -0.599976,-0.200012z" id="svg_261"/>
     <path class="st9" d="m1182,894.099976l-2,-3l1.400024,0c0.099976,0 0.199951,0 0.199951,0c0.099976,0 0.099976,0.099976 0.099976,0.099976l1.300049,2.100037c0,-0.100037 0,-0.100037 0.099976,-0.200012c0,-0.099976 0.099976,-0.099976 0.099976,-0.200012l1,-1.599976c0,-0.100037 0.100098,-0.100037 0.100098,-0.200012c0.099976,0 0.099976,-0.099976 0.199951,-0.099976l1.400024,0l-2,2.899963l2.099976,3.200012l-1.400024,0c-0.099976,0 -0.199951,0 -0.299927,-0.099976c-0.100098,-0.100037 -0.100098,-0.100037 -0.200073,-0.200012l-1.299927,-2.100037c0,0.100037 -0.100098,0.300049 -0.100098,0.400024l-1.199951,1.799988c0,0.100037 -0.099976,0.100037 -0.199951,0.200012c-0.100098,0.099976 -0.100098,0.099976 -0.200073,0.099976l-1.299927,0l2.199951,-3.099976z" id="svg_262"/>
     <path class="st9" d="m1187,899.299988l0,-8.200012l0.900024,0c0.099976,0 0.199951,0 0.199951,0.100037c0.099976,0 0.099976,0.099976 0.099976,0.199951l0.100098,0.600037c0.199951,-0.299988 0.5,-0.5 0.899902,-0.700012c0.300049,-0.200012 0.700073,-0.299988 1.100098,-0.299988c0.299927,0 0.599976,0.099976 0.899902,0.200012c0.300049,0.099976 0.5,0.299988 0.700073,0.599976c0.199951,0.299988 0.400024,0.599976 0.5,1c0.099976,0.400024 0.199951,0.799988 0.199951,1.299988c0,0.5 -0.099976,0.900024 -0.199951,1.299988c-0.099976,0.400024 -0.300049,0.700012 -0.5,1c-0.200073,0.300049 -0.5,0.5 -0.800049,0.700012c-0.299927,0.200012 -0.699951,0.200012 -1.099976,0.200012c-0.300049,0 -0.599976,-0.099976 -0.900024,-0.200012c-0.199951,-0.099976 -0.5,-0.299988 -0.699951,-0.399963l0,2.5l-1.400024,0l0,0.099976zm2.900024,-7.099976c-0.300049,0 -0.599976,0.099976 -0.800049,0.200012c-0.199951,0.099976 -0.399902,0.299988 -0.599976,0.5l0,2.799988c0.200073,0.200012 0.400024,0.400024 0.5,0.400024c0.200073,0.099976 0.400024,0.099976 0.599976,0.099976c0.200073,0 0.400024,0 0.600098,-0.099976c0.199951,-0.100037 0.299927,-0.200012 0.5,-0.400024c0.099976,-0.200012 0.199951,-0.400024 0.299927,-0.700012c0.099976,-0.299988 0.099976,-0.599976 0.099976,-0.899963c0,-0.400024 0,-0.700012 -0.099976,-0.900024c-0.099976,-0.200012 -0.099976,-0.5 -0.199951,-0.599976c-0.099976,-0.200012 -0.200073,-0.300049 -0.400024,-0.300049c-0.200073,-0.099976 -0.400024,-0.099976 -0.5,-0.099976z" id="svg_263"/>
     <path class="st9" d="m1196.300049,891c0.400024,0 0.699951,0.099976 1.099976,0.200012c0.300049,0.099976 0.599976,0.299988 0.800049,0.5c0.199951,0.200012 0.400024,0.5 0.599976,0.899963c0.099976,0.300049 0.199951,0.700012 0.199951,1.200012c0,0.100037 0,0.200012 0,0.299988c0,0.100037 0,0.100037 -0.099976,0.200012c0,0 -0.099976,0.100037 -0.099976,0.100037c0,0 -0.099976,0 -0.199951,0l-3.800049,0c0,0.599976 0.199951,1.099976 0.5,1.399963c0.300049,0.299988 0.699951,0.400024 1.199951,0.400024c0.200073,0 0.400024,0 0.600098,-0.100037c0.199951,-0.099976 0.299927,-0.099976 0.5,-0.199951c0.099976,-0.100037 0.199951,-0.100037 0.299927,-0.200012c0.099976,-0.100037 0.200073,-0.100037 0.300049,-0.100037c0.099976,0 0.099976,0 0.199951,0c0,0 0.099976,0.100037 0.099976,0.100037l0.400024,0.5c-0.199951,0.200012 -0.299927,0.399963 -0.599976,0.5c-0.199951,0.099976 -0.400024,0.200012 -0.599976,0.299988c-0.200073,0.099976 -0.400024,0.099976 -0.700073,0.200012c-0.199951,0 -0.5,0 -0.699951,0c-0.400024,0 -0.800049,-0.100037 -1.199951,-0.200012c-0.400024,-0.099976 -0.700073,-0.400024 -1,-0.599976c-0.300049,-0.300049 -0.5,-0.600037 -0.600098,-1c-0.199951,-0.400024 -0.199951,-0.900024 -0.199951,-1.400024c0,-0.400024 0.099976,-0.799988 0.199951,-1.200012c0.100098,-0.399963 0.300049,-0.700012 0.600098,-1c0.299927,-0.299988 0.599976,-0.5 0.899902,-0.700012c0.400024,0 0.800049,-0.099976 1.300049,-0.099976zm0,1.099976c-0.400024,0 -0.800049,0.099976 -1,0.400024c-0.199951,0.199951 -0.400024,0.599976 -0.5,1l2.800049,0c0,-0.200012 0,-0.400024 -0.100098,-0.5c-0.099976,-0.200012 -0.099976,-0.300049 -0.199951,-0.400024c-0.099976,-0.099976 -0.199951,-0.200012 -0.400024,-0.299988c-0.200073,-0.200012 -0.400024,-0.200012 -0.599976,-0.200012z" id="svg_264"/>
     <path class="st9" d="m1200.199951,897.299988l0,-6.200012l0.900024,0c0.199951,0 0.299927,0 0.299927,0.100037c0.100098,0.099976 0.100098,0.199951 0.100098,0.299988l0.099976,0.700012c0.199951,-0.400024 0.5,-0.700012 0.799927,-0.900024c0.300049,-0.200012 0.600098,-0.299988 1,-0.299988c0.300049,0 0.600098,0.099976 0.800049,0.200012l-0.199951,1.099976c0,0.099976 0,0.099976 -0.100098,0.200012c0,0 -0.099976,0 -0.199951,0c-0.099976,0 -0.099976,0 -0.199951,0c-0.100098,0 -0.200073,0 -0.400024,0c-0.300049,0 -0.599976,0.099976 -0.800049,0.299988c-0.199951,0.200012 -0.400024,0.400024 -0.599976,0.700012l0,3.799988l-1.5,0z" id="svg_265"/>
     <path class="st9" d="m1206.900024,889.299988c0,0.099976 0,0.200012 -0.099976,0.400024c-0.099976,0.099976 -0.099976,0.199951 -0.200073,0.299988c-0.099976,0.099976 -0.199951,0.200012 -0.299927,0.200012c-0.099976,0.099976 -0.200073,0.099976 -0.400024,0.099976c-0.099976,0 -0.199951,0 -0.400024,-0.099976c-0.099976,0 -0.199951,-0.100037 -0.299927,-0.200012c-0.100098,-0.100037 -0.200073,-0.200012 -0.200073,-0.299988c0,-0.100037 -0.099976,-0.200012 -0.099976,-0.400024c0,-0.099976 0,-0.299988 0.099976,-0.400024c0.099976,-0.099976 0.099976,-0.199951 0.200073,-0.299988c0.099976,-0.099976 0.199951,-0.200012 0.299927,-0.200012c0.099976,0 0.200073,-0.099976 0.400024,-0.099976c0.099976,0 0.300049,0 0.400024,0.099976c0.099976,0.100037 0.199951,0.100037 0.299927,0.200012c0.100098,0.100037 0.200073,0.200012 0.200073,0.299988c0,0.200012 0.099976,0.300049 0.099976,0.400024zm-0.300049,1.799988l0,6.200012l-1.5,0l0,-6.200012l1.5,0z" id="svg_266"/>
     <path class="st9" d="m1210.900024,891c0.400024,0 0.699951,0.099976 1.099976,0.200012c0.300049,0.099976 0.599976,0.299988 0.800049,0.5c0.199951,0.200012 0.400024,0.5 0.599976,0.899963c0.099976,0.300049 0.199951,0.700012 0.199951,1.200012c0,0.100037 0,0.200012 0,0.299988c0,0.100037 0,0.100037 -0.099976,0.200012c0,0 -0.099976,0.100037 -0.099976,0.100037c0,0 -0.099976,0 -0.199951,0l-3.800049,0c0,0.599976 0.199951,1.099976 0.5,1.399963c0.300049,0.299988 0.699951,0.400024 1.199951,0.400024c0.200073,0 0.400024,0 0.600098,-0.100037c0.199951,-0.099976 0.299927,-0.099976 0.5,-0.199951c0.099976,-0.100037 0.199951,-0.100037 0.299927,-0.200012c0.099976,-0.100037 0.200073,-0.100037 0.300049,-0.100037c0.099976,0 0.099976,0 0.199951,0c0,0 0.099976,0.100037 0.099976,0.100037l0.400024,0.5c-0.199951,0.200012 -0.299927,0.399963 -0.599976,0.5c-0.199951,0.099976 -0.400024,0.200012 -0.599976,0.299988c-0.200073,0.099976 -0.400024,0.099976 -0.700073,0.200012c-0.199951,0 -0.5,0 -0.699951,0c-0.400024,0 -0.800049,-0.100037 -1.199951,-0.200012c-0.400024,-0.099976 -0.700073,-0.400024 -1,-0.599976c-0.300049,-0.300049 -0.5,-0.600037 -0.600098,-1c-0.199951,-0.400024 -0.199951,-0.900024 -0.199951,-1.400024c0,-0.400024 0.099976,-0.799988 0.199951,-1.200012c0.100098,-0.399963 0.300049,-0.700012 0.600098,-1c0.299927,-0.299988 0.599976,-0.5 0.899902,-0.700012c0.400024,0 0.800049,-0.099976 1.300049,-0.099976zm0,1.099976c-0.400024,0 -0.800049,0.099976 -1,0.400024c-0.199951,0.199951 -0.400024,0.599976 -0.5,1l2.800049,0c0,-0.200012 0,-0.400024 -0.100098,-0.5c-0.099976,-0.200012 -0.099976,-0.300049 -0.199951,-0.400024c-0.099976,-0.099976 -0.199951,-0.200012 -0.400024,-0.299988c-0.199951,-0.200012 -0.400024,-0.200012 -0.599976,-0.200012z" id="svg_267"/>
     <path class="st9" d="m1214.699951,897.299988l0,-6.200012l0.900024,0c0.199951,0 0.299927,0.100037 0.400024,0.299988l0.099976,0.5c0.099976,-0.099976 0.299927,-0.199951 0.400024,-0.299988c0.099976,-0.099976 0.299927,-0.200012 0.399902,-0.299988c0.200073,-0.099976 0.300049,-0.099976 0.5,-0.200012c0.200073,0 0.400024,-0.099976 0.600098,-0.099976c0.299927,0 0.599976,0.099976 0.899902,0.200012s0.5,0.299988 0.700073,0.5c0.199951,0.199951 0.299927,0.5 0.400024,0.699951c0.099976,0.300049 0.099976,0.600037 0.099976,0.900024l0,3.900024l-1.5,0l0,-3.900024c0,-0.400024 -0.099976,-0.700012 -0.300049,-0.900024c-0.199951,-0.199951 -0.400024,-0.299988 -0.799927,-0.299988c-0.300049,0 -0.5,0.100037 -0.700073,0.200012c-0.199951,0.099976 -0.400024,0.299988 -0.599976,0.5l0,4.400024l-1.5,0l0,0.099976z" id="svg_268"/>
     <path class="st9" d="m1225.900024,892.400024c0,0.099976 -0.099976,0.099976 -0.099976,0.099976c0,0 -0.099976,0 -0.200073,0c-0.099976,0 -0.099976,0 -0.199951,-0.099976c-0.099976,0 -0.199951,-0.099976 -0.300049,-0.200012c-0.099976,-0.099976 -0.199951,-0.099976 -0.399902,-0.200012c-0.100098,0 -0.300049,-0.099976 -0.5,-0.099976c-0.300049,0 -0.5,0 -0.700073,0.099976c-0.199951,0.100037 -0.400024,0.200012 -0.5,0.400024c-0.099976,0.200012 -0.199951,0.400024 -0.299927,0.599976c-0.100098,0.300049 -0.100098,0.5 -0.100098,0.800049c0,0.299988 0,0.599976 0.100098,0.899963c0.099976,0.299988 0.199951,0.5 0.299927,0.600037c0.099976,0.199951 0.300049,0.299988 0.5,0.399963c0.200073,0.100037 0.400024,0.100037 0.599976,0.100037c0.200073,0 0.400024,0 0.600098,-0.100037c0.099976,-0.099976 0.299927,-0.099976 0.399902,-0.200012c0.100098,-0.099976 0.200073,-0.099976 0.300049,-0.199951c0.099976,-0.100037 0.199951,-0.100037 0.199951,-0.100037c0.100098,0 0.200073,0 0.300049,0.100037l0.400024,0.5c-0.200073,0.199951 -0.300049,0.399963 -0.5,0.5c-0.200073,0.099976 -0.400024,0.199951 -0.599976,0.299988c-0.200073,0.099976 -0.400024,0.099976 -0.600098,0.200012c-0.199951,0 -0.399902,0 -0.699951,0c-0.400024,0 -0.699951,-0.100037 -1.099976,-0.200012c-0.300049,-0.100037 -0.599976,-0.299988 -0.900024,-0.600037s-0.400024,-0.599976 -0.599976,-1c-0.099976,-0.399963 -0.200073,-0.799988 -0.200073,-1.299988c0,-0.5 0.100098,-0.899963 0.200073,-1.299988c0.099976,-0.400024 0.299927,-0.700012 0.599976,-1c0.300049,-0.299988 0.599976,-0.5 0.900024,-0.700012c0.400024,-0.200012 0.799927,-0.200012 1.299927,-0.200012c0.5,0 0.900024,0.100037 1.200073,0.200012c0.299927,0.100037 0.699951,0.400024 0.900024,0.600037l-0.300049,1.099976z" id="svg_269"/>
     <path class="st9" d="m1229.800049,891c0.400024,0 0.699951,0.099976 1.099976,0.200012c0.300049,0.099976 0.599976,0.299988 0.800049,0.5c0.199951,0.200012 0.400024,0.5 0.599976,0.899963c0.099976,0.300049 0.199951,0.700012 0.199951,1.200012c0,0.100037 0,0.200012 0,0.299988c0,0.100037 0,0.100037 -0.099976,0.200012c0,0 -0.099976,0.100037 -0.099976,0.100037c0,0 -0.099976,0 -0.199951,0l-3.800049,0c0,0.599976 0.199951,1.099976 0.5,1.399963c0.300049,0.299988 0.699951,0.400024 1.199951,0.400024c0.200073,0 0.400024,0 0.600098,-0.100037c0.199951,-0.099976 0.299927,-0.099976 0.5,-0.199951c0.099976,-0.100037 0.199951,-0.100037 0.299927,-0.200012c0.099976,-0.100037 0.200073,-0.100037 0.300049,-0.100037c0.099976,0 0.099976,0 0.199951,0c0,0 0.099976,0.100037 0.099976,0.100037l0.400024,0.5c-0.199951,0.200012 -0.299927,0.399963 -0.599976,0.5c-0.199951,0.099976 -0.400024,0.200012 -0.599976,0.299988c-0.200073,0.099976 -0.400024,0.099976 -0.700073,0.200012c-0.199951,0 -0.5,0 -0.699951,0c-0.400024,0 -0.800049,-0.100037 -1.199951,-0.200012c-0.400024,-0.099976 -0.700073,-0.400024 -1,-0.599976c-0.300049,-0.300049 -0.5,-0.600037 -0.600098,-1c-0.199951,-0.400024 -0.199951,-0.900024 -0.199951,-1.400024c0,-0.400024 0.099976,-0.799988 0.199951,-1.200012c0.100098,-0.399963 0.300049,-0.700012 0.600098,-1c0.299927,-0.299988 0.599976,-0.5 0.899902,-0.700012c0.400024,0 0.800049,-0.099976 1.300049,-0.099976zm0,1.099976c-0.400024,0 -0.800049,0.099976 -1,0.400024c-0.199951,0.199951 -0.400024,0.599976 -0.5,1l2.800049,0c0,-0.200012 0,-0.400024 -0.100098,-0.5c-0.099976,-0.200012 -0.099976,-0.300049 -0.199951,-0.400024c-0.099976,-0.099976 -0.199951,-0.200012 -0.400024,-0.299988c-0.200073,-0.200012 -0.300049,-0.200012 -0.599976,-0.200012z" id="svg_270"/>
     <path class="st9" d="m1240.300049,897.299988c-0.199951,0 -0.300049,-0.099976 -0.400024,-0.299988l-0.099976,-0.600037c-0.099976,0.100037 -0.300049,0.300049 -0.400024,0.400024c-0.099976,0.099976 -0.299927,0.200012 -0.5,0.299988c-0.199951,0.100037 -0.299927,0.100037 -0.5,0.200012c-0.199951,0 -0.400024,0.099976 -0.599976,0.099976c-0.300049,0 -0.599976,-0.099976 -0.900024,-0.199951c-0.299927,-0.100037 -0.5,-0.300049 -0.699951,-0.600037c-0.200073,-0.299988 -0.400024,-0.599976 -0.5,-1c-0.099976,-0.399963 -0.200073,-0.799988 -0.200073,-1.299988c0,-0.5 0.100098,-0.900024 0.200073,-1.299988c0.099976,-0.400024 0.299927,-0.700012 0.5,-1c0.199951,-0.299988 0.5,-0.5 0.799927,-0.700012c0.300049,-0.200012 0.700073,-0.200012 1.100098,-0.200012c0.299927,0 0.599976,0.100037 0.899902,0.200012c0.200073,0.099976 0.5,0.299988 0.700073,0.400024l0,-3.300049l1.5,0l0,8.900024l-0.900024,0zm-2,-1.099976c0.300049,0 0.599976,-0.099976 0.800049,-0.200012c0.199951,-0.099976 0.399902,-0.299988 0.599976,-0.5l0,-2.799988c-0.200073,-0.200012 -0.300049,-0.299988 -0.5,-0.400024c-0.200073,-0.099976 -0.400024,-0.099976 -0.599976,-0.099976c-0.200073,0 -0.400024,0 -0.600098,0.099976c-0.199951,0.100037 -0.299927,0.200012 -0.5,0.400024c-0.099976,0.200012 -0.199951,0.400024 -0.299927,0.599976c-0.099976,0.300049 -0.099976,0.600037 -0.099976,0.900024c0,0.400024 0,0.700012 0.099976,0.900024c0.099976,0.199951 0.099976,0.5 0.199951,0.599976c0.099976,0.200012 0.200073,0.299988 0.400024,0.299988c0.199951,0.200012 0.399902,0.200012 0.5,0.200012z" id="svg_271"/>
     <path class="st9" d="m1245.400024,891c0.400024,0 0.699951,0.099976 1.099976,0.200012c0.300049,0.099976 0.599976,0.299988 0.800049,0.5c0.199951,0.200012 0.400024,0.5 0.599976,0.899963c0.099976,0.300049 0.199951,0.700012 0.199951,1.200012c0,0.100037 0,0.200012 0,0.299988c0,0.100037 0,0.100037 -0.099976,0.200012c0,0 -0.099976,0.100037 -0.099976,0.100037c0,0 -0.099976,0 -0.199951,0l-3.800049,0c0,0.599976 0.199951,1.099976 0.5,1.399963c0.300049,0.299988 0.699951,0.400024 1.199951,0.400024c0.200073,0 0.400024,0 0.600098,-0.100037c0.199951,-0.099976 0.299927,-0.099976 0.5,-0.199951c0.099976,-0.100037 0.199951,-0.100037 0.299927,-0.200012c0.099976,-0.100037 0.200073,-0.100037 0.300049,-0.100037c0.099976,0 0.099976,0 0.199951,0c0,0 0.099976,0.100037 0.099976,0.100037l0.400024,0.5c-0.199951,0.200012 -0.299927,0.399963 -0.599976,0.5c-0.199951,0.099976 -0.400024,0.200012 -0.599976,0.299988c-0.200073,0.099976 -0.400024,0.099976 -0.700073,0.200012c-0.199951,0 -0.5,0 -0.699951,0c-0.400024,0 -0.800049,-0.100037 -1.199951,-0.200012c-0.400024,-0.099976 -0.700073,-0.400024 -1,-0.599976c-0.300049,-0.300049 -0.5,-0.600037 -0.600098,-1c-0.199951,-0.400024 -0.199951,-0.900024 -0.199951,-1.400024c0,-0.400024 0.099976,-0.799988 0.199951,-1.200012c0.100098,-0.399963 0.300049,-0.700012 0.600098,-1c0.299927,-0.299988 0.599976,-0.5 0.899902,-0.700012c0.400024,0 0.800049,-0.099976 1.300049,-0.099976zm0,1.099976c-0.400024,0 -0.800049,0.099976 -1,0.400024c-0.199951,0.199951 -0.400024,0.599976 -0.5,1l2.800049,0c0,-0.200012 0,-0.400024 -0.100098,-0.5c-0.099976,-0.200012 -0.099976,-0.300049 -0.199951,-0.400024c-0.099976,-0.099976 -0.199951,-0.200012 -0.400024,-0.299988c-0.199951,-0.200012 -0.400024,-0.200012 -0.599976,-0.200012z" id="svg_272"/>
     <path class="st9" d="m1252.900024,892.299988c0,0.099976 -0.099976,0.099976 -0.099976,0.099976c0,0 -0.099976,0 -0.200073,0c-0.099976,0 -0.099976,0 -0.199951,-0.099976c-0.099976,0 -0.199951,-0.099976 -0.300049,-0.099976c-0.099976,0 -0.199951,-0.100037 -0.399902,-0.100037c-0.100098,0 -0.300049,-0.099976 -0.5,-0.099976c-0.300049,0 -0.5,0.099976 -0.700073,0.200012c-0.199951,0.099976 -0.299927,0.299988 -0.299927,0.5c0,0.099976 0,0.199951 0.099976,0.299988c0.099976,0.099976 0.199951,0.200012 0.299927,0.200012c0.100098,0.099976 0.300049,0.099976 0.5,0.199951c0.200073,0.100037 0.400024,0.100037 0.600098,0.200012c0.199951,0.100037 0.399902,0.100037 0.599976,0.200012c0.199951,0.099976 0.299927,0.200012 0.5,0.299988c0.099976,0.100037 0.299927,0.299988 0.299927,0.5c0.100098,0.200012 0.100098,0.400024 0.100098,0.600037c0,0.299988 -0.100098,0.599976 -0.200073,0.799988c-0.099976,0.200012 -0.299927,0.5 -0.5,0.599976c-0.199951,0.200012 -0.5,0.299988 -0.799927,0.400024c-0.300049,0.099976 -0.700073,0.200012 -1.100098,0.200012c-0.199951,0 -0.399902,0 -0.599976,-0.100037c-0.199951,0 -0.400024,-0.099976 -0.599976,-0.200012c-0.199951,-0.099976 -0.400024,-0.099976 -0.5,-0.199951c-0.199951,-0.100037 -0.300049,-0.200012 -0.400024,-0.300049l0.300049,-0.599976c0,-0.099976 0.099976,-0.099976 0.199951,-0.200012c0.099976,0 0.099976,-0.099976 0.200073,-0.099976c0.099976,0 0.199951,0 0.299927,0.099976c0.099976,0.100037 0.200073,0.100037 0.300049,0.200012c0.099976,0.099976 0.199951,0.099976 0.400024,0.200012c0.099976,0.099976 0.299927,0.099976 0.599976,0.099976c0.199951,0 0.299927,0 0.5,-0.099976c0.099976,0 0.199951,-0.100037 0.299927,-0.200012c0.100098,-0.099976 0.100098,-0.099976 0.200073,-0.200012c0,-0.099976 0.099976,-0.200012 0.099976,-0.299988c0,-0.099976 0,-0.299988 -0.099976,-0.400024c-0.099976,-0.099976 -0.200073,-0.199951 -0.300049,-0.199951c-0.099976,-0.100037 -0.299927,-0.100037 -0.5,-0.200012c-0.199951,-0.100037 -0.400024,-0.100037 -0.599976,-0.200012c-0.199951,-0.099976 -0.400024,-0.099976 -0.599976,-0.200012c-0.200073,-0.099976 -0.300049,-0.200012 -0.5,-0.299988c-0.099976,-0.099976 -0.300049,-0.299988 -0.300049,-0.5c-0.099976,-0.200012 -0.099976,-0.400024 -0.099976,-0.700012c0,-0.299988 0.099976,-0.5 0.099976,-0.700012c0.099976,-0.199951 0.200073,-0.399963 0.400024,-0.599976c0.199951,-0.200012 0.400024,-0.299988 0.699951,-0.400024c0.300049,-0.099976 0.600098,-0.199951 1,-0.199951c0.400024,0 0.800049,0.099976 1.200073,0.199951c0.299927,0.100037 0.599976,0.300049 0.900024,0.600037l-0.300049,0.799988z" id="svg_273"/>
     <path class="st9" d="m1256.300049,889.299988c0,0.099976 0,0.200012 -0.099976,0.400024c-0.099976,0.099976 -0.099976,0.199951 -0.200073,0.299988c-0.099976,0.099976 -0.199951,0.200012 -0.299927,0.200012c-0.099976,0.099976 -0.200073,0.099976 -0.400024,0.099976c-0.099976,0 -0.199951,0 -0.400024,-0.099976c-0.099976,0 -0.199951,-0.100037 -0.299927,-0.200012c-0.100098,-0.100037 -0.200073,-0.200012 -0.200073,-0.299988c-0.099976,-0.100037 -0.099976,-0.200012 -0.099976,-0.400024c0,-0.099976 0,-0.299988 0.099976,-0.400024c0,-0.099976 0.099976,-0.199951 0.200073,-0.299988c0.099976,-0.099976 0.199951,-0.200012 0.299927,-0.200012c0.099976,0 0.200073,-0.099976 0.400024,-0.099976c0.099976,0 0.300049,0 0.400024,0.099976c0.099976,0.100037 0.199951,0.100037 0.299927,0.200012c0.100098,0.100037 0.200073,0.200012 0.200073,0.299988c0.099976,0.200012 0.099976,0.300049 0.099976,0.400024zm-0.200073,1.799988l0,6.200012l-1.5,0l0,-6.200012l1.5,0z" id="svg_274"/>
     <path class="st9" d="m1259.900024,891c0.300049,0 0.5,0 0.699951,0.099976c0.200073,0.100037 0.400024,0.100037 0.600098,0.200012l1.799927,0l0,0.600037c0,0.099976 0,0.199951 -0.099976,0.199951c0,0.100037 -0.099976,0.100037 -0.199951,0.100037l-0.600098,0.099976c0,0.100037 0.100098,0.200012 0.100098,0.299988c0,0.100037 0,0.200012 0,0.400024c0,0.299988 -0.100098,0.599976 -0.200073,0.799988c-0.099976,0.200012 -0.299927,0.5 -0.5,0.600037c-0.199951,0.199951 -0.5,0.299988 -0.799927,0.399963c-0.300049,0.100037 -0.600098,0.100037 -1,0.100037c-0.200073,0 -0.5,0 -0.700073,-0.100037c-0.199951,0.100037 -0.299927,0.200012 -0.299927,0.400024c0,0.099976 0.099976,0.200012 0.199951,0.299988c0.099976,0.099976 0.300049,0.099976 0.5,0.099976c0.199951,0 0.400024,0 0.599976,0c0.200073,0 0.5,0 0.700073,0c0.199951,0 0.5,0.100037 0.699951,0.100037c0.199951,0.099976 0.400024,0.099976 0.599976,0.200012c0.200073,0.099976 0.300049,0.299988 0.5,0.399963c0.099976,0.200012 0.200073,0.400024 0.200073,0.700012c0,0.299988 -0.100098,0.5 -0.200073,0.799988c-0.099976,0.299988 -0.299927,0.5 -0.599976,0.700012s-0.599976,0.400024 -0.900024,0.5c-0.400024,0.099976 -0.799927,0.200012 -1.299927,0.200012c-0.5,0 -0.900024,0 -1.200073,-0.100037c-0.299927,-0.099976 -0.599976,-0.199951 -0.900024,-0.399963c-0.199951,-0.100037 -0.399902,-0.299988 -0.5,-0.5c-0.099976,-0.200012 -0.199951,-0.400024 -0.199951,-0.600037c0,-0.299988 0.099976,-0.5 0.300049,-0.699951c0.199951,-0.200012 0.399902,-0.400024 0.699951,-0.5c-0.199951,-0.100037 -0.300049,-0.200012 -0.400024,-0.300049c-0.099976,-0.099976 -0.099976,-0.299988 -0.099976,-0.5c0,-0.099976 0,-0.199951 0,-0.299988c0,-0.099976 0.099976,-0.200012 0.099976,-0.299988c0.099976,-0.099976 0.099976,-0.200012 0.200073,-0.299988c0.099976,-0.100037 0.199951,-0.200012 0.399902,-0.200012c-0.299927,-0.200012 -0.599976,-0.400024 -0.699951,-0.700012c-0.199951,-0.299988 -0.300049,-0.599976 -0.300049,-1c0,-0.299988 0.100098,-0.599976 0.200073,-0.799988c0.099976,-0.200012 0.299927,-0.5 0.5,-0.599976c0.199951,-0.200012 0.5,-0.300049 0.799927,-0.400024c0.599976,0.099976 0.900024,0 1.300049,0zm1.599976,6.5c0,-0.099976 0,-0.200012 -0.099976,-0.299988c-0.099976,-0.100037 -0.200073,-0.100037 -0.300049,-0.200012c-0.099976,0 -0.299927,-0.099976 -0.400024,-0.099976c-0.199951,0 -0.299927,0 -0.5,0s-0.399902,0 -0.599976,0c-0.199951,0 -0.400024,0 -0.599976,-0.100037c-0.199951,0.100037 -0.300049,0.200012 -0.400024,0.299988c-0.099976,0.100037 -0.199951,0.300049 -0.199951,0.400024c0,0.099976 0,0.200012 0.099976,0.299988c0.099976,0.100037 0.099976,0.200012 0.300049,0.200012c0.099976,0.099976 0.299927,0.099976 0.5,0.200012c0.199951,0 0.399902,0.099976 0.699951,0.099976c0.300049,0 0.5,0 0.699951,-0.099976c0.200073,0 0.400024,-0.100037 0.5,-0.200012c0.100098,-0.099976 0.200073,-0.200012 0.300049,-0.299988c0,0.099976 0,0 0,-0.200012zm-1.599976,-3.400024c0.199951,0 0.300049,0 0.5,-0.099976c0.099976,-0.100037 0.199951,-0.100037 0.300049,-0.200012c0.099976,-0.100037 0.199951,-0.200012 0.199951,-0.299988c0,-0.100037 0.099976,-0.300049 0.099976,-0.400024c0,-0.299988 -0.099976,-0.5 -0.299927,-0.700012c-0.200073,-0.200012 -0.5,-0.299988 -0.800049,-0.299988s-0.599976,0.099976 -0.800049,0.299988c-0.199951,0.200012 -0.299927,0.400024 -0.299927,0.700012c0,0.099976 0,0.299988 0.099976,0.400024c0,0.099976 0.099976,0.199951 0.199951,0.299988c0.100098,0.099976 0.200073,0.200012 0.300049,0.200012c0.099976,0 0.299927,0.099976 0.5,0.099976z" id="svg_275"/>
     <path class="st9" d="m1263.900024,897.299988l0,-6.200012l0.900024,0c0.199951,0 0.299927,0.100037 0.400024,0.299988l0.099976,0.5c0.099976,-0.099976 0.299927,-0.199951 0.400024,-0.299988c0.099976,-0.099976 0.299927,-0.200012 0.399902,-0.299988c0.200073,-0.099976 0.300049,-0.099976 0.5,-0.200012c0.200073,0 0.400024,-0.099976 0.600098,-0.099976c0.299927,0 0.599976,0.099976 0.899902,0.200012c0.300049,0.099976 0.5,0.299988 0.700073,0.5c0.199951,0.199951 0.299927,0.5 0.400024,0.699951c0.099976,0.300049 0.099976,0.600037 0.099976,0.900024l0,3.900024l-1.5,0l0,-3.900024c0,-0.400024 -0.099976,-0.700012 -0.300049,-0.900024c-0.199951,-0.199951 -0.400024,-0.299988 -0.799927,-0.299988c-0.300049,0 -0.5,0.100037 -0.700073,0.200012c-0.199951,0.099976 -0.400024,0.299988 -0.599976,0.5l0,4.400024l-1.5,0l0,0.099976z" id="svg_276"/>
    </g>
   </g>
  </g>
 </g>
</svg>
