<?xml version="1.0" encoding="utf-8"?>
<!-- Generator: Adobe Illustrator 21.1.0, SVG Export Plug-In . SVG Version: 6.00 Build 0)  -->
<svg version="1.1" xmlns="http://www.w3.org/2000/svg" xmlns:xlink="http://www.w3.org/1999/xlink" x="0px" y="0px"
	 viewBox="0 0 1305.1 935.2" style="enable-background:new 0 0 1305.1 935.2;" xml:space="preserve">
<style type="text/css">
	.st0{display:none;}
	.st1{display:inline;fill:#BFE7F7;}
	.st2{fill:url(#SVGID_1_);}
	.st3{fill:url(#SVGID_2_);}
	.st4{fill:#1087AB;}
	.st5{fill:#4EBBA0;}
	.st6{fill:#0D887F;}
	.st7{fill:url(#SVGID_3_);}
	.st8{fill:#7CC68A;}
	.st9{fill:#FFFFFF;}
	.st10{fill:#B3DFD3;}
	.st11{fill:#D7B2D4;}
	.st12{fill:#F9CDB6;}
	.st13{fill:#C9E9EB;}
	.st14{fill:#EFDCEB;}
	.st15{fill:url(#SVGID_4_);}
	.st16{fill:#F1656B;}
	.st17{fill:#E55C2C;}
	.st18{fill:#F0AA2F;}
	.st19{fill:#C74B27;}
	.st20{fill:#F47838;}
	.st21{fill:#CA9FC8;}
	.st22{fill:#42C1C9;}
	.st23{fill:#2D8BCB;}
	.st24{fill:#DE4E58;}
	.st25{fill:#354EA1;}
	.st26{fill:#116877;}
	.st27{fill:#DD9727;}
	.st28{fill:#EE4788;}
	.st29{fill:#EAB39B;}
	.st30{fill:#E61563;}
	.st31{fill:#E5C7E0;}
	.st32{fill:#E9BC3F;}
	.st33{fill:#A2D4D5;}
	.st34{fill:#ED6623;}
	.st35{display:inline;}
	.st36{opacity:0.42;fill:#FFFFFF;}
	.st37{clip-path:url(#SVGID_6_);}
	.st38{clip-path:url(#SVGID_8_);fill:#FFFFFF;}
	.st39{clip-path:url(#SVGID_8_);}
	.st40{fill:#CD6432;}
	.st41{fill:#F17232;}
	.st42{fill:#9ECFEF;}
	.st43{fill:#191817;}
	.st44{font-family:'Lato-Black';}
	.st45{font-size:11.4357px;}
	.st46{font-size:18.7872px;}
	.st47{opacity:0.4;fill:#FFFFFF;}
	.st48{fill:#010101;}
	.st49{clip-path:url(#SVGID_10_);fill:#354EA1;}
	.st50{clip-path:url(#SVGID_10_);}
	.st51{clip-path:url(#SVGID_12_);fill:url(#SVGID_13_);}
	.st52{clip-path:url(#SVGID_12_);}
	.st53{fill:#98D5C5;}
	.st54{fill:#81CCB5;}
	.st55{fill:url(#SVGID_14_);}
	.st56{fill:url(#SVGID_15_);}
	.st57{clip-path:url(#SVGID_17_);fill:#354EA1;}
	.st58{clip-path:url(#SVGID_17_);fill:#8AD0C4;}
	.st59{clip-path:url(#SVGID_17_);fill:#CB95C3;}
	.st60{clip-path:url(#SVGID_17_);fill:#D8B3D5;}
	.st61{clip-path:url(#SVGID_17_);fill:#D1ABD0;}
	.st62{clip-path:url(#SVGID_17_);}
	.st63{clip-path:url(#SVGID_19_);}
	.st64{font-family:'MyriadPro-Semibold';}
	.st65{clip-path:url(#SVGID_21_);}
	.st66{fill:url(#SVGID_22_);}
	.st67{fill:#CB95C3;}
	.st68{fill:#D1ABD0;}
	.st69{clip-path:url(#SVGID_21_);fill:#CD6432;}
	.st70{clip-path:url(#SVGID_21_);fill:#F17232;}
	.st71{font-family:'Lato-BlackItalic';}
	.st72{font-size:29.7911px;}
	.st73{font-size:28.3172px;}
	.st74{display:inline;fill:#83D0D0;}
	.st75{display:inline;fill:#FFFFFF;}
</style>
<g id="back" class="st0">
	<rect class="st1" width="1305.1" height="821.6"/>
</g>
<g id="mountains">
	<g>
		<polygon class="st4" points="0,792.2 330.8,799.4 1177.5,821.6 1177.3,795.9 319.6,570.5 0,658.7 		"/>
		<polyline class="st4" points="1305.3,690.1 1305.1,586.7 1213.8,580.8 636.9,675.3 		"/>
		<polyline class="st5" points="1305.3,812 1305.3,680.2 857.7,562.5 502.9,634.6 		"/>
		<polyline class="st6" points="1305.3,821.6 1305.1,756.3 601.3,582.9 0,771.2 		"/>
	</g>
	<g>
		<linearGradient id="SVGID_1_" gradientUnits="userSpaceOnUse" x1="1207.6118" y1="613.2339" x2="1175.5807" y2="668.7134">
			<stop  offset="0" style="stop-color:#75CBC8"/>
			<stop  offset="1" style="stop-color:#3C67A8"/>
		</linearGradient>
		<polygon class="st2" points="1187.5,601.6 1188,675.9 1203.4,667 		"/>
		<polygon class="st8" points="1187.5,601.6 1172.6,667 1188,675.9 		"/>
	</g>
	<circle class="st9" cx="850.4" cy="635.7" r="4.6"/>
	<g>
		<polygon class="st10" points="351.1,792.7 794.6,608.8 1305.3,821.6 		"/>
		<polyline class="st11" points="0,821.6 0,787.8 436.9,617.8 728.8,822.8 308.5,745 		"/>
		<polyline class="st12" points="0,821.6 0,771.2 170.1,645.6 607.3,821.6 		"/>
		<polygon class="st13" points="794.6,608.8 1088.5,819.8 1305.1,736.8 		"/>
		<polygon class="st14" points="436.9,617.8 514.5,794.9 717.7,794.9 		"/>
	</g>
	<g>
		<linearGradient id="SVGID_2_" gradientUnits="userSpaceOnUse" x1="1238.364" y1="626.9044" x2="1206.333" y2="682.3839">
			<stop  offset="0" style="stop-color:#75CBC8"/>
			<stop  offset="1" style="stop-color:#3C67A8"/>
		</linearGradient>
		<polygon class="st3" points="1218.2,615.3 1218.8,689.6 1234.1,680.7 		"/>
		<polygon class="st8" points="1218.2,615.3 1203.4,680.7 1218.8,689.6 		"/>
	</g>
	<g>
		<path class="st16" d="M1072.9,769.9c0,0-129.3-25.4-204.9-28.8c-74.6-3.3-149.4,3.3-193.3,10c-43.9,6.7-487.8,63.5-491.6,65.4
			c-3.8,1.9,888.4,0.4,888.4,0.4L1072.9,769.9z"/>
		<path class="st17" d="M0,821.6c318.6-72.8,317.1-74,855.3,0H671.6H0z"/>
		<path class="st18" d="M522.9,821.6c0,0,394.6-81.1,533.9-78l248.2-6.8l0.2,84.8H522.9z"/>
	</g>
	<g>
		<ellipse class="st19" cx="325.3" cy="785.1" rx="34" ry="4.2"/>
		<g>
			<path class="st20" d="M295.6,784.2c0-19.5,13.3-35.3,29.7-35.3c16.4,0,29.7,15.8,29.7,35.3"/>
		</g>
	</g>
	<g>
		
			<ellipse transform="matrix(0.9461 -0.324 0.324 0.9461 -185.429 162.4456)" class="st21" cx="395.1" cy="638.1" rx="21.8" ry="2.7"/>
		<g>
			<path class="st22" d="M376.9,643.7c-4.1-11.9,0.7-24.2,10.7-27.6c10-3.4,21.3,3.4,25.4,15.3"/>
		</g>
	</g>
	<g>
		
			<ellipse transform="matrix(0.1136 -0.9935 0.9935 0.1136 -337.15 1188.0088)" class="st19" cx="497.2" cy="782.9" rx="3.7" ry="30.7"/>
		<g>
			<polygon class="st23" points="471.7,779.8 502.6,736.1 522.7,785.7 			"/>
		</g>
	</g>
	<g>
		
			<ellipse transform="matrix(0.9976 -6.919364e-02 6.919364e-02 0.9976 -50.125 53.0666)" class="st24" cx="740.9" cy="750.1" rx="28.9" ry="3.7"/>
		<polygon class="st25" points="765.6,748.2 715.4,751.2 724.4,720.2 753,718.5 		"/>
	</g>
	<g>
		
			<ellipse transform="matrix(0.977 -0.2133 0.2133 0.977 -135.2673 30.815)" class="st26" cx="75.2" cy="642.4" rx="14.9" ry="1.9"/>
		<polygon class="st22" points="87.6,639.6 62.2,644.9 64.5,628.4 79,625.4 		"/>
	</g>
	<ellipse class="st27" cx="1050.9" cy="755.1" rx="27.8" ry="5.5"/>
	<polygon class="st28" points="1032,756 1026.3,726.8 1049.8,709.8 1073.4,726.8 1069.1,756 	"/>
	
		<ellipse transform="matrix(0.9657 -0.2597 0.2597 0.9657 -192.1662 57.6307)" class="st29" cx="122" cy="756.1" rx="42.3" ry="6.2"/>
	<g>
		<polygon class="st30" points="154.9,747.8 144.7,706.2 89.3,763.9 		"/>
	</g>
	<g>
		
			<ellipse transform="matrix(0.5171 -0.8559 0.8559 0.5171 -327.4269 758.2778)" class="st31" cx="508.3" cy="669.3" rx="2.8" ry="21.6"/>
		<g>
			<polygon class="st32" points="492,659.4 504.3,638.6 525.9,679.4 			"/>
		</g>
	</g>
	<g>
		
			<ellipse transform="matrix(0.1897 -0.9818 0.9818 0.1897 81.2051 1358.6559)" class="st33" cx="863.8" cy="630.1" rx="1.9" ry="15.3"/>
		<rect x="860" y="614.2" transform="matrix(0.199 -0.98 0.98 0.199 80.1719 1348.5948)" class="st34" width="10.2" height="22.2"/>
	</g>
	<g>
		
			<ellipse transform="matrix(0.5164 -0.8563 0.8563 0.5164 40.9418 1151.4984)" class="st9" cx="1040.1" cy="539.5" rx="26.9" ry="26.9"/>
		
			<ellipse transform="matrix(0.466 -0.8848 0.8848 0.466 30.4643 1218.9385)" class="st9" cx="1025.1" cy="584.2" rx="4.6" ry="4.6"/>
		<ellipse transform="matrix(0.466 -0.8848 0.8848 0.466 -31.612 1149.125)" class="st9" cx="936.2" cy="600.8" rx="4.6" ry="4.6"/>
		
			<ellipse transform="matrix(0.466 -0.8848 0.8848 0.466 -17.6988 1236.564)" class="st9" cx="1015.6" cy="632.9" rx="4.6" ry="4.6"/>
		
			<ellipse transform="matrix(0.466 -0.8848 0.8848 0.466 44.9537 1153.8494)" class="st9" cx="978.4" cy="539.7" rx="4.6" ry="4.6"/>
		
			<ellipse transform="matrix(0.9314 -0.3641 0.3641 0.9314 -143.3141 397.8665)" class="st9" cx="983.7" cy="579.1" rx="4.6" ry="4.6"/>
	</g>
	
		<ellipse transform="matrix(0.6259 -0.7799 0.7799 0.6259 -234.6471 857.448)" class="st9" cx="776.5" cy="673.3" rx="4.6" ry="4.6"/>
	
		<ellipse transform="matrix(0.6259 -0.7799 0.7799 0.6259 -370.8845 707.1826)" class="st9" cx="551.7" cy="740.2" rx="4.6" ry="4.6"/>
	
		<ellipse transform="matrix(0.6259 -0.7799 0.7799 0.6259 -529.6418 484.0179)" class="st9" cx="239.7" cy="794.1" rx="4.6" ry="4.6"/>
	
		<ellipse transform="matrix(0.6259 -0.7799 0.7799 0.6259 -507.2709 440.2684)" class="st9" cx="205.3" cy="748.9" rx="4.6" ry="4.6"/>
	
		<ellipse transform="matrix(0.6259 -0.7799 0.7799 0.6259 -428.6835 304.5435)" class="st9" cx="103.1" cy="599.1" rx="4.6" ry="4.6"/>
	
		<ellipse transform="matrix(0.6259 -0.7799 0.7799 0.6259 -382.3884 438.4206)" class="st9" cx="265.8" cy="617.8" rx="4.6" ry="4.6"/>
	
		<ellipse transform="matrix(0.6259 -0.7799 0.7799 0.6259 -285.3488 1004.2039)" class="st9" cx="904.1" cy="799.5" rx="4.6" ry="4.6"/>
	
		<ellipse transform="matrix(0.6259 -0.7799 0.7799 0.6259 -148.9346 1255.4076)" class="st9" cx="1234.1" cy="782.9" rx="4.6" ry="4.6"/>
	
		<ellipse transform="matrix(0.6259 -0.7799 0.7799 0.6259 -147.4676 1291.652)" class="st9" cx="1272.7" cy="799.5" rx="4.6" ry="4.6"/>
</g>
<g id="apps" class="st0">
	<g class="st35">
		<path class="st36" d="M486.2,435.3h-206c-15.4,0-28-12.6-28-28v-206c0-15.4,12.6-28,28-28h206c15.4,0,28,12.6,28,28v206
			C514.2,422.7,501.6,435.3,486.2,435.3z"/>
		<g>
			<g>
				<g>
					<defs>
						<circle id="SVGID_5_" cx="383.2" cy="245.4" r="48.8"/>
					</defs>
					<clipPath id="SVGID_3_">
						<use xlink:href="#SVGID_5_"  style="overflow:visible;"/>
					</clipPath>
					<g style="clip-path:url(#SVGID_3_);">
						<defs>
							<circle id="SVGID_7_" cx="383.5" cy="244.5" r="55.2"/>
						</defs>
						<use xlink:href="#SVGID_7_"  style="overflow:visible;fill:#415DAA;"/>
						<clipPath id="SVGID_4_">
							<use xlink:href="#SVGID_7_"  style="overflow:visible;"/>
						</clipPath>
						<circle style="clip-path:url(#SVGID_4_);fill:#FFFFFF;" cx="364.1" cy="221.7" r="5.9"/>
						<circle style="clip-path:url(#SVGID_4_);fill:#FFFFFF;" cx="391" cy="214.9" r="5.9"/>
						<circle style="clip-path:url(#SVGID_4_);fill:#FFFFFF;" cx="383.2" cy="243.7" r="5.9"/>
						<g style="clip-path:url(#SVGID_4_);">
							<circle class="st9" cx="370.5" cy="267.8" r="1"/>
							<circle class="st9" cx="338.3" cy="274.8" r="1"/>
							<circle class="st9" cx="427.7" cy="264.3" r="1"/>
							<path class="st40" d="M457.1,270.3c0,0-29.2-12.7-46.3-14.4c-16.9-1.7-33.8,1.7-43.7,5c-9.9,3.3-110.3,31.7-111.2,32.7
								c-0.9,1,200.9,0.2,200.9,0.2L457.1,270.3z"/>
							<g>
								<polygon class="st23" points="317.3,288.8 326.1,274.6 334,289.4 								"/>
							</g>
							<circle class="st9" cx="415.9" cy="273.7" r="1"/>
							<circle class="st9" cx="437.6" cy="237.7" r="1"/>
							<circle class="st9" cx="264.2" cy="263.5" r="1"/>
							<circle class="st9" cx="244.1" cy="241.7" r="1"/>
							<circle class="st9" cx="239" cy="282.6" r="1"/>
							<circle class="st9" cx="225.3" cy="262.7" r="1"/>
							<path class="st17" d="M214.5,294c0,0,72.1-12.4,193.4,0.2l-41.6-0.2H214.5z"/>
							<path class="st41" d="M198.4,303.4c0,0,191.5-37.8,259.4-36.3h7.7l-0.7,35.7L198.4,303.4z"/>
							<g>
								<path class="st42" d="M349.7,271.6c-1.2-8.8,3.8-16.8,11.2-17.9c7.4-1,14.4,5.3,15.7,14.1"/>
							</g>
							<g>
								<polygon class="st25" points="414.8,271.3 392.3,272.7 396.3,258.8 409.2,258 								"/>
							</g>
							<g>
								<polygon class="st28" points="433,282.6 431.3,274.2 438.2,269.2 445,274.2 443.7,282.6 								"/>
							</g>
						</g>
					</g>
				</g>
				<g>
					<path class="st9" d="M383.2,296.7c-28.3,0-51.3-23-51.3-51.3c0-28.3,23-51.3,51.3-51.3c28.3,0,51.3,23,51.3,51.3
						C434.5,273.7,411.5,296.7,383.2,296.7z M383.2,199c-25.6,0-46.4,20.8-46.4,46.4c0,25.6,20.8,46.4,46.4,46.4
						c25.6,0,46.4-20.8,46.4-46.4C429.6,219.8,408.8,199,383.2,199z"/>
				</g>
				<text transform="matrix(1 0 0 1 334.7633 323.5506)" class="st43 st44 st45">Benjamin Britten’s</text>
				<text transform="matrix(1 0 0 1 297.6183 346.4563)"><tspan x="0" y="0" class="st43 st44 st46">The Young Person’s </tspan><tspan x="-12.1" y="19.6" class="st43 st44 st46">Guide to the Orchestra</tspan></text>
			</g>
		</g>
	</g>
	<g class="st35">
		<path class="st47" d="M434.5,398.6c0,8.2-6.7,14.9-14.9,14.9h-66.4c-8.2,0-14.9-6.7-14.9-14.9l0,0c0-8.2,6.7-14.9,14.9-14.9h66.4
			C427.8,383.7,434.5,390.4,434.5,398.6L434.5,398.6z"/>
		<g>
			<path class="st48" d="M375.9,399.5v2.4h-1.7v-7.2h2.5c0.5,0,0.9,0.1,1.3,0.2c0.4,0.1,0.7,0.3,0.9,0.5c0.2,0.2,0.4,0.5,0.5,0.7
				c0.1,0.3,0.2,0.6,0.2,0.9c0,0.4-0.1,0.7-0.2,1c-0.1,0.3-0.3,0.6-0.5,0.8c-0.2,0.2-0.5,0.4-0.9,0.5c-0.4,0.1-0.8,0.2-1.3,0.2
				H375.9z M375.9,398.3h0.9c0.4,0,0.7-0.1,0.9-0.3c0.2-0.2,0.3-0.5,0.3-0.9c0-0.2,0-0.3-0.1-0.5c0-0.1-0.1-0.3-0.2-0.3
				c-0.1-0.1-0.2-0.2-0.4-0.2c-0.2-0.1-0.3-0.1-0.5-0.1h-0.9V398.3z"/>
			<path class="st48" d="M384.2,400.6h2.7v1.3h-4.3v-7.2h1.7V400.6z"/>
			<path class="st48" d="M396.4,402h-1.3c-0.1,0-0.3,0-0.4-0.1c-0.1-0.1-0.2-0.2-0.2-0.3l-0.4-1.3h-2.7l-0.4,1.3
				c0,0.1-0.1,0.2-0.2,0.2c-0.1,0.1-0.2,0.1-0.4,0.1h-1.3l2.8-7.2h1.7L396.4,402z M391.7,399.2h2l-0.7-2c0-0.1-0.1-0.3-0.2-0.4
				c-0.1-0.2-0.1-0.4-0.2-0.6c-0.1,0.2-0.1,0.4-0.2,0.6c-0.1,0.2-0.1,0.3-0.2,0.4L391.7,399.2z"/>
			<path class="st48" d="M401.5,399.2v2.7h-1.7v-2.7l-2.6-4.5h1.5c0.1,0,0.3,0,0.3,0.1c0.1,0.1,0.2,0.2,0.2,0.3l1,2.1
				c0.1,0.2,0.2,0.3,0.2,0.5c0.1,0.1,0.1,0.3,0.2,0.4c0-0.1,0.1-0.3,0.2-0.4c0.1-0.1,0.1-0.3,0.2-0.5l1-2.1c0,0,0-0.1,0.1-0.1
				c0,0,0.1-0.1,0.1-0.1c0,0,0.1-0.1,0.2-0.1c0.1,0,0.1,0,0.2,0h1.5L401.5,399.2z"/>
			<path class="st48" d="M407,401.2c0-0.1,0-0.2,0.1-0.3c0-0.1,0.1-0.2,0.2-0.3c0.1-0.1,0.2-0.1,0.3-0.2c0.1,0,0.2-0.1,0.3-0.1
				c0.1,0,0.2,0,0.3,0.1c0.1,0,0.2,0.1,0.3,0.2c0.1,0.1,0.1,0.2,0.2,0.3c0,0.1,0.1,0.2,0.1,0.3c0,0.1,0,0.2-0.1,0.3
				c0,0.1-0.1,0.2-0.2,0.3c-0.1,0.1-0.2,0.1-0.3,0.2c-0.1,0-0.2,0.1-0.3,0.1c-0.1,0-0.2,0-0.3-0.1c-0.1,0-0.2-0.1-0.3-0.2
				c-0.1-0.1-0.1-0.2-0.2-0.3C407,401.4,407,401.3,407,401.2z M408.6,394.7v2.8c0,0.3,0,0.6-0.1,0.9c0,0.3-0.1,0.6-0.1,0.9h-1
				c-0.1-0.3-0.1-0.6-0.1-0.9c0-0.3-0.1-0.6-0.1-0.9v-2.8H408.6z"/>
		</g>
		<g>
			<circle class="st9" cx="355.1" cy="398.8" r="10"/>
			<path class="st48" d="M350.6,395.2c0-0.9,0.6-1.2,1.3-0.8l6.2,3.6c0.7,0.4,0.7,1.1,0,1.5l-6.2,3.6c-0.7,0.4-1.3,0.1-1.3-0.8
				L350.6,395.2z"/>
		</g>
	</g>
	<g class="st35">
		<path class="st36" d="M761.3,436.1h-206c-15.4,0-28-12.6-28-28v-206c0-15.4,12.6-28,28-28h206c15.4,0,28,12.6,28,28v206
			C789.3,423.5,776.7,436.1,761.3,436.1z"/>
		<g>
			<g>
				<g>
					<g>
						<defs>
							<circle id="SVGID_9_" cx="658.3" cy="246.2" r="49.3"/>
						</defs>
						<clipPath id="SVGID_6_">
							<use xlink:href="#SVGID_9_"  style="overflow:visible;"/>
						</clipPath>
						<ellipse style="clip-path:url(#SVGID_6_);fill:#354EA1;" cx="657.6" cy="245.5" rx="55.9" ry="55.9"/>
						<g class="st37">
							<defs>
								<ellipse id="SVGID_11_" cx="657.6" cy="245.5" rx="55.9" ry="55.9"/>
							</defs>
							<clipPath id="SVGID_8_">
								<use xlink:href="#SVGID_11_"  style="overflow:visible;"/>
							</clipPath>
							<linearGradient id="SVGID_10_" gradientUnits="userSpaceOnUse" x1="21.9095" y1="353.4976" x2="1308.7899" y2="353.4976">
								<stop  offset="0" style="stop-color:#396452"/>
								<stop  offset="0.3571" style="stop-color:#0F697F"/>
								<stop  offset="1" style="stop-color:#85CCAA"/>
							</linearGradient>
							<polyline style="clip-path:url(#SVGID_8_);fill:url(#SVGID_10_);" points="1308.8,436.6 661.4,270.4 21.9,434.6 							"/>
							<g class="st39">
								<polygon class="st53" points="651.1,250.7 651.5,301.9 662.1,295.8 								"/>
								<polygon class="st54" points="651.1,250.7 640.9,295.8 651.9,301.9 								"/>
								<linearGradient id="SVGID_12_" gradientUnits="userSpaceOnUse" x1="645.6843" y1="262.1417" x2="627.7349" y2="293.231">
									<stop  offset="0" style="stop-color:#75CBC8"/>
									<stop  offset="1" style="stop-color:#3C67A8"/>
								</linearGradient>
								<polygon style="fill:url(#SVGID_12_);" points="634.4,255.6 634.7,297.3 643.3,292.3 								"/>
								<polygon class="st8" points="634.4,255.6 626.1,292.3 634.7,297.3 								"/>
							</g>
							<g class="st39">
								
									<linearGradient id="SVGID_13_" gradientUnits="userSpaceOnUse" x1="-476.1787" y1="-3136.7395" x2="-444.869" y2="-3168.0491" gradientTransform="matrix(0.8199 0.5725 -0.5725 0.8199 -744.6376 3076.7463)">
									<stop  offset="0" style="stop-color:#FFFFFF"/>
									<stop  offset="0.5714" style="stop-color:#D2EDF3"/>
									<stop  offset="1" style="stop-color:#BAD1ED"/>
								</linearGradient>
								<circle style="fill:url(#SVGID_13_);" cx="682.5" cy="228.4" r="22.1"/>
								
									<ellipse transform="matrix(0.573 -0.8196 0.8196 0.573 105.6024 699.1908)" class="st9" cx="723.8" cy="248.3" rx="1.9" ry="1.9"/>
								
									<ellipse transform="matrix(0.5726 -0.8199 0.8199 0.5726 72.6558 668.0931)" class="st9" cx="677.1" cy="264.4" rx="5.5" ry="5.5"/>
								
									<ellipse transform="matrix(0.5726 -0.8199 0.8199 0.5726 93.4575 625.214)" class="st9" cx="646.3" cy="223" rx="5.5" ry="5.5"/>
								<path class="st9" d="M634.8,243.1c-1.7,2.5-5.1,3.1-7.6,1.4c-2.5-1.7-3.1-5.1-1.4-7.6c1.7-2.5,5.1-3.1,7.6-1.4
									C635.9,237.2,636.5,240.6,634.8,243.1z"/>
								
									<ellipse transform="matrix(0.5727 -0.8197 0.8197 0.5727 116.773 611.3729)" class="st9" cx="644.9" cy="193.7" rx="1.9" ry="1.9"/>
							</g>
						</g>
					</g>
					<g>
						<path class="st9" d="M658.3,297.4c-28.3,0-51.3-23-51.3-51.3c0-28.3,23-51.3,51.3-51.3c28.3,0,51.3,23,51.3,51.3
							C709.6,274.4,686.6,297.4,658.3,297.4z M658.3,198.9c-26.1,0-47.3,21.2-47.3,47.3c0,26.1,21.2,47.3,47.3,47.3
							c26.1,0,47.3-21.2,47.3-47.3C705.6,220.1,684.4,198.9,658.3,198.9z"/>
					</g>
				</g>
				<text transform="matrix(1 0 0 1 605.6683 320.7979)" class="st43 st44 st45">Felix Mendelssohn’s</text>
				<text transform="matrix(1 0 0 1 596.0594 340.4322)"><tspan x="0" y="0" class="st43 st44 st46">A Midsummer </tspan><tspan x="-1.5" y="19.6" class="st43 st44 st46">Night’s Dream:</tspan><tspan x="-28" y="39.2" class="st43 st44 st46">Music of Two Worlds</tspan></text>
			</g>
		</g>
	</g>
	<g class="st35">
		<path class="st47" d="M709.7,399.4c0,8.2-6.7,14.9-14.9,14.9h-66.4c-8.2,0-14.9-6.7-14.9-14.9l0,0c0-8.2,6.7-14.9,14.9-14.9h66.4
			C703,384.5,709.7,391.2,709.7,399.4L709.7,399.4z"/>
		<g>
			<path class="st48" d="M651.1,400.3v2.4h-1.7v-7.2h2.5c0.5,0,0.9,0.1,1.3,0.2c0.4,0.1,0.7,0.3,0.9,0.5c0.2,0.2,0.4,0.5,0.5,0.7
				c0.1,0.3,0.2,0.6,0.2,0.9c0,0.4-0.1,0.7-0.2,1c-0.1,0.3-0.3,0.6-0.5,0.8c-0.2,0.2-0.5,0.4-0.9,0.5c-0.4,0.1-0.8,0.2-1.3,0.2
				H651.1z M651.1,399h0.9c0.4,0,0.7-0.1,0.9-0.3c0.2-0.2,0.3-0.5,0.3-0.9c0-0.2,0-0.3-0.1-0.4c0-0.1-0.1-0.3-0.2-0.3
				c-0.1-0.1-0.2-0.2-0.4-0.2c-0.2-0.1-0.3-0.1-0.5-0.1h-0.9V399z"/>
			<path class="st48" d="M659.4,401.4h2.7v1.3h-4.3v-7.2h1.7V401.4z"/>
			<path class="st48" d="M671.5,402.7h-1.3c-0.1,0-0.3,0-0.4-0.1c-0.1-0.1-0.2-0.2-0.2-0.3l-0.4-1.3h-2.7l-0.4,1.3
				c0,0.1-0.1,0.2-0.2,0.2c-0.1,0.1-0.2,0.1-0.4,0.1h-1.3l2.8-7.2h1.7L671.5,402.7z M666.9,400h2l-0.7-2c0-0.1-0.1-0.3-0.2-0.4
				c-0.1-0.2-0.1-0.4-0.2-0.6c-0.1,0.2-0.1,0.4-0.2,0.6c-0.1,0.2-0.1,0.3-0.2,0.4L666.9,400z"/>
			<path class="st48" d="M676.7,400v2.7H675V400l-2.6-4.5h1.5c0.1,0,0.3,0,0.3,0.1c0.1,0.1,0.2,0.2,0.2,0.3l1,2.1
				c0.1,0.2,0.2,0.3,0.2,0.5c0.1,0.1,0.1,0.3,0.2,0.4c0-0.1,0.1-0.3,0.2-0.4c0.1-0.1,0.1-0.3,0.2-0.5l1-2.1c0,0,0-0.1,0.1-0.1
				c0,0,0.1-0.1,0.1-0.1c0,0,0.1-0.1,0.2-0.1c0.1,0,0.1,0,0.2,0h1.5L676.7,400z"/>
			<path class="st48" d="M682.2,401.9c0-0.1,0-0.2,0.1-0.3c0-0.1,0.1-0.2,0.2-0.3c0.1-0.1,0.2-0.1,0.3-0.2c0.1,0,0.2-0.1,0.3-0.1
				c0.1,0,0.2,0,0.3,0.1c0.1,0,0.2,0.1,0.3,0.2c0.1,0.1,0.1,0.2,0.2,0.3c0,0.1,0.1,0.2,0.1,0.3c0,0.1,0,0.2-0.1,0.3
				c0,0.1-0.1,0.2-0.2,0.3c-0.1,0.1-0.2,0.1-0.3,0.2c-0.1,0-0.2,0.1-0.3,0.1c-0.1,0-0.2,0-0.3-0.1c-0.1,0-0.2-0.1-0.3-0.2
				c-0.1-0.1-0.1-0.2-0.2-0.3C682.2,402.2,682.2,402.1,682.2,401.9z M683.8,395.5v2.8c0,0.3,0,0.6-0.1,0.9c0,0.3-0.1,0.6-0.1,0.9h-1
				c-0.1-0.3-0.1-0.6-0.1-0.9c0-0.3-0.1-0.6-0.1-0.9v-2.8H683.8z"/>
		</g>
		<g>
			<circle class="st9" cx="630.2" cy="399.6" r="10"/>
			<path class="st48" d="M625.8,396c0-0.9,0.6-1.2,1.3-0.8l6.2,3.6c0.7,0.4,0.7,1.1,0,1.5l-6.2,3.6c-0.7,0.4-1.3,0.1-1.3-0.8
				L625.8,396z"/>
		</g>
	</g>
	<g class="st35">
		<path class="st36" d="M1036.4,436.9h-206c-15.4,0-28-12.6-28-28v-206c0-15.4,12.6-28,28-28h206c15.4,0,28,12.6,28,28v206
			C1064.4,424.3,1051.8,436.9,1036.4,436.9z"/>
		<g>
			<g>
				<g>
					<defs>
						<circle id="SVGID_16_" cx="933.4" cy="246.9" r="49.3"/>
					</defs>
					<clipPath id="SVGID_14_">
						<use xlink:href="#SVGID_16_"  style="overflow:visible;"/>
					</clipPath>
					<ellipse style="clip-path:url(#SVGID_14_);fill:#354EA1;" cx="932.7" cy="246.3" rx="55.9" ry="55.9"/>
					<polygon style="clip-path:url(#SVGID_14_);fill:#8AD0C4;" points="868.1,310.1 973.1,241.8 1122,328.8 					"/>
					<polyline style="clip-path:url(#SVGID_14_);fill:#CB95C3;" points="768.4,303.4 908.1,234 972,304.3 864.5,303.4 					"/>
					<polygon style="clip-path:url(#SVGID_14_);fill:#D8B3D5;" points="908.1,234 925.8,304.3 1004.6,296.2 					"/>
					
						<ellipse transform="matrix(0.3835 -0.9235 0.9235 0.3835 322.6875 1053.9436)" style="clip-path:url(#SVGID_14_);fill:#D1ABD0;" cx="950.8" cy="285.3" rx="2.6" ry="23"/>
					<g style="clip-path:url(#SVGID_14_);">
						<polyline class="st30" points="933.2,277.2 961,262.5 969.4,292.8 						"/>
					</g>
					<g style="clip-path:url(#SVGID_14_);">
						<defs>
							<ellipse id="SVGID_18_" cx="932.7" cy="246.3" rx="55.9" ry="55.9"/>
						</defs>
						<clipPath id="SVGID_15_">
							<use xlink:href="#SVGID_18_"  style="overflow:visible;"/>
						</clipPath>
						<g style="clip-path:url(#SVGID_15_);">
							
								<ellipse transform="matrix(0.5728 -0.8197 0.8197 0.5728 232.8219 925.5241)" class="st9" cx="1004.3" cy="239.4" rx="1.9" ry="1.9"/>
							
								<ellipse transform="matrix(0.5725 -0.8199 0.8199 0.5725 206.6398 871.2927)" class="st9" cx="938.9" cy="237.5" rx="5.5" ry="5.5"/>
							
								<ellipse transform="matrix(0.5725 -0.8199 0.8199 0.5725 220.6615 851.476)" class="st9" cx="926.9" cy="214.1" rx="5.5" ry="5.5"/>
							<path class="st9" d="M963,224.6c-1.7,2.5-5.1,3.1-7.6,1.4c-2.5-1.7-3.1-5.1-1.4-7.6c1.7-2.5,5.1-3.1,7.6-1.4
								C964.1,218.7,964.7,222.1,963,224.6z"/>
							
								<ellipse transform="matrix(0.5727 -0.8197 0.8197 0.5727 243.8977 837.5672)" class="st9" cx="925.4" cy="184.8" rx="1.9" ry="1.9"/>
						</g>
					</g>
				</g>
				<g>
					<path class="st9" d="M933.4,298.2c-28.3,0-51.3-23-51.3-51.3c0-28.3,23-51.3,51.3-51.3c28.3,0,51.3,23,51.3,51.3
						C984.7,275.2,961.7,298.2,933.4,298.2z M933.4,199.6c-26.1,0-47.3,21.2-47.3,47.3c0,26.1,21.2,47.3,47.3,47.3
						c26.1,0,47.3-21.2,47.3-47.3C980.7,220.8,959.5,199.6,933.4,199.6z"/>
				</g>
			</g>
			<text transform="matrix(1 0 0 1 887.8837 327.3772)"><tspan x="0" y="0" class="st43 st44 st45">Antonín Dvo</tspan><tspan x="66.4" y="0" class="st43 st64 st45">ř</tspan><tspan x="70.5" y="0" class="st43 st44 st45">ák’s</tspan></text>
			<text transform="matrix(1 0 0 1 882.3925 347.6245)"><tspan x="0" y="0" class="st43 st44 st46">New World </tspan><tspan x="5.6" y="19.6" class="st43 st44 st46">Symphony</tspan></text>
		</g>
	</g>
	<g class="st35">
		<path class="st47" d="M982.9,400.2c0,8.2-6.7,14.9-14.9,14.9h-66.4c-8.2,0-14.9-6.7-14.9-14.9l0,0c0-8.2,6.7-14.9,14.9-14.9H968
			C976.2,385.3,982.9,391.9,982.9,400.2L982.9,400.2z"/>
		<g>
			<path class="st48" d="M924.3,401.1v2.4h-1.7v-7.2h2.5c0.5,0,0.9,0.1,1.3,0.2c0.4,0.1,0.7,0.3,0.9,0.5c0.2,0.2,0.4,0.5,0.5,0.7
				c0.1,0.3,0.2,0.6,0.2,0.9c0,0.4-0.1,0.7-0.2,1c-0.1,0.3-0.3,0.6-0.5,0.8c-0.2,0.2-0.5,0.4-0.9,0.5c-0.4,0.1-0.8,0.2-1.3,0.2
				H924.3z M924.3,399.8h0.9c0.4,0,0.7-0.1,0.9-0.3c0.2-0.2,0.3-0.5,0.3-0.9c0-0.2,0-0.3-0.1-0.5c0-0.1-0.1-0.3-0.2-0.3
				c-0.1-0.1-0.2-0.2-0.4-0.2c-0.2-0.1-0.3-0.1-0.5-0.1h-0.9V399.8z"/>
			<path class="st48" d="M932.6,402.2h2.7v1.3H931v-7.2h1.7V402.2z"/>
			<path class="st48" d="M944.8,403.5h-1.3c-0.1,0-0.3,0-0.4-0.1c-0.1-0.1-0.2-0.2-0.2-0.3l-0.4-1.3h-2.7l-0.4,1.3
				c0,0.1-0.1,0.2-0.2,0.2c-0.1,0.1-0.2,0.1-0.4,0.1h-1.3l2.8-7.2h1.7L944.8,403.5z M940.1,400.7h2l-0.7-2c0-0.1-0.1-0.3-0.2-0.4
				c-0.1-0.2-0.1-0.4-0.2-0.6c-0.1,0.2-0.1,0.4-0.2,0.6c-0.1,0.2-0.1,0.3-0.2,0.4L940.1,400.7z"/>
			<path class="st48" d="M949.9,400.7v2.7h-1.7v-2.7l-2.6-4.5h1.5c0.1,0,0.3,0,0.3,0.1c0.1,0.1,0.2,0.2,0.2,0.3l1,2.1
				c0.1,0.2,0.2,0.3,0.2,0.5c0.1,0.1,0.1,0.3,0.2,0.4c0-0.1,0.1-0.3,0.2-0.4c0.1-0.1,0.1-0.3,0.2-0.5l1-2.1c0,0,0-0.1,0.1-0.1
				c0,0,0.1-0.1,0.1-0.1c0,0,0.1-0.1,0.2-0.1c0.1,0,0.1,0,0.2,0h1.5L949.9,400.7z"/>
			<path class="st48" d="M955.4,402.7c0-0.1,0-0.2,0.1-0.3c0-0.1,0.1-0.2,0.2-0.3c0.1-0.1,0.2-0.1,0.3-0.2c0.1,0,0.2-0.1,0.3-0.1
				c0.1,0,0.2,0,0.3,0.1c0.1,0,0.2,0.1,0.3,0.2c0.1,0.1,0.1,0.2,0.2,0.3c0,0.1,0.1,0.2,0.1,0.3c0,0.1,0,0.2-0.1,0.3
				c0,0.1-0.1,0.2-0.2,0.3c-0.1,0.1-0.2,0.1-0.3,0.2c-0.1,0-0.2,0.1-0.3,0.1c-0.1,0-0.2,0-0.3-0.1c-0.1,0-0.2-0.1-0.3-0.2
				c-0.1-0.1-0.1-0.2-0.2-0.3C955.4,402.9,955.4,402.8,955.4,402.7z M957,396.3v2.8c0,0.3,0,0.6-0.1,0.9c0,0.3-0.1,0.6-0.1,0.9h-1
				c-0.1-0.3-0.1-0.6-0.1-0.9c0-0.3-0.1-0.6-0.1-0.9v-2.8H957z"/>
		</g>
		<g>
			<circle class="st9" cx="903.5" cy="400.4" r="10"/>
			<path class="st48" d="M899,396.8c0-0.9,0.6-1.2,1.3-0.8l6.2,3.6c0.7,0.4,0.7,1.1,0,1.5l-6.2,3.6c-0.7,0.4-1.3,0.1-1.3-0.8
				L899,396.8z"/>
		</g>
	</g>
</g>
<g id="logo" class="st0">
	<g class="st35">
		<circle class="st9" cx="74" cy="61.1" r="36.3"/>
		<g>
			<defs>
				<circle id="SVGID_20_" cx="74" cy="61.1" r="31.1"/>
			</defs>
			<use xlink:href="#SVGID_20_"  style="overflow:visible;fill:#BFE7F7;"/>
			<clipPath id="SVGID_17_">
				<use xlink:href="#SVGID_20_"  style="overflow:visible;"/>
			</clipPath>
			<g class="st62">
				<circle class="st9" cx="109.1" cy="63.2" r="0.7"/>
				<linearGradient id="SVGID_19_" gradientUnits="userSpaceOnUse" x1="-343.8456" y1="97.7612" x2="481.0278" y2="97.7612">
					<stop  offset="0" style="stop-color:#396452"/>
					<stop  offset="0.3571" style="stop-color:#0F697F"/>
					<stop  offset="1" style="stop-color:#85CCAA"/>
				</linearGradient>
				<polyline style="fill:url(#SVGID_19_);" points="481,148.1 68.1,42 -343.8,153.5 				"/>
				<polyline class="st67" points="490.7,160.1 77.8,54 -334.2,165.5 				"/>
				<circle class="st9" cx="66.3" cy="82.4" r="0.7"/>
				<circle class="st9" cx="45.8" cy="86.8" r="0.7"/>
				<circle class="st9" cx="102.8" cy="80.2" r="0.7"/>
				<polygon class="st23" points="32.3,95.8 38,86.7 43,96.2 				"/>
				<circle class="st9" cx="95.2" cy="86.1" r="0.7"/>
				<path class="st17" d="M-33.2,99.1c0,0,46-7.9,123.3,0.1l-26.5-0.1H-33.2z"/>
				<polygon class="st28" points="106.1,91.8 105.1,86.4 109.4,83.3 113.8,86.4 113,91.8 				"/>
				<path class="st68" d="M90.6,116.9c-7.5-3.1-13.2-6.3-12.9-7.2"/>
				<g>
					<polyline class="st30" points="80.1,110.2 97.8,100.8 103.1,120.2 					"/>
				</g>
			</g>
			<path style="clip-path:url(#SVGID_17_);fill:#CD6432;" d="M105.9,76c0,0-18.6-8.1-29.5-9.2c-10.8-1.1-21.5,1.1-27.9,3.2
				c-6.3,2.1-70.3,20.2-70.9,20.8c-0.6,0.6,128.1,0.1,128.1,0.1L105.9,76z"/>
			<path style="clip-path:url(#SVGID_17_);fill:#F17232;" d="M-41.3,95.7c0,0,122.1-24.1,165.4-23.1h4.9l-0.4,22.8L-41.3,95.7z"/>
		</g>
	</g>
	<g class="st35">
		<text transform="matrix(1 0 0 1 114.4732 85.781)" class="st71 st72">Playgrounds</text>
		<text transform="matrix(1 0 0 1 114.4735 61.1497)" class="st44 st73">Variation</text>
	</g>
</g>
<g id="footer" class="st0">
	<rect x="-1.4" y="821.6" class="st74" width="1306.7" height="113.6"/>
	<path class="st75" d="M128.4,897.9c-2.8,0-5-2.2-5-5c0-2.8,2.2-4.9,5-4.9c2.7,0,5,2.2,5,4.9C133.4,895.6,131.2,897.9,128.4,897.9
		 M94.7,892.4h-3.1v-5.1h3.1c1.8,0,2.6,1.2,2.7,2.4C97.3,891.1,96.4,892.4,94.7,892.4 M78.2,893.1l2.6-5.4l2.6,5.4H78.2z
		 M53.3,882.6c-3.9,0-7-3.1-7-7c0-3.9,3.1-7,7-7c3.9,0,7,3.1,7,7C60.3,879.5,57.2,882.6,53.3,882.6 M64.3,868.4h3.4
		c1.9,0,2.8,1.3,2.8,2.7c0,1.3-0.9,2.8-2.8,2.8h-3.4V868.4z M73.4,872.8v7.9l-2.9-4.3C71.9,875.6,72.9,874.2,73.4,872.8
		 M128.4,884.8c-3.2,0-5.9,1.8-7.2,4.4v-5.3c0-0.2-0.2-0.4-0.4-0.4H119c-0.2,0-0.3,0.1-0.4,0.2l-6.2,9.9l0,0l-0.8,1.1h-0.1l-0.7-1.1
		l0,0l-6.3-9.8c-0.1-0.2-0.2-0.2-0.4-0.2h-1.8c-0.2,0-0.4,0.2-0.4,0.4v17.3l-4.2-6.3c1.9-0.9,3-3,3-4.9c0-2.4-2-5.4-5.1-5.4H89
		c-0.2,0-0.4,0.2-0.4,0.4v13L81,882.6c-0.1-0.1-0.2-0.2-0.3-0.2h-0.2c-0.1,0-0.2,0.1-0.3,0.2l-8.7,17.9v-16.5c0-0.2-0.2-0.4-0.4-0.4
		h-2.2c-0.2,0-0.4,0.2-0.4,0.4v6.8H61v-8.2c0-0.1,0.1-0.2,0.2-0.3h2.2c0.2,0,0.4-0.1,0.4-0.4v-4.8h3.3l2.8,4.3
		c0.2,0.3,0.7,0.9,1.3,0.9h2l0,0l0,0h2.2c0.2,0,0.4-0.2,0.4-0.4v-8.3l7.1,8.5c0.1,0.1,0.3,0.2,0.4,0.2h2.3c0.6,0,0.8-0.6,0.4-1
		l-6.8-8.1l6.4-6.7c0.3-0.3,0.1-0.9-0.4-0.9h-2.3c-0.2,0-0.3,0.1-0.6,0.2l-6.7,7v-6.2c0-0.6-0.4-1-1.1-1h-1.4
		c-0.2,0-0.3,0.2-0.2,0.6c0.1,0.4,0.1,0.8,0.2,1.3v2.2c-0.7-2.1-2.6-4.1-5.1-4.1h-6.7c-0.2,0-0.4,0.2-0.4,0.4v3.1
		c-1.9-2.2-4.7-3.7-7.9-3.7c-2,0-3.8,0.6-5.3,1.4l2.2-4.4c0.2-0.3-0.1-0.8-0.4-0.8h-2.3c-0.2,0-0.3,0.1-0.4,0.3l-4.9,10.2l-6.5-10.4
		c-0.1-0.1-0.2-0.2-0.4-0.2h-2.6c-0.4,0-0.7,0.4-0.4,0.8l8,12.8c0.1,0.1,0.1,0.3,0,0.6l-3.9,7.9c-0.3,0.4-0.1,1,0.7,1h2.1
		c0.1,0,0.2-0.1,0.2-0.1l3.8-7.7c0.6,5.2,4.9,9.2,10.2,9.2c1.9,0,3.7-0.6,5.2-1.4v12.1c0,0.2,0.2,0.4,0.4,0.4H61
		c0.2,0,0.4-0.2,0.4-0.4v-3h7.3v7.7c0,0.7,0.3,1.1,1,1.1h1.4l0,0h2.4c0.2,0,0.3-0.1,0.4-0.2l3-6.3h7.4l1.4,3l0,0
		c0.1,0.3,0.4,0.6,0.9,0.6H89c0,0,0,0,0.1,0c0,0,0,0,0.1,0h2.2c0.2,0,0.3-0.1,0.3-0.4v-3.6h3.1l6,9.2c0.2,0.3,0.7,0.9,1.2,0.9h2.3
		c0.2,0,0.4-0.2,0.4-0.4v-15.2l5.6,8.3c0.1,0.2,0.2,0.2,0.4,0.2h1.4c0.2,0,0.3-0.1,0.4-0.2l5.5-8.3v10.7c0,0.2,0.2,0.4,0.4,0.4h2.1
		c0.2,0,0.4-0.2,0.4-0.4v-4c1.3,2.7,4,4.4,7.2,4.4c4.4,0,8-3.6,8-8.1C136.4,888.3,132.9,884.8,128.4,884.8 M154.8,876.8h-2.1
		c-0.2,0-0.4,0.2-0.4,0.4v21.9l-12.5-14.3c-0.1-0.2-0.2-0.2-0.4-0.2h-1.2c-0.2,0-0.4,0.2-0.4,0.4c0,0,0,15.5,0,15.7
		c0,0.2,0.2,0.3,0.4,0.3h2.1c0.2,0,0.3-0.1,0.3-0.2v-0.1v-10.2l12.5,14.3c0.1,0.2,0.2,0.3,0.4,0.3h1.2c0.2,0,0.4-0.2,0.4-0.4v-27.4
		C155.2,877,155.1,876.8,154.8,876.8 M173.6,896.3c-0.2-0.1-0.3-0.1-0.6,0c-0.9,0.9-2.2,1.4-3.6,1.4c-2.8,0-5-2.1-5-4.9
		c0-2.8,2.2-5,5-5c1.4,0,2.7,0.6,3.7,1.4c0.2,0.2,0.3,0.2,0.6,0l1.7-1.4c0.2-0.1,0.2-0.3,0-0.6c-1.4-1.7-3.6-2.7-5.9-2.7
		c-4.4,0-8,3.6-8,8.1c0,4.6,3.6,8,8,8c2.3,0,4.4-1,5.9-2.6c0.2-0.2,0.1-0.4,0-0.6L173.6,896.3z M62.6,899.3h-6.4v-11.1
		c0-0.1-0.1-0.2-0.3-0.2h-2.3c-0.1,0-0.2,0.1-0.2,0.2V902c0,0.1,0.1,0.3,0.3,0.3h9.1c0.1,0,0.2-0.1,0.2-0.3v-2.4
		C62.9,899.4,62.8,899.3,62.6,899.3 M159.6,884.5h-2.1c-0.2,0-0.4,0.2-0.4,0.4v15.5c0,0.2,0.2,0.4,0.4,0.4h2.1
		c0.2,0,0.4-0.2,0.4-0.4v-15.5C159.9,884.7,159.8,884.5,159.6,884.5 M50.6,888h-2.3c-0.2,0-0.3,0.1-0.3,0.3V905
		c0,0.2,0.1,0.3,0.3,0.3h2.3c0.1,0,0.3-0.1,0.3-0.3v-16.8C50.9,888.1,50.8,888,50.6,888 M40.4,861.4h2.1c0.2,0,0.4-0.2,0.4-0.4
		v-10.1l11.4,12.4c0.3,0.3,0.8,0.8,1.9,0.8h7.5c0.2,0,0.4-0.2,0.4-0.4v-2.2c0-0.2-0.2-0.4-0.4-0.4h-6.2v-3.6h3.8
		c0.2,0,0.4-0.2,0.4-0.4v-2.2c0-0.2-0.2-0.4-0.4-0.4h-3.9v-3.8H62c0.1,0,0.2,0.1,0.3,0.1l6,13c0.1,0.2,0.2,0.4,0.4,0.4H69
		c0.2,0,0.3-0.2,0.4-0.4l2.2-4.8l2.2,4.8c0.1,0.2,0.2,0.4,0.4,0.4h0.2c0.2,0,0.3-0.2,0.4-0.4l8.9-18.5c0.1-0.2-0.2-0.4-0.4-0.4h-2.7
		c-0.2,0-0.3,0.2-0.4,0.4l-5.6,12.4c-0.1,0-0.1,0-0.1,0l-1.1-2.4l3.3-7.2c0.1-0.2-0.2-0.4-0.4-0.4h-2.7c-0.2,0-0.3,0.2-0.4,0.4
		l-1.6,3.4l-1.6-3.4c-0.1-0.2-0.2-0.4-0.4-0.4H67c-0.2,0-0.6,0.2-0.4,0.4l3.3,7.2l-1.1,2.4c-0.1,0-0.1,0-0.1,0l-4.3-9.7
		c-0.1-0.2-0.2-0.4-0.4-0.4h-9.3c-0.2,0-0.4,0.2-0.4,0.4v11.4l-12.1-14.3c-0.1-0.2-0.2-0.2-0.4-0.2h-1.2c-0.2,0-0.4,0.2-0.4,0.4v16
		C39.9,861.3,40.2,861.4,40.4,861.4 M28.6,891.4h-3.1v-5.1h3.1c1.8,0,2.7,1.2,2.7,2.6C31.2,890.2,30.3,891.4,28.6,891.4 M45.4,884.5
		h-2.3c-0.2,0-0.3,0.1-0.3,0.3v7.3h-7.3v-5c0-0.2-0.1-0.3-0.3-0.3h-1.3c-0.8-1.8-2.4-3.3-4.7-3.3h-6.2c-0.2,0-0.4,0.2-0.4,0.4V902
		c0,0.2,0.1,0.4,0.3,0.4H25c0.2,0,0.3-0.1,0.3-0.4v-7.5h3.8c1.3,0,2.6-0.6,3.4-1.3v9c0,0.2,0.1,0.3,0.3,0.3h2.3
		c0.2,0,0.3-0.1,0.3-0.3v-6.5h7.3v5.1c0,0.2,0.1,0.3,0.3,0.3h2.3c0.2,0,0.3-0.1,0.3-0.3v-15.9C45.6,884.6,45.5,884.5,45.4,884.5"/>
	<g class="st35">
		<g>
			<g>
				
					<ellipse transform="matrix(0.7527 -0.6584 0.6584 0.7527 -300.4597 938.1382)" class="st9" cx="1098.5" cy="869" rx="2.9" ry="2.9"/>
			</g>
			<g>
				
					<ellipse transform="matrix(0.7528 -0.6582 0.6582 0.7528 -303.3754 943.2766)" class="st9" cx="1104.2" cy="875.6" rx="2.9" ry="2.9"/>
			</g>
			<g>
				
					<ellipse transform="matrix(0.7528 -0.6582 0.6582 0.7528 -310.5812 936.8251)" class="st9" cx="1092.1" cy="882" rx="2.9" ry="2.9"/>
			</g>
			<g>
				
					<ellipse transform="matrix(0.7527 -0.6583 0.6583 0.7527 -308.9251 942.7563)" class="st9" cx="1100.6" cy="882.6" rx="2.9" ry="2.9"/>
			</g>
			<g>
				
					<ellipse transform="matrix(0.7527 -0.6584 0.6584 0.7527 -312.9209 946.6433)" class="st9" cx="1103.6" cy="889.8" rx="2.9" ry="2.9"/>
			</g>
			<g>
				
					<ellipse transform="matrix(0.7528 -0.6582 0.6582 0.7528 -318.6016 943.2599)" class="st9" cx="1096.7" cy="895.9" rx="2.9" ry="2.9"/>
			</g>
		</g>
		<g>
			<path class="st9" d="M1229.3,857.4v27.2h-5.6v-27.2H1229.3z"/>
			<path class="st9" d="M1246.8,884.6c-0.5,0-0.9-0.1-1.2-0.2c-0.3-0.1-0.5-0.4-0.7-0.9l-0.4-1c-0.5,0.4-0.9,0.8-1.4,1.1
				c-0.4,0.3-0.9,0.6-1.4,0.8c-0.5,0.2-1,0.4-1.5,0.5c-0.5,0.1-1.1,0.2-1.8,0.2c-0.9,0-1.6-0.1-2.3-0.3c-0.7-0.2-1.3-0.6-1.8-1
				c-0.5-0.4-0.9-1-1.1-1.6c-0.3-0.6-0.4-1.4-0.4-2.3c0-0.7,0.2-1.4,0.5-2.1c0.3-0.7,0.9-1.3,1.8-1.9c0.8-0.6,2-1.1,3.4-1.4
				c1.4-0.4,3.2-0.6,5.4-0.6v-0.8c0-1.1-0.2-1.9-0.7-2.4c-0.5-0.5-1.1-0.7-1.9-0.7c-0.7,0-1.2,0.1-1.6,0.2c-0.4,0.1-0.8,0.3-1.1,0.5
				c-0.3,0.2-0.7,0.3-1,0.5c-0.3,0.1-0.7,0.2-1.1,0.2c-0.4,0-0.7-0.1-1-0.3c-0.3-0.2-0.5-0.4-0.6-0.7l-1-1.8c1.1-1,2.4-1.8,3.8-2.2
				c1.4-0.5,2.9-0.7,4.5-0.7c1.1,0,2.2,0.2,3.1,0.6c0.9,0.4,1.7,0.9,2.3,1.5s1.1,1.4,1.5,2.4c0.3,0.9,0.5,1.9,0.5,3v11.8H1246.8z
				 M1240.4,881.2c0.7,0,1.4-0.1,1.9-0.4c0.5-0.3,1.1-0.7,1.7-1.2V877c-1.1,0-2.1,0.1-2.8,0.2c-0.7,0.1-1.3,0.3-1.7,0.5
				c-0.4,0.2-0.7,0.5-0.9,0.8c-0.2,0.3-0.2,0.6-0.2,0.9c0,0.6,0.2,1.1,0.5,1.4C1239.2,881,1239.7,881.2,1240.4,881.2z"/>
			<path class="st9" d="M1253.4,884.6v-27.2h5.6v10.4c0.7-0.7,1.5-1.2,2.4-1.7c0.9-0.4,1.9-0.6,3.1-0.6c1,0,1.9,0.2,2.7,0.6
				c0.8,0.4,1.6,1,2.2,1.9c0.6,0.8,1.1,1.8,1.4,3c0.3,1.2,0.5,2.5,0.5,4.1c0,1.4-0.2,2.7-0.6,3.9c-0.4,1.2-0.9,2.2-1.7,3.1
				c-0.7,0.9-1.6,1.6-2.5,2.1c-1,0.5-2.1,0.7-3.3,0.7c-0.6,0-1.1-0.1-1.5-0.2c-0.4-0.1-0.8-0.3-1.2-0.5c-0.4-0.2-0.7-0.4-1-0.7
				c-0.3-0.3-0.6-0.6-0.9-0.9l-0.2,0.9c-0.1,0.4-0.2,0.7-0.5,0.8c-0.2,0.1-0.5,0.2-0.9,0.2H1253.4z M1262.6,869.7
				c-0.4,0-0.8,0-1.1,0.1c-0.3,0.1-0.6,0.2-0.9,0.3c-0.3,0.1-0.5,0.3-0.8,0.6c-0.2,0.2-0.5,0.5-0.7,0.8v8c0.4,0.5,0.9,0.8,1.4,1
				c0.5,0.2,1,0.3,1.6,0.3c0.5,0,1-0.1,1.4-0.3c0.4-0.2,0.8-0.5,1.1-1c0.3-0.5,0.6-1,0.8-1.8c0.2-0.7,0.3-1.6,0.3-2.7
				c0-1-0.1-1.8-0.2-2.5c-0.1-0.7-0.3-1.2-0.6-1.6c-0.3-0.4-0.6-0.7-0.9-0.9C1263.4,869.8,1263,869.7,1262.6,869.7z"/>
		</g>
		<g>
			<path class="st9" d="M1115.3,884.4v-18.6h3.4c0.3,0,0.6,0.1,0.9,0.2c0.2,0.2,0.4,0.4,0.5,0.7l0.3,1c0.3-0.3,0.6-0.6,1-0.9
				c0.3-0.3,0.7-0.5,1.1-0.7c0.4-0.2,0.8-0.4,1.3-0.5c0.4-0.1,0.9-0.2,1.5-0.2c1.1,0,2.1,0.3,2.8,0.9c0.7,0.6,1.3,1.4,1.7,2.3
				c0.3-0.6,0.7-1.1,1.1-1.5c0.4-0.4,0.9-0.7,1.4-1c0.5-0.3,1.1-0.4,1.6-0.6c0.6-0.1,1.2-0.2,1.7-0.2c1.1,0,2,0.2,2.8,0.5
				c0.8,0.3,1.5,0.8,2.1,1.4c0.6,0.6,1,1.3,1.3,2.2c0.3,0.9,0.4,1.9,0.4,3v11.8h-5.5v-11.8c0-1.9-0.8-2.9-2.5-2.9
				c-0.8,0-1.4,0.2-1.9,0.7c-0.5,0.5-0.7,1.2-0.7,2.1v11.8h-5.5v-11.8c0-1.1-0.2-1.8-0.6-2.2c-0.4-0.4-1-0.6-1.8-0.6
				c-0.5,0-1,0.1-1.4,0.3c-0.4,0.2-0.9,0.5-1.3,0.9v13.4H1115.3z"/>
			<path class="st9" d="M1151.3,865.8v11.8c0,0.9,0.2,1.6,0.6,2.1c0.4,0.5,1,0.8,1.8,0.8c0.6,0,1.2-0.1,1.7-0.4s1-0.6,1.5-1.1v-13.2
				h5.5v18.6h-3.4c-0.7,0-1.1-0.3-1.4-0.9l-0.3-1.1c-0.4,0.3-0.7,0.7-1.1,0.9c-0.4,0.3-0.8,0.5-1.2,0.7c-0.4,0.2-0.9,0.4-1.4,0.5
				c-0.5,0.1-1,0.2-1.6,0.2c-1,0-1.9-0.2-2.7-0.5c-0.8-0.4-1.4-0.8-2-1.5c-0.5-0.6-0.9-1.4-1.2-2.2c-0.3-0.9-0.4-1.8-0.4-2.8v-11.8
				H1151.3z"/>
			<path class="st9" d="M1178.2,869.9c-0.1,0.2-0.3,0.4-0.5,0.5c-0.2,0.1-0.4,0.1-0.6,0.1c-0.3,0-0.5-0.1-0.8-0.2
				c-0.3-0.1-0.5-0.2-0.8-0.4c-0.3-0.1-0.6-0.3-1-0.4c-0.4-0.1-0.8-0.2-1.3-0.2c-0.7,0-1.2,0.1-1.6,0.4c-0.4,0.3-0.6,0.6-0.6,1.1
				c0,0.3,0.1,0.6,0.4,0.9c0.2,0.2,0.6,0.4,1,0.6c0.4,0.2,0.9,0.3,1.4,0.5c0.5,0.2,1,0.3,1.6,0.5c0.5,0.2,1.1,0.4,1.6,0.7
				c0.5,0.3,1,0.6,1.4,0.9c0.4,0.4,0.7,0.8,1,1.4c0.2,0.5,0.4,1.2,0.4,1.9c0,0.9-0.2,1.8-0.5,2.5c-0.3,0.8-0.8,1.4-1.5,2
				c-0.7,0.6-1.5,1-2.4,1.3c-1,0.3-2.1,0.5-3.4,0.5c-0.6,0-1.3-0.1-1.9-0.2c-0.6-0.1-1.2-0.3-1.8-0.5c-0.6-0.2-1.1-0.4-1.6-0.7
				c-0.5-0.3-0.9-0.6-1.3-0.9l1.3-2c0.2-0.2,0.3-0.4,0.6-0.6c0.2-0.1,0.5-0.2,0.8-0.2c0.3,0,0.6,0.1,0.9,0.2
				c0.3,0.1,0.5,0.3,0.8,0.5c0.3,0.2,0.6,0.3,1,0.5c0.4,0.1,0.9,0.2,1.5,0.2c0.4,0,0.8,0,1.1-0.1c0.3-0.1,0.5-0.2,0.7-0.4
				c0.2-0.2,0.3-0.3,0.4-0.5c0.1-0.2,0.1-0.4,0.1-0.6c0-0.4-0.1-0.7-0.4-0.9c-0.2-0.2-0.6-0.4-1-0.6c-0.4-0.2-0.9-0.3-1.4-0.5
				c-0.5-0.1-1-0.3-1.6-0.5c-0.5-0.2-1.1-0.4-1.6-0.7c-0.5-0.3-1-0.6-1.4-1c-0.4-0.4-0.7-0.9-1-1.5c-0.2-0.6-0.4-1.3-0.4-2.2
				c0-0.8,0.2-1.5,0.5-2.2c0.3-0.7,0.8-1.3,1.4-1.9c0.6-0.5,1.4-1,2.3-1.3c0.9-0.3,2-0.5,3.2-0.5c0.7,0,1.3,0.1,1.9,0.2
				c0.6,0.1,1.2,0.3,1.8,0.5c0.5,0.2,1,0.5,1.5,0.8c0.5,0.3,0.9,0.6,1.2,1L1178.2,869.9z"/>
			<path class="st9" d="M1190.5,865.6c1.2,0,2.4,0.2,3.4,0.6c1,0.4,1.9,0.9,2.6,1.7c0.7,0.7,1.3,1.6,1.7,2.7
				c0.4,1.1,0.6,2.3,0.6,3.6c0,0.4,0,0.8-0.1,1c0,0.3-0.1,0.5-0.2,0.6c-0.1,0.2-0.2,0.3-0.4,0.3c-0.2,0.1-0.4,0.1-0.6,0.1h-10.7
				c0.2,1.6,0.7,2.7,1.4,3.4c0.8,0.7,1.7,1,3,1c0.6,0,1.2-0.1,1.7-0.2c0.5-0.2,0.9-0.3,1.2-0.5c0.4-0.2,0.7-0.4,1-0.5
				c0.3-0.2,0.6-0.2,1-0.2c0.4,0,0.8,0.2,1,0.5l1.6,2c-0.6,0.7-1.2,1.2-1.9,1.6c-0.7,0.4-1.3,0.7-2,1c-0.7,0.2-1.4,0.4-2.1,0.5
				c-0.7,0.1-1.4,0.1-2,0.1c-1.3,0-2.5-0.2-3.7-0.6c-1.1-0.4-2.1-1.1-3-1.9c-0.9-0.8-1.5-1.9-2-3.1c-0.5-1.2-0.7-2.7-0.7-4.3
				c0-1.2,0.2-2.4,0.6-3.5c0.4-1.1,1-2.1,1.8-2.9c0.8-0.8,1.8-1.5,2.9-2C1187.8,865.8,1189.1,865.6,1190.5,865.6z M1190.6,869.4
				c-1.1,0-1.9,0.3-2.5,0.9c-0.6,0.6-1,1.5-1.2,2.6h6.9c0-0.4-0.1-0.9-0.2-1.3c-0.1-0.4-0.3-0.8-0.6-1.1c-0.3-0.3-0.6-0.6-1-0.8
				C1191.7,869.5,1191.2,869.4,1190.6,869.4z"/>
			<path class="st9" d="M1215.1,884.4c-0.3,0-0.6-0.1-0.9-0.2c-0.2-0.2-0.4-0.4-0.5-0.7l-0.4-1.4c-0.4,0.4-0.8,0.8-1.2,1.1
				c-0.4,0.3-0.8,0.6-1.3,0.8c-0.5,0.2-1,0.4-1.5,0.5c-0.5,0.1-1.1,0.2-1.8,0.2c-1,0-1.9-0.2-2.7-0.6c-0.8-0.4-1.5-1-2.1-1.9
				c-0.6-0.8-1.1-1.8-1.4-3c-0.3-1.2-0.5-2.5-0.5-4c0-1.4,0.2-2.7,0.6-3.9c0.4-1.2,0.9-2.2,1.6-3.1c0.7-0.9,1.5-1.5,2.5-2
				c1-0.5,2.1-0.7,3.2-0.7c1,0,1.8,0.1,2.4,0.4c0.7,0.3,1.3,0.6,1.8,1.1v-9.4h5.5v26.8H1215.1z M1209.4,880.4c0.4,0,0.8,0,1.1-0.1
				c0.3-0.1,0.6-0.2,0.9-0.3c0.3-0.1,0.5-0.3,0.8-0.5c0.2-0.2,0.5-0.5,0.7-0.8v-7.9c-0.4-0.5-0.9-0.8-1.4-1c-0.5-0.2-1-0.3-1.5-0.3
				c-0.5,0-1,0.1-1.4,0.3c-0.4,0.2-0.8,0.5-1.1,1c-0.3,0.4-0.6,1-0.7,1.7c-0.2,0.7-0.3,1.6-0.3,2.6c0,1,0.1,1.8,0.2,2.5
				c0.1,0.7,0.3,1.2,0.6,1.6c0.3,0.4,0.6,0.7,0.9,0.9C1208.6,880.3,1209,880.4,1209.4,880.4z"/>
		</g>
		<g>
			<path class="st9" d="M1116.1,888.6c0,0,0.1,0,0.1,0c0,0,0.1,0,0.1,0.1c0,0,0.1,0.1,0.1,0.1l4.6,5.8c0-0.1,0-0.3,0-0.4
				c0-0.1,0-0.3,0-0.4v-5.3h1.4v8.7h-0.8c-0.1,0-0.2,0-0.3-0.1c-0.1,0-0.2-0.1-0.2-0.2l-4.5-5.8c0,0.1,0,0.3,0,0.4
				c0,0.1,0,0.2,0,0.3v5.3h-1.4v-8.7h0.8C1116,888.6,1116.1,888.6,1116.1,888.6z"/>
			<path class="st9" d="M1128,893.9v3.4h-1.6v-3.4l-3.2-5.3h1.4c0.1,0,0.3,0,0.3,0.1c0.1,0.1,0.2,0.2,0.2,0.3l1.6,2.9
				c0.1,0.2,0.2,0.3,0.2,0.5c0.1,0.2,0.1,0.3,0.2,0.5c0.1-0.2,0.1-0.3,0.2-0.5c0.1-0.2,0.1-0.3,0.2-0.5l1.6-2.9
				c0-0.1,0.1-0.2,0.2-0.2c0.1-0.1,0.2-0.1,0.3-0.1h1.4L1128,893.9z"/>
			<path class="st9" d="M1135.5,896c0.3,0,0.6-0.1,0.8-0.2c0.2-0.1,0.5-0.2,0.6-0.4c0.2-0.2,0.3-0.4,0.4-0.7
				c0.1-0.3,0.1-0.6,0.1-0.9v-5.2h1.6v5.2c0,0.5-0.1,1-0.2,1.4c-0.2,0.4-0.4,0.8-0.7,1.1c-0.3,0.3-0.7,0.6-1.1,0.7s-0.9,0.3-1.5,0.3
				c-0.6,0-1.1-0.1-1.5-0.3c-0.4-0.2-0.8-0.4-1.1-0.7c-0.3-0.3-0.5-0.7-0.7-1.1c-0.2-0.4-0.2-0.9-0.2-1.4v-5.2h1.6v5.2
				c0,0.3,0,0.6,0.1,0.9c0.1,0.3,0.2,0.5,0.4,0.7c0.2,0.2,0.4,0.3,0.6,0.4C1134.9,895.9,1135.2,896,1135.5,896z"/>
			<path class="st9" d="M1143,897.3v-6.2h0.9c0.2,0,0.3,0.1,0.4,0.3l0.1,0.5c0.1-0.1,0.2-0.2,0.3-0.3c0.1-0.1,0.2-0.2,0.4-0.3
				c0.1-0.1,0.3-0.1,0.4-0.2c0.2,0,0.3-0.1,0.5-0.1c0.4,0,0.7,0.1,1,0.3c0.2,0.2,0.4,0.5,0.6,0.8c0.1-0.2,0.2-0.4,0.4-0.5
				c0.1-0.1,0.3-0.3,0.5-0.4c0.2-0.1,0.4-0.2,0.5-0.2c0.2,0,0.4-0.1,0.6-0.1c0.3,0,0.6,0.1,0.9,0.2c0.3,0.1,0.5,0.3,0.7,0.5
				c0.2,0.2,0.3,0.4,0.4,0.7c0.1,0.3,0.1,0.6,0.1,1v3.9h-1.5v-3.9c0-0.4-0.1-0.7-0.3-0.9c-0.2-0.2-0.4-0.3-0.8-0.3
				c-0.2,0-0.3,0-0.4,0.1c-0.1,0.1-0.2,0.1-0.3,0.2c-0.1,0.1-0.2,0.2-0.2,0.4c-0.1,0.1-0.1,0.3-0.1,0.5v3.9h-1.5v-3.9
				c0-0.4-0.1-0.7-0.2-0.9c-0.2-0.2-0.4-0.3-0.7-0.3c-0.2,0-0.4,0.1-0.6,0.2c-0.2,0.1-0.4,0.3-0.5,0.4v4.5H1143z"/>
			<path class="st9" d="M1154.5,891.1v3.9c0,0.4,0.1,0.7,0.3,0.9c0.2,0.2,0.4,0.3,0.8,0.3c0.3,0,0.5-0.1,0.7-0.2
				c0.2-0.1,0.4-0.3,0.6-0.5v-4.4h1.5v6.2h-0.9c-0.2,0-0.3-0.1-0.4-0.3l-0.1-0.5c-0.1,0.1-0.3,0.2-0.4,0.4c-0.1,0.1-0.3,0.2-0.4,0.3
				c-0.2,0.1-0.3,0.1-0.5,0.2c-0.2,0-0.4,0.1-0.6,0.1c-0.3,0-0.6-0.1-0.9-0.2c-0.3-0.1-0.5-0.3-0.7-0.5c-0.2-0.2-0.3-0.5-0.4-0.7
				c-0.1-0.3-0.1-0.6-0.1-0.9v-3.9H1154.5z"/>
			<path class="st9" d="M1163.6,892.3c0,0.1-0.1,0.1-0.1,0.1c0,0-0.1,0-0.2,0c-0.1,0-0.1,0-0.2-0.1c-0.1,0-0.2-0.1-0.3-0.1
				c-0.1,0-0.2-0.1-0.4-0.1c-0.1,0-0.3-0.1-0.5-0.1c-0.3,0-0.5,0.1-0.7,0.2c-0.2,0.1-0.3,0.3-0.3,0.5c0,0.1,0,0.2,0.1,0.3
				c0.1,0.1,0.2,0.2,0.3,0.2c0.1,0.1,0.3,0.1,0.5,0.2c0.2,0.1,0.4,0.1,0.6,0.2c0.2,0.1,0.4,0.1,0.6,0.2c0.2,0.1,0.3,0.2,0.5,0.3
				c0.1,0.1,0.3,0.3,0.3,0.5c0.1,0.2,0.1,0.4,0.1,0.6c0,0.3-0.1,0.6-0.2,0.8c-0.1,0.2-0.3,0.5-0.5,0.6c-0.2,0.2-0.5,0.3-0.8,0.4
				c-0.3,0.1-0.7,0.2-1.1,0.2c-0.2,0-0.4,0-0.6-0.1c-0.2,0-0.4-0.1-0.6-0.2c-0.2-0.1-0.4-0.1-0.5-0.2c-0.2-0.1-0.3-0.2-0.4-0.3
				l0.3-0.6c0-0.1,0.1-0.1,0.2-0.2c0.1,0,0.1-0.1,0.2-0.1c0.1,0,0.2,0,0.3,0.1c0.1,0.1,0.2,0.1,0.3,0.2c0.1,0.1,0.2,0.1,0.4,0.2
				c0.1,0.1,0.3,0.1,0.6,0.1c0.2,0,0.3,0,0.5-0.1c0.1,0,0.2-0.1,0.3-0.2c0.1-0.1,0.1-0.1,0.2-0.2c0-0.1,0.1-0.2,0.1-0.3
				c0-0.1,0-0.3-0.1-0.4c-0.1-0.1-0.2-0.2-0.3-0.2c-0.1-0.1-0.3-0.1-0.5-0.2c-0.2-0.1-0.4-0.1-0.6-0.2c-0.2-0.1-0.4-0.1-0.6-0.2
				c-0.2-0.1-0.3-0.2-0.5-0.3c-0.1-0.1-0.3-0.3-0.3-0.5c-0.1-0.2-0.1-0.4-0.1-0.7c0-0.3,0-0.5,0.2-0.7c0.1-0.2,0.2-0.4,0.4-0.6
				c0.2-0.2,0.4-0.3,0.7-0.4c0.3-0.1,0.6-0.2,1-0.2c0.4,0,0.8,0.1,1.2,0.2c0.3,0.1,0.6,0.3,0.9,0.6L1163.6,892.3z"/>
			<path class="st9" d="M1167,889.3c0,0.1,0,0.2-0.1,0.4c-0.1,0.1-0.1,0.2-0.2,0.3c-0.1,0.1-0.2,0.2-0.3,0.2
				c-0.1,0.1-0.2,0.1-0.4,0.1c-0.1,0-0.2,0-0.4-0.1c-0.1,0-0.2-0.1-0.3-0.2c-0.1-0.1-0.2-0.2-0.2-0.3c0-0.1-0.1-0.2-0.1-0.4
				c0-0.1,0-0.3,0.1-0.4c0-0.1,0.1-0.2,0.2-0.3c0.1-0.1,0.2-0.2,0.3-0.2c0.1,0,0.2-0.1,0.4-0.1c0.1,0,0.3,0,0.4,0.1
				c0.1,0.1,0.2,0.1,0.3,0.2c0.1,0.1,0.2,0.2,0.2,0.3C1166.9,889.1,1167,889.2,1167,889.3z M1166.7,891.1v6.2h-1.5v-6.2H1166.7z"/>
			<path class="st9" d="M1172.7,892.4c0,0.1-0.1,0.1-0.1,0.1c0,0-0.1,0-0.2,0c-0.1,0-0.1,0-0.2-0.1c-0.1,0-0.2-0.1-0.3-0.2
				c-0.1-0.1-0.2-0.1-0.4-0.2c-0.1,0-0.3-0.1-0.5-0.1c-0.3,0-0.5,0-0.7,0.1c-0.2,0.1-0.4,0.2-0.5,0.4c-0.1,0.2-0.2,0.4-0.3,0.6
				c-0.1,0.3-0.1,0.5-0.1,0.8c0,0.3,0,0.6,0.1,0.9c0.1,0.3,0.2,0.5,0.3,0.6c0.1,0.2,0.3,0.3,0.5,0.4c0.2,0.1,0.4,0.1,0.6,0.1
				c0.2,0,0.4,0,0.6-0.1c0.1-0.1,0.3-0.1,0.4-0.2c0.1-0.1,0.2-0.1,0.3-0.2c0.1-0.1,0.2-0.1,0.2-0.1c0.1,0,0.2,0,0.3,0.1l0.4,0.5
				c-0.2,0.2-0.3,0.4-0.5,0.5c-0.2,0.1-0.4,0.2-0.6,0.3c-0.2,0.1-0.4,0.1-0.6,0.2c-0.2,0-0.4,0-0.7,0c-0.4,0-0.7-0.1-1.1-0.2
				c-0.3-0.1-0.6-0.3-0.9-0.6s-0.4-0.6-0.6-1c-0.1-0.4-0.2-0.8-0.2-1.3c0-0.5,0.1-0.9,0.2-1.3c0.1-0.4,0.3-0.7,0.6-1
				c0.3-0.3,0.6-0.5,0.9-0.7c0.4-0.2,0.8-0.2,1.3-0.2c0.5,0,0.9,0.1,1.2,0.2c0.3,0.1,0.7,0.4,0.9,0.6L1172.7,892.4z"/>
			<path class="st9" d="M1179,891c0.4,0,0.7,0.1,1.1,0.2c0.3,0.1,0.6,0.3,0.8,0.5c0.2,0.2,0.4,0.5,0.6,0.9c0.1,0.3,0.2,0.7,0.2,1.2
				c0,0.1,0,0.2,0,0.3c0,0.1,0,0.1-0.1,0.2c0,0-0.1,0.1-0.1,0.1c0,0-0.1,0-0.2,0h-3.8c0,0.6,0.2,1.1,0.5,1.4
				c0.3,0.3,0.7,0.4,1.2,0.4c0.2,0,0.4,0,0.6-0.1c0.2-0.1,0.3-0.1,0.5-0.2c0.1-0.1,0.2-0.1,0.3-0.2c0.1-0.1,0.2-0.1,0.3-0.1
				c0.1,0,0.1,0,0.2,0c0,0,0.1,0.1,0.1,0.1l0.4,0.5c-0.2,0.2-0.3,0.4-0.6,0.5c-0.2,0.1-0.4,0.2-0.6,0.3c-0.2,0.1-0.4,0.1-0.7,0.2
				c-0.2,0-0.5,0-0.7,0c-0.4,0-0.8-0.1-1.2-0.2c-0.4-0.1-0.7-0.4-1-0.6c-0.3-0.3-0.5-0.6-0.6-1c-0.2-0.4-0.2-0.9-0.2-1.4
				c0-0.4,0.1-0.8,0.2-1.2c0.1-0.4,0.3-0.7,0.6-1c0.3-0.3,0.6-0.5,0.9-0.7C1178.1,891.1,1178.5,891,1179,891z M1179,892.1
				c-0.4,0-0.8,0.1-1,0.4c-0.2,0.2-0.4,0.6-0.5,1h2.8c0-0.2,0-0.4-0.1-0.5c-0.1-0.2-0.1-0.3-0.2-0.4c-0.1-0.1-0.2-0.2-0.4-0.3
				C1179.4,892.1,1179.2,892.1,1179,892.1z"/>
			<path class="st9" d="M1184,894.1l-2-3h1.4c0.1,0,0.2,0,0.2,0c0.1,0,0.1,0.1,0.1,0.1l1.3,2.1c0-0.1,0-0.1,0.1-0.2
				c0-0.1,0.1-0.1,0.1-0.2l1-1.6c0-0.1,0.1-0.1,0.1-0.2c0.1,0,0.1-0.1,0.2-0.1h1.4l-2,2.9l2.1,3.2h-1.4c-0.1,0-0.2,0-0.3-0.1
				c-0.1-0.1-0.1-0.1-0.2-0.2l-1.3-2.1c0,0.1-0.1,0.3-0.1,0.4l-1.2,1.8c0,0.1-0.1,0.1-0.2,0.2c-0.1,0.1-0.1,0.1-0.2,0.1h-1.3
				L1184,894.1z"/>
			<path class="st9" d="M1189,899.3v-8.2h0.9c0.1,0,0.2,0,0.2,0.1c0.1,0,0.1,0.1,0.1,0.2l0.1,0.6c0.2-0.3,0.5-0.5,0.9-0.7
				c0.3-0.2,0.7-0.3,1.1-0.3c0.3,0,0.6,0.1,0.9,0.2c0.3,0.1,0.5,0.3,0.7,0.6c0.2,0.3,0.4,0.6,0.5,1c0.1,0.4,0.2,0.8,0.2,1.3
				c0,0.5-0.1,0.9-0.2,1.3c-0.1,0.4-0.3,0.7-0.5,1c-0.2,0.3-0.5,0.5-0.8,0.7c-0.3,0.2-0.7,0.2-1.1,0.2c-0.3,0-0.6-0.1-0.9-0.2
				c-0.2-0.1-0.5-0.3-0.7-0.4v2.5H1189z M1191.9,892.2c-0.3,0-0.6,0.1-0.8,0.2c-0.2,0.1-0.4,0.3-0.6,0.5v2.8
				c0.2,0.2,0.4,0.4,0.5,0.4c0.2,0.1,0.4,0.1,0.6,0.1c0.2,0,0.4,0,0.6-0.1c0.2-0.1,0.3-0.2,0.5-0.4c0.1-0.2,0.2-0.4,0.3-0.7
				c0.1-0.3,0.1-0.6,0.1-0.9c0-0.4,0-0.7-0.1-0.9c-0.1-0.2-0.1-0.5-0.2-0.6c-0.1-0.2-0.2-0.3-0.4-0.3
				C1192.2,892.2,1192,892.2,1191.9,892.2z"/>
			<path class="st9" d="M1198.3,891c0.4,0,0.7,0.1,1.1,0.2c0.3,0.1,0.6,0.3,0.8,0.5c0.2,0.2,0.4,0.5,0.6,0.9
				c0.1,0.3,0.2,0.7,0.2,1.2c0,0.1,0,0.2,0,0.3c0,0.1,0,0.1-0.1,0.2c0,0-0.1,0.1-0.1,0.1c0,0-0.1,0-0.2,0h-3.8
				c0,0.6,0.2,1.1,0.5,1.4c0.3,0.3,0.7,0.4,1.2,0.4c0.2,0,0.4,0,0.6-0.1c0.2-0.1,0.3-0.1,0.5-0.2c0.1-0.1,0.2-0.1,0.3-0.2
				c0.1-0.1,0.2-0.1,0.3-0.1c0.1,0,0.1,0,0.2,0c0,0,0.1,0.1,0.1,0.1l0.4,0.5c-0.2,0.2-0.3,0.4-0.6,0.5c-0.2,0.1-0.4,0.2-0.6,0.3
				c-0.2,0.1-0.4,0.1-0.7,0.2c-0.2,0-0.5,0-0.7,0c-0.4,0-0.8-0.1-1.2-0.2c-0.4-0.1-0.7-0.4-1-0.6c-0.3-0.3-0.5-0.6-0.6-1
				c-0.2-0.4-0.2-0.9-0.2-1.4c0-0.4,0.1-0.8,0.2-1.2c0.1-0.4,0.3-0.7,0.6-1c0.3-0.3,0.6-0.5,0.9-0.7
				C1197.4,891.1,1197.8,891,1198.3,891z M1198.3,892.1c-0.4,0-0.8,0.1-1,0.4c-0.2,0.2-0.4,0.6-0.5,1h2.8c0-0.2,0-0.4-0.1-0.5
				c-0.1-0.2-0.1-0.3-0.2-0.4c-0.1-0.1-0.2-0.2-0.4-0.3C1198.7,892.1,1198.5,892.1,1198.3,892.1z"/>
			<path class="st9" d="M1202.2,897.3v-6.2h0.9c0.2,0,0.3,0,0.3,0.1c0.1,0.1,0.1,0.2,0.1,0.3l0.1,0.7c0.2-0.4,0.5-0.7,0.8-0.9
				c0.3-0.2,0.6-0.3,1-0.3c0.3,0,0.6,0.1,0.8,0.2l-0.2,1.1c0,0.1,0,0.1-0.1,0.2c0,0-0.1,0-0.2,0c-0.1,0-0.1,0-0.2,0
				c-0.1,0-0.2,0-0.4,0c-0.3,0-0.6,0.1-0.8,0.3c-0.2,0.2-0.4,0.4-0.6,0.7v3.8H1202.2z"/>
			<path class="st9" d="M1208.9,889.3c0,0.1,0,0.2-0.1,0.4c-0.1,0.1-0.1,0.2-0.2,0.3c-0.1,0.1-0.2,0.2-0.3,0.2
				c-0.1,0.1-0.2,0.1-0.4,0.1c-0.1,0-0.2,0-0.4-0.1c-0.1,0-0.2-0.1-0.3-0.2c-0.1-0.1-0.2-0.2-0.2-0.3c0-0.1-0.1-0.2-0.1-0.4
				c0-0.1,0-0.3,0.1-0.4c0.1-0.1,0.1-0.2,0.2-0.3c0.1-0.1,0.2-0.2,0.3-0.2c0.1,0,0.2-0.1,0.4-0.1c0.1,0,0.3,0,0.4,0.1
				c0.1,0.1,0.2,0.1,0.3,0.2c0.1,0.1,0.2,0.2,0.2,0.3C1208.8,889.1,1208.9,889.2,1208.9,889.3z M1208.6,891.1v6.2h-1.5v-6.2H1208.6z
				"/>
			<path class="st9" d="M1212.9,891c0.4,0,0.7,0.1,1.1,0.2c0.3,0.1,0.6,0.3,0.8,0.5c0.2,0.2,0.4,0.5,0.6,0.9
				c0.1,0.3,0.2,0.7,0.2,1.2c0,0.1,0,0.2,0,0.3c0,0.1,0,0.1-0.1,0.2c0,0-0.1,0.1-0.1,0.1c0,0-0.1,0-0.2,0h-3.8
				c0,0.6,0.2,1.1,0.5,1.4c0.3,0.3,0.7,0.4,1.2,0.4c0.2,0,0.4,0,0.6-0.1c0.2-0.1,0.3-0.1,0.5-0.2c0.1-0.1,0.2-0.1,0.3-0.2
				c0.1-0.1,0.2-0.1,0.3-0.1c0.1,0,0.1,0,0.2,0c0,0,0.1,0.1,0.1,0.1l0.4,0.5c-0.2,0.2-0.3,0.4-0.6,0.5c-0.2,0.1-0.4,0.2-0.6,0.3
				c-0.2,0.1-0.4,0.1-0.7,0.2c-0.2,0-0.5,0-0.7,0c-0.4,0-0.8-0.1-1.2-0.2c-0.4-0.1-0.7-0.4-1-0.6c-0.3-0.3-0.5-0.6-0.6-1
				c-0.2-0.4-0.2-0.9-0.2-1.4c0-0.4,0.1-0.8,0.2-1.2c0.1-0.4,0.3-0.7,0.6-1c0.3-0.3,0.6-0.5,0.9-0.7
				C1212,891.1,1212.4,891,1212.9,891z M1212.9,892.1c-0.4,0-0.8,0.1-1,0.4c-0.2,0.2-0.4,0.6-0.5,1h2.8c0-0.2,0-0.4-0.1-0.5
				c-0.1-0.2-0.1-0.3-0.2-0.4c-0.1-0.1-0.2-0.2-0.4-0.3C1213.3,892.1,1213.1,892.1,1212.9,892.1z"/>
			<path class="st9" d="M1216.7,897.3v-6.2h0.9c0.2,0,0.3,0.1,0.4,0.3l0.1,0.5c0.1-0.1,0.3-0.2,0.4-0.3c0.1-0.1,0.3-0.2,0.4-0.3
				c0.2-0.1,0.3-0.1,0.5-0.2c0.2,0,0.4-0.1,0.6-0.1c0.3,0,0.6,0.1,0.9,0.2s0.5,0.3,0.7,0.5c0.2,0.2,0.3,0.5,0.4,0.7
				c0.1,0.3,0.1,0.6,0.1,0.9v3.9h-1.5v-3.9c0-0.4-0.1-0.7-0.3-0.9c-0.2-0.2-0.4-0.3-0.8-0.3c-0.3,0-0.5,0.1-0.7,0.2
				c-0.2,0.1-0.4,0.3-0.6,0.5v4.4H1216.7z"/>
			<path class="st9" d="M1227.9,892.4c0,0.1-0.1,0.1-0.1,0.1c0,0-0.1,0-0.2,0c-0.1,0-0.1,0-0.2-0.1c-0.1,0-0.2-0.1-0.3-0.2
				c-0.1-0.1-0.2-0.1-0.4-0.2c-0.1,0-0.3-0.1-0.5-0.1c-0.3,0-0.5,0-0.7,0.1c-0.2,0.1-0.4,0.2-0.5,0.4c-0.1,0.2-0.2,0.4-0.3,0.6
				c-0.1,0.3-0.1,0.5-0.1,0.8c0,0.3,0,0.6,0.1,0.9c0.1,0.3,0.2,0.5,0.3,0.6c0.1,0.2,0.3,0.3,0.5,0.4c0.2,0.1,0.4,0.1,0.6,0.1
				c0.2,0,0.4,0,0.6-0.1c0.1-0.1,0.3-0.1,0.4-0.2c0.1-0.1,0.2-0.1,0.3-0.2c0.1-0.1,0.2-0.1,0.2-0.1c0.1,0,0.2,0,0.3,0.1l0.4,0.5
				c-0.2,0.2-0.3,0.4-0.5,0.5c-0.2,0.1-0.4,0.2-0.6,0.3c-0.2,0.1-0.4,0.1-0.6,0.2c-0.2,0-0.4,0-0.7,0c-0.4,0-0.7-0.1-1.1-0.2
				c-0.3-0.1-0.6-0.3-0.9-0.6s-0.4-0.6-0.6-1c-0.1-0.4-0.2-0.8-0.2-1.3c0-0.5,0.1-0.9,0.2-1.3c0.1-0.4,0.3-0.7,0.6-1
				c0.3-0.3,0.6-0.5,0.9-0.7c0.4-0.2,0.8-0.2,1.3-0.2c0.5,0,0.9,0.1,1.2,0.2c0.3,0.1,0.7,0.4,0.9,0.6L1227.9,892.4z"/>
			<path class="st9" d="M1231.8,891c0.4,0,0.7,0.1,1.1,0.2c0.3,0.1,0.6,0.3,0.8,0.5c0.2,0.2,0.4,0.5,0.6,0.9
				c0.1,0.3,0.2,0.7,0.2,1.2c0,0.1,0,0.2,0,0.3c0,0.1,0,0.1-0.1,0.2c0,0-0.1,0.1-0.1,0.1c0,0-0.1,0-0.2,0h-3.8
				c0,0.6,0.2,1.1,0.5,1.4c0.3,0.3,0.7,0.4,1.2,0.4c0.2,0,0.4,0,0.6-0.1c0.2-0.1,0.3-0.1,0.5-0.2c0.1-0.1,0.2-0.1,0.3-0.2
				c0.1-0.1,0.2-0.1,0.3-0.1c0.1,0,0.1,0,0.2,0c0,0,0.1,0.1,0.1,0.1l0.4,0.5c-0.2,0.2-0.3,0.4-0.6,0.5c-0.2,0.1-0.4,0.2-0.6,0.3
				c-0.2,0.1-0.4,0.1-0.7,0.2c-0.2,0-0.5,0-0.7,0c-0.4,0-0.8-0.1-1.2-0.2c-0.4-0.1-0.7-0.4-1-0.6c-0.3-0.3-0.5-0.6-0.6-1
				c-0.2-0.4-0.2-0.9-0.2-1.4c0-0.4,0.1-0.8,0.2-1.2c0.1-0.4,0.3-0.7,0.6-1c0.3-0.3,0.6-0.5,0.9-0.7
				C1230.9,891.1,1231.3,891,1231.8,891z M1231.8,892.1c-0.4,0-0.8,0.1-1,0.4c-0.2,0.2-0.4,0.6-0.5,1h2.8c0-0.2,0-0.4-0.1-0.5
				c-0.1-0.2-0.1-0.3-0.2-0.4c-0.1-0.1-0.2-0.2-0.4-0.3C1232.2,892.1,1232.1,892.1,1231.8,892.1z"/>
			<path class="st9" d="M1242.3,897.3c-0.2,0-0.3-0.1-0.4-0.3l-0.1-0.6c-0.1,0.1-0.3,0.3-0.4,0.4c-0.1,0.1-0.3,0.2-0.5,0.3
				c-0.2,0.1-0.3,0.1-0.5,0.2c-0.2,0-0.4,0.1-0.6,0.1c-0.3,0-0.6-0.1-0.9-0.2c-0.3-0.1-0.5-0.3-0.7-0.6c-0.2-0.3-0.4-0.6-0.5-1
				c-0.1-0.4-0.2-0.8-0.2-1.3c0-0.5,0.1-0.9,0.2-1.3c0.1-0.4,0.3-0.7,0.5-1c0.2-0.3,0.5-0.5,0.8-0.7c0.3-0.2,0.7-0.2,1.1-0.2
				c0.3,0,0.6,0.1,0.9,0.2c0.2,0.1,0.5,0.3,0.7,0.4v-3.3h1.5v8.9H1242.3z M1240.3,896.2c0.3,0,0.6-0.1,0.8-0.2
				c0.2-0.1,0.4-0.3,0.6-0.5v-2.8c-0.2-0.2-0.3-0.3-0.5-0.4c-0.2-0.1-0.4-0.1-0.6-0.1c-0.2,0-0.4,0-0.6,0.1
				c-0.2,0.1-0.3,0.2-0.5,0.4c-0.1,0.2-0.2,0.4-0.3,0.6c-0.1,0.3-0.1,0.6-0.1,0.9c0,0.4,0,0.7,0.1,0.9c0.1,0.2,0.1,0.5,0.2,0.6
				c0.1,0.2,0.2,0.3,0.4,0.3C1240,896.2,1240.2,896.2,1240.3,896.2z"/>
			<path class="st9" d="M1247.4,891c0.4,0,0.7,0.1,1.1,0.2c0.3,0.1,0.6,0.3,0.8,0.5c0.2,0.2,0.4,0.5,0.6,0.9
				c0.1,0.3,0.2,0.7,0.2,1.2c0,0.1,0,0.2,0,0.3c0,0.1,0,0.1-0.1,0.2c0,0-0.1,0.1-0.1,0.1c0,0-0.1,0-0.2,0h-3.8
				c0,0.6,0.2,1.1,0.5,1.4c0.3,0.3,0.7,0.4,1.2,0.4c0.2,0,0.4,0,0.6-0.1c0.2-0.1,0.3-0.1,0.5-0.2c0.1-0.1,0.2-0.1,0.3-0.2
				c0.1-0.1,0.2-0.1,0.3-0.1c0.1,0,0.1,0,0.2,0c0,0,0.1,0.1,0.1,0.1l0.4,0.5c-0.2,0.2-0.3,0.4-0.6,0.5c-0.2,0.1-0.4,0.2-0.6,0.3
				c-0.2,0.1-0.4,0.1-0.7,0.2c-0.2,0-0.5,0-0.7,0c-0.4,0-0.8-0.1-1.2-0.2c-0.4-0.1-0.7-0.4-1-0.6c-0.3-0.3-0.5-0.6-0.6-1
				c-0.2-0.4-0.2-0.9-0.2-1.4c0-0.4,0.1-0.8,0.2-1.2c0.1-0.4,0.3-0.7,0.6-1c0.3-0.3,0.6-0.5,0.9-0.7
				C1246.5,891.1,1246.9,891,1247.4,891z M1247.4,892.1c-0.4,0-0.8,0.1-1,0.4c-0.2,0.2-0.4,0.6-0.5,1h2.8c0-0.2,0-0.4-0.1-0.5
				c-0.1-0.2-0.1-0.3-0.2-0.4c-0.1-0.1-0.2-0.2-0.4-0.3C1247.8,892.1,1247.6,892.1,1247.4,892.1z"/>
			<path class="st9" d="M1254.9,892.3c0,0.1-0.1,0.1-0.1,0.1c0,0-0.1,0-0.2,0c-0.1,0-0.1,0-0.2-0.1c-0.1,0-0.2-0.1-0.3-0.1
				c-0.1,0-0.2-0.1-0.4-0.1c-0.1,0-0.3-0.1-0.5-0.1c-0.3,0-0.5,0.1-0.7,0.2c-0.2,0.1-0.3,0.3-0.3,0.5c0,0.1,0,0.2,0.1,0.3
				c0.1,0.1,0.2,0.2,0.3,0.2c0.1,0.1,0.3,0.1,0.5,0.2c0.2,0.1,0.4,0.1,0.6,0.2c0.2,0.1,0.4,0.1,0.6,0.2c0.2,0.1,0.3,0.2,0.5,0.3
				c0.1,0.1,0.3,0.3,0.3,0.5c0.1,0.2,0.1,0.4,0.1,0.6c0,0.3-0.1,0.6-0.2,0.8c-0.1,0.2-0.3,0.5-0.5,0.6c-0.2,0.2-0.5,0.3-0.8,0.4
				c-0.3,0.1-0.7,0.2-1.1,0.2c-0.2,0-0.4,0-0.6-0.1c-0.2,0-0.4-0.1-0.6-0.2c-0.2-0.1-0.4-0.1-0.5-0.2c-0.2-0.1-0.3-0.2-0.4-0.3
				l0.3-0.6c0-0.1,0.1-0.1,0.2-0.2c0.1,0,0.1-0.1,0.2-0.1c0.1,0,0.2,0,0.3,0.1c0.1,0.1,0.2,0.1,0.3,0.2c0.1,0.1,0.2,0.1,0.4,0.2
				c0.1,0.1,0.3,0.1,0.6,0.1c0.2,0,0.3,0,0.5-0.1c0.1,0,0.2-0.1,0.3-0.2c0.1-0.1,0.1-0.1,0.2-0.2c0-0.1,0.1-0.2,0.1-0.3
				c0-0.1,0-0.3-0.1-0.4c-0.1-0.1-0.2-0.2-0.3-0.2c-0.1-0.1-0.3-0.1-0.5-0.2c-0.2-0.1-0.4-0.1-0.6-0.2c-0.2-0.1-0.4-0.1-0.6-0.2
				c-0.2-0.1-0.3-0.2-0.5-0.3c-0.1-0.1-0.3-0.3-0.3-0.5c-0.1-0.2-0.1-0.4-0.1-0.7c0-0.3,0.1-0.5,0.1-0.7c0.1-0.2,0.2-0.4,0.4-0.6
				c0.2-0.2,0.4-0.3,0.7-0.4c0.3-0.1,0.6-0.2,1-0.2c0.4,0,0.8,0.1,1.2,0.2c0.3,0.1,0.6,0.3,0.9,0.6L1254.9,892.3z"/>
			<path class="st9" d="M1258.3,889.3c0,0.1,0,0.2-0.1,0.4c-0.1,0.1-0.1,0.2-0.2,0.3c-0.1,0.1-0.2,0.2-0.3,0.2
				c-0.1,0.1-0.2,0.1-0.4,0.1c-0.1,0-0.2,0-0.4-0.1c-0.1,0-0.2-0.1-0.3-0.2c-0.1-0.1-0.2-0.2-0.2-0.3c-0.1-0.1-0.1-0.2-0.1-0.4
				c0-0.1,0-0.3,0.1-0.4c0-0.1,0.1-0.2,0.2-0.3c0.1-0.1,0.2-0.2,0.3-0.2c0.1,0,0.2-0.1,0.4-0.1c0.1,0,0.3,0,0.4,0.1
				c0.1,0.1,0.2,0.1,0.3,0.2c0.1,0.1,0.2,0.2,0.2,0.3C1258.3,889.1,1258.3,889.2,1258.3,889.3z M1258.1,891.1v6.2h-1.5v-6.2H1258.1z
				"/>
			<path class="st9" d="M1261.9,891c0.3,0,0.5,0,0.7,0.1c0.2,0.1,0.4,0.1,0.6,0.2h1.8v0.6c0,0.1,0,0.2-0.1,0.2
				c0,0.1-0.1,0.1-0.2,0.1l-0.6,0.1c0,0.1,0.1,0.2,0.1,0.3c0,0.1,0,0.2,0,0.4c0,0.3-0.1,0.6-0.2,0.8c-0.1,0.2-0.3,0.5-0.5,0.6
				c-0.2,0.2-0.5,0.3-0.8,0.4c-0.3,0.1-0.6,0.1-1,0.1c-0.2,0-0.5,0-0.7-0.1c-0.2,0.1-0.3,0.2-0.3,0.4c0,0.1,0.1,0.2,0.2,0.3
				c0.1,0.1,0.3,0.1,0.5,0.1c0.2,0,0.4,0,0.6,0c0.2,0,0.5,0,0.7,0c0.2,0,0.5,0.1,0.7,0.1c0.2,0.1,0.4,0.1,0.6,0.2
				c0.2,0.1,0.3,0.3,0.5,0.4c0.1,0.2,0.2,0.4,0.2,0.7c0,0.3-0.1,0.5-0.2,0.8c-0.1,0.3-0.3,0.5-0.6,0.7s-0.6,0.4-0.9,0.5
				c-0.4,0.1-0.8,0.2-1.3,0.2c-0.5,0-0.9,0-1.2-0.1c-0.3-0.1-0.6-0.2-0.9-0.4c-0.2-0.1-0.4-0.3-0.5-0.5c-0.1-0.2-0.2-0.4-0.2-0.6
				c0-0.3,0.1-0.5,0.3-0.7c0.2-0.2,0.4-0.4,0.7-0.5c-0.2-0.1-0.3-0.2-0.4-0.3c-0.1-0.1-0.1-0.3-0.1-0.5c0-0.1,0-0.2,0-0.3
				c0-0.1,0.1-0.2,0.1-0.3c0.1-0.1,0.1-0.2,0.2-0.3c0.1-0.1,0.2-0.2,0.4-0.2c-0.3-0.2-0.6-0.4-0.7-0.7c-0.2-0.3-0.3-0.6-0.3-1
				c0-0.3,0.1-0.6,0.2-0.8c0.1-0.2,0.3-0.5,0.5-0.6c0.2-0.2,0.5-0.3,0.8-0.4C1261.2,891.1,1261.5,891,1261.9,891z M1263.5,897.5
				c0-0.1,0-0.2-0.1-0.3c-0.1-0.1-0.2-0.1-0.3-0.2c-0.1,0-0.3-0.1-0.4-0.1c-0.2,0-0.3,0-0.5,0s-0.4,0-0.6,0c-0.2,0-0.4,0-0.6-0.1
				c-0.2,0.1-0.3,0.2-0.4,0.3c-0.1,0.1-0.2,0.3-0.2,0.4c0,0.1,0,0.2,0.1,0.3c0.1,0.1,0.1,0.2,0.3,0.2c0.1,0.1,0.3,0.1,0.5,0.2
				c0.2,0,0.4,0.1,0.7,0.1c0.3,0,0.5,0,0.7-0.1c0.2,0,0.4-0.1,0.5-0.2c0.1-0.1,0.2-0.2,0.3-0.3
				C1263.5,897.8,1263.5,897.7,1263.5,897.5z M1261.9,894.1c0.2,0,0.3,0,0.5-0.1c0.1-0.1,0.2-0.1,0.3-0.2c0.1-0.1,0.2-0.2,0.2-0.3
				c0-0.1,0.1-0.3,0.1-0.4c0-0.3-0.1-0.5-0.3-0.7c-0.2-0.2-0.5-0.3-0.8-0.3s-0.6,0.1-0.8,0.3c-0.2,0.2-0.3,0.4-0.3,0.7
				c0,0.1,0,0.3,0.1,0.4c0,0.1,0.1,0.2,0.2,0.3c0.1,0.1,0.2,0.2,0.3,0.2C1261.5,894,1261.7,894.1,1261.9,894.1z"/>
			<path class="st9" d="M1265.9,897.3v-6.2h0.9c0.2,0,0.3,0.1,0.4,0.3l0.1,0.5c0.1-0.1,0.3-0.2,0.4-0.3c0.1-0.1,0.3-0.2,0.4-0.3
				c0.2-0.1,0.3-0.1,0.5-0.2c0.2,0,0.4-0.1,0.6-0.1c0.3,0,0.6,0.1,0.9,0.2c0.3,0.1,0.5,0.3,0.7,0.5c0.2,0.2,0.3,0.5,0.4,0.7
				c0.1,0.3,0.1,0.6,0.1,0.9v3.9h-1.5v-3.9c0-0.4-0.1-0.7-0.3-0.9c-0.2-0.2-0.4-0.3-0.8-0.3c-0.3,0-0.5,0.1-0.7,0.2
				c-0.2,0.1-0.4,0.3-0.6,0.5v4.4H1265.9z"/>
		</g>
	</g>
</g>
</svg>
