<?xml version="1.0"?>
<svg width="1305.1" height="289.2" xmlns="http://www.w3.org/2000/svg" xmlns:xlink="http://www.w3.org/1999/xlink">
 <style type="text/css">.st0{display:none;}
	.st1{display:inline;fill:#BFE7F7;}
	.st2{fill:url(#SVGID_1_);}
	.st3{fill:url(#SVGID_2_);}
	.st4{fill:#1087AB;}
	.st5{fill:#4EBBA0;}
	.st6{fill:#0D887F;}
	.st7{fill:url(#SVGID_3_);}
	.st8{fill:#7CC68A;}
	.st9{fill:#FFFFFF;}
	.st10{fill:#B3DFD3;}
	.st11{fill:#D7B2D4;}
	.st12{fill:#F9CDB6;}
	.st13{fill:#C9E9EB;}
	.st14{fill:#EFDCEB;}
	.st15{fill:url(#SVGID_4_);}
	.st16{fill:#F1656B;}
	.st17{fill:#E55C2C;}
	.st18{fill:#F0AA2F;}
	.st19{fill:#C74B27;}
	.st20{fill:#F47838;}
	.st21{fill:#CA9FC8;}
	.st22{fill:#42C1C9;}
	.st23{fill:#2D8BCB;}
	.st24{fill:#DE4E58;}
	.st25{fill:#354EA1;}
	.st26{fill:#116877;}
	.st27{fill:#DD9727;}
	.st28{fill:#EE4788;}
	.st29{fill:#EAB39B;}
	.st30{fill:#E61563;}
	.st31{fill:#E5C7E0;}
	.st32{fill:#E9BC3F;}
	.st33{fill:#A2D4D5;}
	.st34{fill:#ED6623;}
	.st35{display:inline;}
	.st36{opacity:0.42;fill:#FFFFFF;}
	.st37{clip-path:url(#SVGID_6_);}
	.st38{clip-path:url(#SVGID_8_);fill:#FFFFFF;}
	.st39{clip-path:url(#SVGID_8_);}
	.st40{fill:#CD6432;}
	.st41{fill:#F17232;}
	.st42{fill:#9ECFEF;}
	.st43{fill:#191817;}
	.st44{font-family:'Lato-Black';}
	.st45{font-size:11.4357px;}
	.st46{font-size:18.7872px;}
	.st47{opacity:0.4;fill:#FFFFFF;}
	.st48{fill:#010101;}
	.st49{clip-path:url(#SVGID_10_);fill:#354EA1;}
	.st50{clip-path:url(#SVGID_10_);}
	.st51{clip-path:url(#SVGID_12_);fill:url(#SVGID_13_);}
	.st52{clip-path:url(#SVGID_12_);}
	.st53{fill:#98D5C5;}
	.st54{fill:#81CCB5;}
	.st55{fill:url(#SVGID_14_);}
	.st56{fill:url(#SVGID_15_);}
	.st57{clip-path:url(#SVGID_17_);fill:#354EA1;}
	.st58{clip-path:url(#SVGID_17_);fill:#8AD0C4;}
	.st59{clip-path:url(#SVGID_17_);fill:#CB95C3;}
	.st60{clip-path:url(#SVGID_17_);fill:#D8B3D5;}
	.st61{clip-path:url(#SVGID_17_);fill:#D1ABD0;}
	.st62{clip-path:url(#SVGID_17_);}
	.st63{clip-path:url(#SVGID_19_);}
	.st64{font-family:'MyriadPro-Semibold';}
	.st65{clip-path:url(#SVGID_21_);}
	.st66{fill:url(#SVGID_22_);}
	.st67{fill:#CB95C3;}
	.st68{fill:#D1ABD0;}
	.st69{clip-path:url(#SVGID_21_);fill:#CD6432;}
	.st70{clip-path:url(#SVGID_21_);fill:#F17232;}
	.st71{font-family:'Lato-BlackItalic';}
	.st72{font-size:29.7911px;}
	.st73{font-size:28.3172px;}
	.st74{display:inline;fill:#83D0D0;}
	.st75{display:inline;fill:#FFFFFF;}</style>
 <g>
  <title>background</title>
  <rect fill="none" id="canvas_background" height="291.2" width="1307.1" y="-1" x="-1"/>
 </g>
 <g>
  <title>Layer 1</title>
  <g class="st0" id="back">
   <rect id="svg_1" height="821.6" width="1305.1" class="st1" y="0" x="-2"/>
  </g>
  <g id="mountains" stroke="null">
   <g id="svg_2" stroke="null">
    <polygon id="svg_3" points="-2.9979 261.177 328.816 268.377 1178.11 290.577 1177.91 264.877 317.581 39.4774 -2.9979 127.677" class="st4" stroke="null"/>
    <polyline id="svg_4" points="1306.3 159.077 1306.1 55.6774 1214.52 49.7774 635.854 144.277" class="st4" stroke="null"/>
    <polyline id="svg_5" points="1306.3 280.977 1306.3 149.177 857.33 31.4774 501.443 103.577" class="st5" stroke="null"/>
    <polyline id="svg_6" points="1306.3 290.577 1306.1 225.277 600.145 51.8774 -2.9979 240.177" class="st6" stroke="null"/>
   </g>
   <g id="svg_7" stroke="null">
    <polygon id="svg_8" points="1188.14 70.577 1188.64 144.877 1204.09 135.977" class="st2" stroke="null"/>
    <polygon id="svg_9" points="1188.14 70.577 1173.19 135.977 1188.64 144.877" class="st8" stroke="null"/>
   </g>
   <circle id="svg_10" r="4.6" cy="104.677726" cx="850.008061" class="st9" stroke="null"/>
   <g id="svg_11" stroke="null">
    <polygon id="svg_12" points="349.178 261.677 794.037 77.777 1306.3 290.577" class="st10" stroke="null"/>
    <polyline id="svg_13" points="-2.9979 290.577 -2.9979 256.777 435.241 86.777 728.035 291.777 306.447 213.977" class="st11" stroke="null"/>
    <polyline id="svg_14" points="-2.9979 290.577 -2.9979 240.177 167.623 114.577 606.163 290.577" class="st12" stroke="null"/>
    <polygon id="svg_15" points="794.037 77.777 1088.84 288.777 1306.1 205.777" class="st13" stroke="null"/>
    <polygon id="svg_16" points="435.241 86.777 513.079 263.877 716.901 263.877" class="st14" stroke="null"/>
   </g>
   <g id="svg_17" stroke="null">
    <polygon id="svg_18" points="1218.93 84.277 1219.54 158.577 1234.88 149.677" class="st3" stroke="null"/>
    <polygon id="svg_19" points="1218.93 84.277 1204.09 149.677 1219.54 158.577" class="st8" stroke="null"/>
   </g>
   <g id="svg_20" stroke="null">
    <path id="svg_21" d="m1073.189941,238.877441c0,0 -129.696289,-25.400024 -205.527893,-28.800049c-74.828613,-3.299988 -149.857849,3.300049 -193.892334,10c-44.034607,6.700012 -489.294861,63.5 -493.106476,65.400024c-3.81163,1.900024 891.122406,0.400024 891.122406,0.400024l1.404297,-47z" class="st16" stroke="null"/>
    <path id="svg_22" d="m-2.99791,290.577393c319.576371,-72.799988 318.071763,-74 857.920945,0l-184.262939,0l-673.658005,0z" class="st17" stroke="null"/>
    <path id="svg_23" d="m521.504517,290.577393c0,0 395.809204,-81.099976 535.536133,-78l248.960571,-6.799988l0.200562,84.799988l-784.697266,0z" class="st18" stroke="null"/>
   </g>
   <g id="svg_24" stroke="null">
    <ellipse id="svg_25" ry="4.2" rx="34.104189" cy="254.077726" cx="323.298947" class="st19" stroke="null"/>
    <g id="svg_26" stroke="null">
     <path id="svg_27" d="m293.507965,253.177429c0,-19.5 13.340759,-35.299988 29.790985,-35.299988c16.450287,0 29.791046,15.799988 29.791046,35.299988" class="st20" stroke="null"/>
    </g>
   </g>
   <g id="svg_28" stroke="null">
    <ellipse id="svg_29" ry="2.7" rx="21.8" cy="157.222418" cx="560.839771" class="st21" transform="matrix(0.948999 -0.340187 0.324993 0.993366 -190 132.503)" stroke="null"/>
    <g id="svg_30" stroke="null">
     <path id="svg_31" d="m375.057068,103.729919c-4.112549,-12.494568 0.702148,-25.409058 10.732788,-28.978882c10.03064,-3.569885 21.365265,3.569824 25.477875,16.064392" class="st22" stroke="null"/>
    </g>
   </g>
   <g id="svg_32" stroke="null">
    <ellipse id="svg_33" ry="30.7" rx="3.7" cy="726.108982" cx="1002.692365" class="st19" transform="matrix(0.113948 -1.04313 0.996545 0.119275 -342.186 1209.3)" stroke="null"/>
    <g id="svg_34" stroke="null">
     <polygon id="svg_35" points="470.148 246.629 501.142 200.746 521.304 252.824" class="st23" stroke="null"/>
    </g>
   </g>
   <g id="svg_36" stroke="null">
    <ellipse id="svg_37" ry="3.7" rx="28.9" cy="242.728874" cx="777.095764" class="st24" transform="matrix(1.00066 -0.0726504 0.0694057 1.04744 -54.2816 17.6595)" stroke="null"/>
    <polygon id="svg_38" points="764.948 213.451 714.594 216.6 723.622 184.052 752.31 182.267" class="st25" stroke="null"/>
   </g>
   <g id="svg_39" stroke="null">
    <ellipse id="svg_40" ry="1.9" rx="14.9" cy="157.764116" cx="182.03203" class="st26" transform="matrix(0.979994 -0.223956 0.213954 1.02581 -139.685 -5.7038)" stroke="null"/>
    <polygon id="svg_41" points="84.8706 112.425 59.3928 117.99 61.6998 100.666 76.2442 97.516" class="st22" stroke="null"/>
   </g>
   <ellipse id="svg_42" ry="5.774771" rx="27.88519" cy="220.695546" cx="1051.122472" class="st27" stroke="null"/>
   <polygon id="svg_43" points="1032.16 221.64 1026.45 190.981 1050.02 173.132 1073.69 190.981 1069.38 221.64" class="st28" stroke="null"/>
   <ellipse id="svg_44" ry="6.2" rx="42.3" cy="265.159139" cx="255.063471" class="st29" transform="matrix(0.968659 -0.272674 0.260496 1.01394 -196.758 22.4516)" stroke="null"/>
   <g id="svg_45" stroke="null">
    <polygon id="svg_46" points="152.377 213.031 142.145 169.352 86.5758 229.935" class="st30" stroke="null"/>
   </g>
   <g id="svg_47" stroke="null">
    <ellipse id="svg_48" ry="21.6" rx="2.8" cy="407.119345" cx="944.197206" class="st31" transform="matrix(0.518685 -0.898659 0.858523 0.542933 -332.433 758.102)" stroke="null"/>
    <g id="svg_49" stroke="null">
     <polygon id="svg_50" points="490.51 120.214 502.847 98.375 524.514 141.213" class="st32" stroke="null"/>
    </g>
   </g>
   <g id="svg_51" stroke="null">
    <ellipse id="svg_52" ry="15.3" rx="1.9" cy="534.583509" cx="1363.431796" class="st33" transform="matrix(0.190281 -1.03085 0.984809 0.199177 77.4509 1388.47)" stroke="null"/>
    <rect id="svg_53" height="22.2" width="10.2" class="st34" transform="matrix(0.19961 -1.02896 0.983003 0.208942 76.4146 1377.91)" y="513.959162" x="1358.683727" stroke="null"/>
   </g>
   <g id="svg_54" stroke="null">
    <ellipse id="svg_56" ry="4.6" rx="4.6" cy="348.058357" cx="1475.615371" class="st9" transform="matrix(0.467428 -0.929003 0.887511 0.489281 26.5546 1241.78)" stroke="null"/>
    <ellipse id="svg_57" ry="4.6" rx="4.6" cy="364.658357" cx="1386.715371" class="st9" transform="matrix(0.467428 -0.929003 0.887511 0.489281 -35.7119 1168.48)" stroke="null"/>
    <ellipse id="svg_58" ry="4.6" rx="4.6" cy="396.758357" cx="1466.115371" class="st9" transform="matrix(0.467428 -0.929003 0.887511 0.489281 -21.7561 1260.28)" stroke="null"/>
    <ellipse id="svg_59" ry="4.6" rx="4.6" cy="303.558357" cx="1428.915371" class="st9" transform="matrix(0.467428 -0.929003 0.887511 0.489281 41.0884 1173.44)" stroke="null"/>
    <ellipse id="svg_60" ry="4.6" rx="4.6" cy="105.736185" cx="1169.821771" class="st9" transform="matrix(0.934254 -0.38229 0.365216 0.977931 -147.756 379.685)" stroke="null"/>
   </g>
   <ellipse id="svg_61" ry="4.6" rx="4.6" cy="355.710773" cx="1173.831652" class="st9" transform="matrix(0.627818 -0.818862 0.78229 0.657169 -239.369 862.226)" stroke="null"/>
   <ellipse id="svg_62" ry="4.6" rx="4.6" cy="422.610773" cx="949.031652" class="st9" transform="matrix(0.627818 -0.818862 0.78229 0.657169 -376.024 704.454)" stroke="null"/>
   <ellipse id="svg_63" ry="4.6" rx="4.6" cy="476.510773" cx="637.031652" class="st9" transform="matrix(0.627818 -0.818862 0.78229 0.657169 -535.268 470.14)" stroke="null"/>
   <ellipse id="svg_64" ry="4.6" rx="4.6" cy="431.310773" cx="602.631652" class="st9" transform="matrix(0.627818 -0.818862 0.78229 0.657169 -512.828 424.205)" stroke="null"/>
   <ellipse id="svg_65" ry="4.6" rx="4.6" cy="289.26036" cx="490.775312" class="st9" transform="matrix(0.627818 -0.818862 0.78229 0.657169 -434.001 281.7)" stroke="null"/>
   <ellipse id="svg_66" ry="4.6" rx="4.6" cy="300.210773" cx="663.131652" class="st9" transform="matrix(0.627818 -0.818862 0.78229 0.657169 -387.563 422.265)" stroke="null"/>
   <ellipse id="svg_67" ry="4.6" rx="4.6" cy="481.910773" cx="1301.431652" class="st9" transform="matrix(0.627818 -0.818862 0.78229 0.657169 -290.226 1016.31)" stroke="null"/>
   <ellipse id="svg_68" ry="4.6" rx="4.6" cy="465.310773" cx="1631.431652" class="st9" transform="matrix(0.627818 -0.818862 0.78229 0.657169 -153.394 1280.07)" stroke="null"/>
   <ellipse id="svg_69" ry="4.6" rx="4.6" cy="481.910773" cx="1670.031652" class="st9" transform="matrix(0.627818 -0.818862 0.78229 0.657169 -151.923 1318.12)" stroke="null"/>
  </g>
  <g class="st0" id="apps">
   <g id="svg_70" class="st35">
    <path id="svg_71" d="m484.200012,435.299988l-206,0c-15.399994,0 -28,-12.600006 -28,-28l0,-206c0,-15.399994 12.600006,-28 28,-28l206,0c15.399994,0 28,12.600006 28,28l0,206c0,15.400024 -12.600006,28 -28,28z" class="st36"/>
    <g id="svg_72">
     <g id="svg_73">
      <g id="svg_74">
       <defs>
        <circle r="48.8" cy="245.4" cx="383.2" id="SVGID_5_"/>
        <linearGradient y2="0.499986" x2="0.999992" y1="0.499986" x1="0.000007" id="SVGID_10_">
         <stop stop-color="#396452" offset="0"/>
         <stop stop-color="#0F697F" offset="0.3571"/>
         <stop stop-color="#85CCAA" offset="1"/>
        </linearGradient>
        <linearGradient y2="0.902422" x2="-0.748893" y1="0.156875" x1="1.267901" id="SVGID_12_">
         <stop stop-color="#75CBC8" offset="0"/>
         <stop stop-color="#3C67A8" offset="1"/>
        </linearGradient>
        <linearGradient y2="0.413472" x2="0.993719" y1="0.58872" x1="0.007394" id="SVGID_13_">
         <stop stop-color="#FFFFFF" offset="0"/>
         <stop stop-color="#D2EDF3" offset="0.5714"/>
         <stop stop-color="#BAD1ED" offset="1"/>
        </linearGradient>
        <linearGradient y2="0.5001" x2="1.000034" y1="0.5001" x1="-0.000055" id="SVGID_19_">
         <stop stop-color="#396452" offset="0"/>
         <stop stop-color="#0F697F" offset="0.3571"/>
         <stop stop-color="#85CCAA" offset="1"/>
        </linearGradient>
       </defs>
       <clipPath id="SVGID_3_">
        <use id="svg_75" xlink:href="#SVGID_5_" y="0" x="-2"/>
       </clipPath>
       <g id="svg_76" clip-path="url(#SVGID_3_)">
        <defs>
         <circle r="55.2" cy="244.5" cx="383.5" id="SVGID_7_"/>
        </defs>
        <use id="svg_77" fill="#415DAA" xlink:href="#SVGID_7_" y="0" x="-2"/>
        <clipPath id="SVGID_4_">
         <use id="svg_78" xlink:href="#SVGID_7_" y="0" x="-2"/>
        </clipPath>
        <circle id="svg_79" clip-path="url(#SVGID_4_)" fill="#FFFFFF" r="5.9" cy="221.7" cx="362.1"/>
        <circle id="svg_80" clip-path="url(#SVGID_4_)" fill="#FFFFFF" r="5.9" cy="214.9" cx="389"/>
        <circle id="svg_81" clip-path="url(#SVGID_4_)" fill="#FFFFFF" r="5.9" cy="243.7" cx="381.2"/>
        <g id="svg_82" clip-path="url(#SVGID_4_)">
         <circle id="svg_83" r="1" cy="267.8" cx="368.5" class="st9"/>
         <circle id="svg_84" r="1" cy="274.8" cx="336.3" class="st9"/>
         <circle id="svg_85" r="1" cy="264.3" cx="425.7" class="st9"/>
         <path id="svg_86" d="m455.100006,270.299988c0,0 -29.199982,-12.700012 -46.299988,-14.399994c-16.899994,-1.699997 -33.800018,1.699982 -43.700012,5c-9.899994,3.299988 -110.300018,31.699982 -111.199997,32.699982c-0.899994,1 200.899979,0.200012 200.899979,0.200012l0.300018,-23.5z" class="st40"/>
         <g id="svg_87">
          <polygon id="svg_88" points="315.3 288.8 324.1 274.6 332 289.4" class="st23"/>
         </g>
         <circle id="svg_89" r="1" cy="273.7" cx="413.9" class="st9"/>
         <circle id="svg_90" r="1" cy="237.7" cx="435.6" class="st9"/>
         <circle id="svg_91" r="1" cy="263.5" cx="262.2" class="st9"/>
         <circle id="svg_92" r="1" cy="241.7" cx="242.1" class="st9"/>
         <circle id="svg_93" r="1" cy="282.6" cx="237" class="st9"/>
         <circle id="svg_94" r="1" cy="262.7" cx="223.3" class="st9"/>
         <path id="svg_95" d="m212.5,294c0,0 72.100006,-12.399994 193.399994,0.200012l-41.600006,-0.200012l-151.799988,0z" class="st17"/>
         <path id="svg_96" d="m196.399994,303.399994c0,0 191.5,-37.800018 259.399994,-36.300018l7.700012,0l-0.700012,35.700012l-266.399994,0.600006z" class="st41"/>
         <g id="svg_97">
          <path id="svg_98" d="m347.700012,271.600006c-1.200012,-8.799988 3.799988,-16.800003 11.200012,-17.899994c7.399994,-1 14.399994,5.299988 15.699982,14.100006" class="st42"/>
         </g>
         <g id="svg_99">
          <polygon id="svg_100" points="412.8 271.3 390.3 272.7 394.3 258.8 407.2 258" class="st25"/>
         </g>
         <g id="svg_101">
          <polygon id="svg_102" points="431 282.6 429.3 274.2 436.2 269.2 443 274.2 441.7 282.6" class="st28"/>
         </g>
        </g>
       </g>
      </g>
      <g id="svg_103">
       <path id="svg_104" d="m381.200012,296.700012c-28.299988,0 -51.299988,-23 -51.299988,-51.300003c0,-28.300003 23,-51.300003 51.299988,-51.300003c28.299988,0 51.299988,23 51.299988,51.300003c0,28.300003 -23,51.300003 -51.299988,51.300003zm0,-97.700012c-25.600006,0 -46.399994,20.800003 -46.399994,46.399994c0,25.600006 20.799988,46.399994 46.399994,46.399994c25.600006,0 46.399994,-20.799988 46.399994,-46.399994c0,-25.599991 -20.800018,-46.399994 -46.399994,-46.399994z" class="st9"/>
      </g>
      <text id="svg_105" class="st43 st44 st45" transform="matrix(1 0 0 1 334.763 323.551)" y="0" x="-2">Benjamin Britten&#8217;s</text>
      <text id="svg_106" transform="matrix(1 0 0 1 297.618 346.456)" y="0" x="-2">
       <tspan id="svg_107" class="st43 st44 st46" y="0" x="0">The Young Person&#8217;s</tspan>
       <tspan id="svg_108" class="st43 st44 st46" y="19.6" x="-12.1">Guide to the Orchestra</tspan>
      </text>
     </g>
    </g>
   </g>
   <g id="svg_109" class="st35">
    <path id="svg_110" d="m432.5,398.600006c0,8.200012 -6.700012,14.899994 -14.899994,14.899994l-66.399994,0c-8.200012,0 -14.900024,-6.699982 -14.900024,-14.899994l0,0c0,-8.199982 6.700012,-14.899994 14.900024,-14.899994l66.399994,0c8.199982,0 14.899994,6.699982 14.899994,14.899994l0,0z" class="st47"/>
    <g id="svg_111">
     <path id="svg_112" d="m373.899994,399.5l0,2.399994l-1.700012,0l0,-7.199982l2.5,0c0.5,0 0.899994,0.099976 1.300018,0.199982c0.399994,0.100006 0.699982,0.300018 0.899994,0.5c0.199982,0.200012 0.399994,0.5 0.5,0.700012c0.100006,0.299988 0.199982,0.600006 0.199982,0.899994c0,0.399994 -0.099976,0.700012 -0.199982,1c-0.100006,0.299988 -0.300018,0.600006 -0.5,0.799988c-0.200012,0.200012 -0.5,0.400024 -0.899994,0.5c-0.400024,0.100006 -0.800018,0.200012 -1.300018,0.200012l-0.799988,0zm0,-1.200012l0.899994,0c0.399994,0 0.700012,-0.100006 0.899994,-0.299988c0.200012,-0.200012 0.300018,-0.5 0.300018,-0.900024c0,-0.199982 0,-0.299988 -0.100006,-0.5c0,-0.099976 -0.100006,-0.299988 -0.200012,-0.299988c-0.100006,-0.100006 -0.199982,-0.200012 -0.399994,-0.200012c-0.200012,-0.099976 -0.299988,-0.099976 -0.5,-0.099976l-0.899994,0l0,2.299988z" class="st48"/>
     <path id="svg_113" d="m382.200012,400.600006l2.700012,0l0,1.300018l-4.300018,0l0,-7.200012l1.700012,0l0,5.899994l-0.100006,0z" class="st48"/>
     <path id="svg_114" d="m394.399994,402l-1.300018,0c-0.099976,0 -0.299988,0 -0.399994,-0.100006c-0.100006,-0.100006 -0.199982,-0.199982 -0.199982,-0.299988l-0.400024,-1.300018l-2.699982,0l-0.399994,1.300018c0,0.100006 -0.100006,0.199982 -0.200012,0.199982c-0.100006,0.100006 -0.200012,0.100006 -0.399994,0.100006l-1.300018,0l2.800018,-7.199982l1.699982,0l2.800018,7.299988zm-4.699982,-2.799988l2,0l-0.700012,-2c0,-0.100006 -0.099976,-0.299988 -0.199982,-0.399994c-0.100006,-0.200012 -0.100006,-0.399994 -0.200012,-0.600006c-0.100006,0.200012 -0.100006,0.399994 -0.199982,0.600006c-0.100006,0.199982 -0.100006,0.299988 -0.200012,0.399994l-0.5,2z" class="st48"/>
     <path id="svg_115" d="m399.5,399.200012l0,2.700012l-1.700012,0l0,-2.700012l-2.599976,-4.5l1.5,0c0.099976,0 0.299988,0 0.299988,0.100006c0.100006,0.100006 0.200012,0.199982 0.200012,0.299988l1,2.100006c0.099976,0.200012 0.199982,0.299988 0.199982,0.5c0.100006,0.100006 0.100006,0.299988 0.200012,0.399994c0,-0.100006 0.100006,-0.299988 0.199982,-0.399994c0.100006,-0.100006 0.100006,-0.299988 0.200012,-0.5l1,-2.100006c0,0 0,-0.100006 0.100006,-0.100006c0,0 0.100006,-0.099976 0.100006,-0.099976c0,0 0.099976,-0.100006 0.199982,-0.100006c0.100006,0 0.100006,0 0.200012,0l1.5,0l-2.600006,4.399994z" class="st48"/>
     <path id="svg_116" d="m405,401.200012c0,-0.100006 0,-0.200012 0.100006,-0.299988c0,-0.100006 0.100006,-0.200012 0.199982,-0.300018c0.100006,-0.100006 0.200012,-0.100006 0.300018,-0.199982c0.100006,0 0.199982,-0.100006 0.299988,-0.100006c0.100006,0 0.200012,0 0.300018,0.100006c0.099976,0 0.199982,0.099976 0.299988,0.199982c0.100006,0.100006 0.100006,0.200012 0.200012,0.300018c0,0.099976 0.099976,0.199982 0.099976,0.299988c0,0.100006 0,0.200012 -0.099976,0.299988c0,0.100006 -0.100006,0.200012 -0.200012,0.300018c-0.100006,0.100006 -0.200012,0.100006 -0.299988,0.199982c-0.100006,0 -0.200012,0.100006 -0.300018,0.100006c-0.100006,0 -0.199982,0 -0.299988,-0.100006c-0.100006,0 -0.200012,-0.099976 -0.300018,-0.199982c-0.099976,-0.100006 -0.099976,-0.200012 -0.199982,-0.300018c-0.100006,-0.100006 -0.100006,-0.200012 -0.100006,-0.299988zm1.600006,-6.5l0,2.799988c0,0.300018 0,0.600006 -0.100006,0.900024c0,0.299988 -0.099976,0.599976 -0.099976,0.899994l-1,0c-0.100006,-0.300018 -0.100006,-0.600006 -0.100006,-0.899994c0,-0.300018 -0.100006,-0.600006 -0.100006,-0.900024l0,-2.799988l1.399994,0z" class="st48"/>
    </g>
    <g id="svg_117">
     <circle id="svg_118" r="10" cy="398.8" cx="353.1" class="st9"/>
     <path id="svg_119" d="m348.600006,395.200012c0,-0.899994 0.600006,-1.200012 1.300018,-0.799988l6.199982,3.599976c0.700012,0.400024 0.700012,1.100006 0,1.5l-6.199982,3.600006c-0.700012,0.399994 -1.300018,0.100006 -1.300018,-0.799988l0,-7.100006z" class="st48"/>
    </g>
   </g>
   <g id="svg_120" class="st35">
    <path id="svg_121" d="m759.299988,436.100006l-206,0c-15.400024,0 -28,-12.600006 -28,-28l0,-206c0,-15.399994 12.599976,-28 28,-28l206,0c15.400024,0 28,12.600006 28,28l0,206c0,15.399994 -12.599976,28 -28,28z" class="st36"/>
    <g id="svg_122">
     <g id="svg_123">
      <g id="svg_124">
       <g id="svg_125">
        <defs>
         <circle r="49.3" cy="246.2" cx="658.3" id="SVGID_9_"/>
        </defs>
        <clipPath id="SVGID_6_">
         <use id="svg_126" xlink:href="#SVGID_9_" y="0" x="-2"/>
        </clipPath>
        <ellipse id="svg_127" clip-path="url(#SVGID_6_)" fill="#354EA1" ry="55.9" rx="55.9" cy="245.5" cx="655.6"/>
        <g id="svg_128" class="st37">
         <defs>
          <ellipse ry="55.9" rx="55.9" cy="245.5" cx="657.6" id="SVGID_11_"/>
         </defs>
         <clipPath id="SVGID_8_">
          <use id="svg_129" xlink:href="#SVGID_11_" y="0" x="-2"/>
         </clipPath>
         <polyline id="svg_130" clip-path="url(#SVGID_8_)" fill="url(#SVGID_10_)" points="1306.8 436.6 659.4 270.4 19.9 434.6"/>
         <g id="svg_131" class="st39">
          <polygon id="svg_132" points="649.1 250.7 649.5 301.9 660.1 295.8" class="st53"/>
          <polygon id="svg_133" points="649.1 250.7 638.9 295.8 649.9 301.9" class="st54"/>
          <polygon id="svg_134" fill="url(#SVGID_12_)" points="632.4 255.6 632.7 297.3 641.3 292.3"/>
          <polygon id="svg_135" points="632.4 255.6 624.1 292.3 632.7 297.3" class="st8"/>
         </g>
         <g id="svg_136" class="st39">
          <circle id="svg_137" fill="url(#SVGID_13_)" r="22.1" cy="228.4" cx="680.5"/>
          <ellipse id="svg_138" ry="1.9" rx="1.9" cy="246.66092" cx="722.654084" class="st9" transform="matrix(0.573 -0.8196 0.8196 0.573 105.602 699.191)"/>
          <ellipse id="svg_139" ry="5.5" rx="5.5" cy="262.760375" cx="675.954922" class="st9" transform="matrix(0.5726 -0.8199 0.8199 0.5726 72.6558 668.093)"/>
          <ellipse id="svg_140" ry="5.5" rx="5.5" cy="221.360375" cx="645.154922" class="st9" transform="matrix(0.5726 -0.8199 0.8199 0.5726 93.4575 625.214)"/>
          <path id="svg_141" d="m632.799988,243.100006c-1.700012,2.5 -5.099976,3.100006 -7.599976,1.400009c-2.5,-1.700012 -3.100037,-5.100006 -1.400024,-7.600006c1.700012,-2.5 5.099976,-3.100006 7.599976,-1.399994c2.500061,1.699982 3.100037,5.099991 1.400024,7.599991z" class="st9"/>
          <ellipse id="svg_142" ry="1.9" rx="1.9" cy="192.060425" cx="643.754478" class="st9" transform="matrix(0.5727 -0.8197 0.8197 0.5727 116.773 611.373)"/>
         </g>
        </g>
       </g>
       <g id="svg_143">
        <path id="svg_144" d="m656.299988,297.399994c-28.299988,0 -51.299988,-23 -51.299988,-51.300003c0,-28.299988 23,-51.299988 51.299988,-51.299988c28.299988,0 51.299988,23 51.299988,51.299988c0,28.300003 -23,51.300003 -51.299988,51.300003zm0,-98.5c-26.099976,0 -47.299988,21.199997 -47.299988,47.300003c0,26.099991 21.200012,47.300003 47.299988,47.300003c26.099976,0 47.299988,-21.200012 47.299988,-47.300003c0,-26.099991 -21.199951,-47.300003 -47.299988,-47.300003z" class="st9"/>
       </g>
      </g>
      <text id="svg_145" class="st43 st44 st45" transform="matrix(1 0 0 1 605.668 320.798)" y="0" x="-2">Felix Mendelssohn&#8217;s</text>
      <text id="svg_146" transform="matrix(1 0 0 1 596.059 340.432)" y="0" x="-2">
       <tspan id="svg_147" class="st43 st44 st46" y="0" x="0">A Midsummer</tspan>
       <tspan id="svg_148" class="st43 st44 st46" y="19.6" x="-1.5">Night&#8217;s Dream:</tspan>
       <tspan id="svg_149" class="st43 st44 st46" y="39.2" x="-28">Music of Two Worlds</tspan>
      </text>
     </g>
    </g>
   </g>
   <g id="svg_150" class="st35">
    <path id="svg_151" d="m707.700012,399.399994c0,8.199982 -6.700012,14.899994 -14.900024,14.899994l-66.399963,0c-8.200012,0 -14.900024,-6.700012 -14.900024,-14.899994l0,0c0,-8.200012 6.700012,-14.899994 14.900024,-14.899994l66.399963,0c8.200012,0 14.900024,6.700012 14.900024,14.899994l0,0z" class="st47"/>
    <g id="svg_152">
     <path id="svg_153" d="m649.099976,400.299988l0,2.399994l-1.700012,0l0,-7.199982l2.5,0c0.5,0 0.900024,0.099976 1.299988,0.199982c0.400024,0.100006 0.700012,0.300018 0.900024,0.5c0.200012,0.200012 0.400024,0.5 0.5,0.700012c0.099976,0.299988 0.200012,0.600006 0.200012,0.899994c0,0.399994 -0.100037,0.700012 -0.200012,1c-0.099976,0.299988 -0.299988,0.600006 -0.5,0.799988c-0.200012,0.200012 -0.5,0.400024 -0.900024,0.5c-0.399963,0.100006 -0.799988,0.200012 -1.299988,0.200012l-0.799988,0zm0,-1.299988l0.900024,0c0.399963,0 0.699951,-0.100006 0.899963,-0.299988c0.200012,-0.200012 0.299988,-0.5 0.299988,-0.900024c0,-0.199982 0,-0.299988 -0.099976,-0.399994c0,-0.100006 -0.099976,-0.299988 -0.200012,-0.299988c-0.099976,-0.100006 -0.200012,-0.200012 -0.399963,-0.200012c-0.200012,-0.100006 -0.300049,-0.100006 -0.5,-0.100006l-0.900024,0l0,2.200012z" class="st48"/>
     <path id="svg_154" d="m657.400024,401.399994l2.700012,0l0,1.299988l-4.299988,0l0,-7.199982l1.699951,0l0,5.899994l-0.099976,0z" class="st48"/>
     <path id="svg_155" d="m669.5,402.700012l-1.299988,0c-0.100037,0 -0.299988,0 -0.400024,-0.100006c-0.099976,-0.100006 -0.200012,-0.199982 -0.200012,-0.299988l-0.399963,-1.300018l-2.700012,0l-0.400024,1.300018c0,0.100006 -0.099976,0.199982 -0.199951,0.199982c-0.100037,0.100006 -0.200012,0.100006 -0.400024,0.100006l-1.299988,0l2.799988,-7.199982l1.700012,0l2.799988,7.299988zm-4.599976,-2.700012l2,0l-0.700012,-2c0,-0.100006 -0.099976,-0.299988 -0.200012,-0.399994c-0.099976,-0.200012 -0.099976,-0.399994 -0.199951,-0.600006c-0.100037,0.200012 -0.100037,0.399994 -0.200012,0.600006c-0.100037,0.199982 -0.100037,0.299988 -0.200012,0.399994l-0.5,2z" class="st48"/>
     <path id="svg_156" d="m674.700012,400l0,2.700012l-1.700012,0l0,-2.700012l-2.599976,-4.5l1.5,0c0.099976,0 0.299988,0 0.299988,0.100006c0.099976,0.100006 0.200012,0.199982 0.200012,0.299988l1,2.100006c0.099976,0.200012 0.199951,0.299988 0.199951,0.5c0.100037,0.100006 0.100037,0.299988 0.200012,0.399994c0,-0.100006 0.100037,-0.299988 0.200012,-0.399994c0.099976,-0.100006 0.099976,-0.299988 0.200012,-0.5l1,-2.100006c0,0 0,-0.100006 0.099976,-0.100006c0,0 0.100037,-0.099976 0.100037,-0.099976c0,0 0.099976,-0.100006 0.199951,-0.100006c0.100037,0 0.100037,0 0.200012,0l1.5,0l-2.599976,4.399994z" class="st48"/>
     <path id="svg_157" d="m680.200012,401.899994c0,-0.100006 0,-0.200012 0.099976,-0.300018c0,-0.099976 0.100037,-0.199982 0.200012,-0.299988c0.100037,-0.100006 0.200012,-0.100006 0.299988,-0.200012c0.100037,0 0.200012,-0.099976 0.300049,-0.099976c0.099976,0 0.199951,0 0.299988,0.099976c0.099976,0 0.200012,0.100006 0.299988,0.200012c0.099976,0.100006 0.099976,0.200012 0.200012,0.299988c0,0.100006 0.099976,0.200012 0.099976,0.300018c0,0.100006 0,0.199982 -0.099976,0.299988c0,0.100006 -0.100037,0.200012 -0.200012,0.300018c-0.099976,0.099976 -0.200012,0.099976 -0.299988,0.199982c-0.100037,0 -0.200012,0.100006 -0.299988,0.100006c-0.100037,0 -0.200012,0 -0.300049,-0.100006c-0.099976,0 -0.199951,-0.100006 -0.299988,-0.199982c-0.099976,-0.100006 -0.099976,-0.200012 -0.200012,-0.300018c-0.099976,0.000031 -0.099976,-0.099976 -0.099976,-0.299988zm1.599976,-6.399994l0,2.799988c0,0.300018 0,0.600006 -0.099976,0.900024c0,0.299988 -0.100037,0.599976 -0.100037,0.899994l-1,0c-0.099976,-0.300018 -0.099976,-0.600006 -0.099976,-0.899994c0,-0.300018 -0.100037,-0.600006 -0.100037,-0.900024l0,-2.799988l1.400024,0z" class="st48"/>
    </g>
    <g id="svg_158">
     <circle id="svg_159" r="10" cy="399.6" cx="628.2" class="st9"/>
     <path id="svg_160" d="m623.799988,396c0,-0.899994 0.599976,-1.200012 1.299988,-0.799988l6.200012,3.599976c0.700012,0.400024 0.700012,1.100006 0,1.5l-6.200012,3.600006c-0.700012,0.399994 -1.299988,0.100006 -1.299988,-0.799988l0,-7.100006z" class="st48"/>
    </g>
   </g>
   <g id="svg_161" class="st35">
    <path id="svg_162" d="m1034.400024,436.899994l-206,0c-15.400024,0 -28,-12.600006 -28,-28l0,-206c0,-15.400009 12.599976,-28 28,-28l206,0c15.400024,0 28,12.599991 28,28l0,206c0,15.399994 -12.599976,28 -28,28z" class="st36"/>
    <g id="svg_163">
     <g id="svg_164">
      <g id="svg_165">
       <defs>
        <circle r="49.3" cy="246.9" cx="933.4" id="SVGID_16_"/>
       </defs>
       <clipPath id="SVGID_14_">
        <use id="svg_166" xlink:href="#SVGID_16_" y="0" x="-2"/>
       </clipPath>
       <ellipse id="svg_167" clip-path="url(#SVGID_14_)" fill="#354EA1" ry="55.9" rx="55.9" cy="246.3" cx="930.7"/>
       <polygon id="svg_168" clip-path="url(#SVGID_14_)" fill="#8AD0C4" points="866.1 310.1 971.1 241.8 1120 328.8"/>
       <polyline id="svg_169" clip-path="url(#SVGID_14_)" fill="#CB95C3" points="766.4 303.4 906.1 234 970 304.3 862.5 303.4"/>
       <polygon id="svg_170" clip-path="url(#SVGID_14_)" fill="#D8B3D5" points="906.1 234 923.8 304.3 1002.6 296.2"/>
       <ellipse id="svg_171" clip-path="url(#SVGID_14_)" fill="#D1ABD0" ry="23" rx="2.6" cy="283.45286" cx="950.032942" transform="matrix(0.3835 -0.9235 0.9235 0.3835 322.688 1053.94)"/>
       <g id="svg_172" clip-path="url(#SVGID_14_)">
        <polyline id="svg_173" points="931.2 277.2 959 262.5 967.4 292.8" class="st30"/>
       </g>
       <g id="svg_174" clip-path="url(#SVGID_14_)">
        <defs>
         <ellipse ry="55.9" rx="55.9" cy="246.3" cx="932.7" id="SVGID_18_"/>
        </defs>
        <clipPath id="SVGID_15_">
         <use id="svg_175" xlink:href="#SVGID_18_" y="0" x="-2"/>
        </clipPath>
        <g id="svg_176" clip-path="url(#SVGID_15_)">
         <ellipse id="svg_177" ry="1.9" rx="1.9" cy="237.760613" cx="1003.154409" class="st9" transform="matrix(0.5728 -0.8197 0.8197 0.5728 232.822 925.524)"/>
         <ellipse id="svg_178" ry="5.5" rx="5.5" cy="235.860187" cx="937.754991" class="st9" transform="matrix(0.5725 -0.8199 0.8199 0.5725 206.64 871.293)"/>
         <ellipse id="svg_179" ry="5.5" rx="5.5" cy="212.460187" cx="925.754991" class="st9" transform="matrix(0.5725 -0.8199 0.8199 0.5725 220.661 851.476)"/>
         <path id="svg_180" d="m961,224.600006c-1.700012,2.5 -5.099976,3.100006 -7.599976,1.400009c-2.5,-1.700012 -3.100037,-5.100006 -1.400024,-7.600006c1.700012,-2.5 5.099976,-3.100006 7.599976,-1.399994c2.5,1.699982 3.100037,5.099991 1.400024,7.599991z" class="st9"/>
         <ellipse id="svg_181" ry="1.9" rx="1.9" cy="183.160425" cx="924.254478" class="st9" transform="matrix(0.5727 -0.8197 0.8197 0.5727 243.898 837.567)"/>
        </g>
       </g>
      </g>
      <g id="svg_182">
       <path id="svg_183" d="m931.400024,298.200012c-28.299988,0 -51.299988,-23 -51.299988,-51.300003c0,-28.300003 23,-51.300003 51.299988,-51.300003c28.299988,0 51.299988,23 51.299988,51.300003c0,28.300003 -23,51.300003 -51.299988,51.300003zm0,-98.600006c-26.099976,0 -47.299988,21.199997 -47.299988,47.300003c0,26.099991 21.200012,47.300003 47.299988,47.300003c26.099976,0 47.299988,-21.200012 47.299988,-47.300003c0,-26.100006 -21.200012,-47.300003 -47.299988,-47.300003z" class="st9"/>
      </g>
     </g>
     <text id="svg_184" transform="matrix(1 0 0 1 887.884 327.377)" y="0" x="-2">
      <tspan id="svg_185" class="st43 st44 st45" y="0" x="0">Anton&#237;n Dvo</tspan>
      <tspan id="svg_186" class="st43 st64 st45" y="0" x="66.4">&#345;</tspan>
      <tspan id="svg_187" class="st43 st44 st45" y="0" x="70.5">&#225;k&#8217;s</tspan>
     </text>
     <text id="svg_188" transform="matrix(1 0 0 1 882.393 347.625)" y="0" x="-2">
      <tspan id="svg_189" class="st43 st44 st46" y="0" x="0">New World</tspan>
      <tspan id="svg_190" class="st43 st44 st46" y="19.6" x="5.6">Symphony</tspan>
     </text>
    </g>
   </g>
   <g id="svg_191" class="st35">
    <path id="svg_192" d="m980.900024,400.200012c0,8.200012 -6.700012,14.899994 -14.900024,14.899994l-66.399963,0c-8.200012,0 -14.900024,-6.699982 -14.900024,-14.899994l0,0c0,-8.200012 6.700012,-14.899994 14.900024,-14.899994l66.399963,0c8.200012,-0.000031 14.900024,6.599976 14.900024,14.899994l0,0z" class="st47"/>
    <g id="svg_193">
     <path id="svg_194" d="m922.299988,401.100006l0,2.399994l-1.700012,0l0,-7.199982l2.5,0c0.5,0 0.900024,0.100006 1.299988,0.199982c0.400024,0.100006 0.700012,0.300018 0.900024,0.5c0.200012,0.200012 0.400024,0.5 0.5,0.700012c0.099976,0.299988 0.200012,0.600006 0.200012,0.899994c0,0.399994 -0.100037,0.700012 -0.200012,1c-0.099976,0.300018 -0.299988,0.600006 -0.5,0.800018c-0.200012,0.199982 -0.5,0.399994 -0.900024,0.5c-0.399963,0.099976 -0.799988,0.199982 -1.299988,0.199982l-0.799988,0zm0,-1.300018l0.900024,0c0.399963,0 0.699951,-0.100006 0.899963,-0.299988c0.200012,-0.200012 0.299988,-0.5 0.299988,-0.900024c0,-0.199982 0,-0.299988 -0.099976,-0.5c0,-0.099976 -0.099976,-0.299988 -0.200012,-0.299988c-0.099976,-0.100006 -0.200012,-0.200012 -0.399963,-0.200012c-0.200012,-0.099976 -0.300049,-0.099976 -0.5,-0.099976l-0.900024,0l0,2.299988z" class="st48"/>
     <path id="svg_195" d="m930.599976,402.200012l2.700012,0l0,1.299988l-4.299988,0l0,-7.199982l1.700012,0l0,5.899994l-0.100037,0z" class="st48"/>
     <path id="svg_196" d="m942.799988,403.5l-1.299988,0c-0.100037,0 -0.299988,0 -0.400024,-0.100006c-0.099976,-0.100006 -0.200012,-0.199982 -0.200012,-0.299988l-0.399963,-1.300018l-2.700012,0l-0.400024,1.300018c0,0.100006 -0.099976,0.199982 -0.199951,0.199982c-0.100037,0.100006 -0.200012,0.100006 -0.400024,0.100006l-1.299988,0l2.799988,-7.199982l1.700012,0l2.799988,7.299988zm-4.700012,-2.799988l2,0l-0.700012,-2c0,-0.100006 -0.099976,-0.299988 -0.200012,-0.399994c-0.099976,-0.200012 -0.099976,-0.399994 -0.199951,-0.600006c-0.100037,0.200012 -0.100037,0.399994 -0.200012,0.600006c-0.100037,0.199982 -0.100037,0.299988 -0.200012,0.399994l-0.5,2z" class="st48"/>
     <path id="svg_197" d="m947.900024,400.700012l0,2.700012l-1.700012,0l0,-2.700012l-2.599976,-4.5l1.5,0c0.099976,0 0.299988,0 0.299988,0.100006c0.099976,0.100006 0.200012,0.199982 0.200012,0.299988l1,2.100006c0.099976,0.200012 0.200012,0.299988 0.200012,0.5c0.099976,0.100006 0.099976,0.299988 0.199951,0.399994c0,-0.100006 0.100037,-0.299988 0.200012,-0.399994c0.100037,-0.100006 0.100037,-0.299988 0.200012,-0.5l1,-2.100006c0,0 0,-0.100006 0.099976,-0.100006c0,0 0.100037,-0.099976 0.100037,-0.099976c0,0 0.099976,-0.100006 0.200012,-0.100006c0.099976,0 0.099976,0 0.199951,0l1.5,0l-2.599976,4.399994z" class="st48"/>
     <path id="svg_198" d="m953.400024,402.700012c0,-0.100006 0,-0.200012 0.099976,-0.299988c0,-0.100006 0.100037,-0.200012 0.200012,-0.300018c0.100037,-0.100006 0.200012,-0.100006 0.299988,-0.199982c0.100037,0 0.200012,-0.100006 0.300049,-0.100006c0.099976,0 0.199951,0 0.299988,0.100006c0.099976,0 0.200012,0.099976 0.299988,0.199982c0.099976,0.100006 0.099976,0.200012 0.200012,0.300018c0,0.099976 0.099976,0.199982 0.099976,0.299988c0,0.100006 0,0.200012 -0.099976,0.299988c0,0.100006 -0.100037,0.200012 -0.200012,0.300018c-0.099976,0.100006 -0.200012,0.100006 -0.299988,0.199982c-0.100037,0 -0.200012,0.100006 -0.299988,0.100006c-0.100037,0 -0.200012,0 -0.300049,-0.100006c-0.099976,0 -0.199951,-0.099976 -0.299988,-0.199982c-0.099976,-0.100006 -0.099976,-0.200012 -0.200012,-0.300018c-0.099976,-0.100006 -0.099976,-0.200012 -0.099976,-0.299988zm1.599976,-6.400024l0,2.799988c0,0.300018 0,0.600006 -0.099976,0.900024c0,0.299988 -0.100037,0.599976 -0.100037,0.899994l-1,0c-0.099976,-0.300018 -0.099976,-0.600006 -0.099976,-0.899994c0,-0.300018 -0.100037,-0.600006 -0.100037,-0.900024l0,-2.799988l1.400024,0z" class="st48"/>
    </g>
    <g id="svg_199">
     <circle id="svg_200" r="10" cy="400.4" cx="901.5" class="st9"/>
     <path id="svg_201" d="m897,396.799988c0,-0.899994 0.599976,-1.200012 1.299988,-0.799988l6.200012,3.599976c0.700012,0.400024 0.700012,1.100006 0,1.5l-6.200012,3.600006c-0.700012,0.399994 -1.299988,0.100006 -1.299988,-0.799988l0,-7.100006z" class="st48"/>
    </g>
   </g>
  </g>
  <g class="st0" id="logo">
   <g id="svg_202" class="st35">
    <circle id="svg_203" r="36.299999" cy="61.1" cx="72" class="st9"/>
    <g id="svg_204">
     <defs>
      <circle r="31.1" cy="61.1" cx="74" id="SVGID_20_"/>
     </defs>
     <use id="svg_205" fill="#BFE7F7" xlink:href="#SVGID_20_" y="0" x="-2"/>
     <clipPath id="SVGID_17_">
      <use id="svg_206" xlink:href="#SVGID_20_" y="0" x="-2"/>
     </clipPath>
     <g id="svg_207" class="st62">
      <circle id="svg_208" r="0.7" cy="63.2" cx="107.1" class="st9"/>
      <polyline id="svg_209" fill="url(#SVGID_19_)" points="479 148.1 66.1 42 -345.8 153.5"/>
      <polyline id="svg_210" points="488.7 160.1 75.8 54 -336.2 165.5" class="st67"/>
      <circle id="svg_211" r="0.7" cy="82.4" cx="64.3" class="st9"/>
      <circle id="svg_212" r="0.7" cy="86.8" cx="43.8" class="st9"/>
      <circle id="svg_213" r="0.7" cy="80.2" cx="100.8" class="st9"/>
      <polygon id="svg_214" points="30.3 95.8 36 86.7 41 96.2" class="st23"/>
      <circle id="svg_215" r="0.7" cy="86.1" cx="93.2" class="st9"/>
      <path id="svg_216" d="m-35.200001,99.099998c0,0 46.000001,-7.900002 123.299992,0.099998l-26.5,-0.099998l-96.799992,0z" class="st17"/>
      <polygon id="svg_217" points="104.1 91.8 103.1 86.4 107.4 83.3 111.8 86.4 111 91.8" class="st28"/>
      <path id="svg_218" d="m88.599998,116.900002c-7.5,-3.099998 -13.199997,-6.300003 -12.900002,-7.200005" class="st68"/>
      <g id="svg_219">
       <polyline id="svg_220" points="78.1 110.2 95.8 100.8 101.1 120.2" class="st30"/>
      </g>
     </g>
     <path id="svg_221" clip-path="url(#SVGID_17_)" fill="#CD6432" d="m103.900002,76c0,0 -18.599998,-8.099998 -29.5,-9.199997c-10.800003,-1.100006 -21.5,1.099998 -27.900002,3.199997c-6.299999,2.099998 -70.299999,20.199997 -70.9,20.800003c-0.6,0.599998 128.099989,0.099998 128.099989,0.099998l0.199989,-14.900002l0.000008,0l0.000015,0z"/>
     <path id="svg_222" clip-path="url(#SVGID_17_)" fill="#F17232" d="m-43.299999,95.699997c0,0 122.100002,-24.099998 165.39999,-23.099998l4.900002,0l-0.400002,22.800003l-169.89999,0.299995z"/>
    </g>
   </g>
   <g id="svg_223" class="st35">
    <text id="svg_224" class="st71 st72" transform="matrix(1 0 0 1 114.473 85.781)" y="0" x="-2">Playgrounds</text>
    <text id="svg_225" class="st44 st73" transform="matrix(1 0 0 1 114.474 61.1497)" y="0" x="-2">Variation</text>
   </g>
  </g>
  <g class="st0" id="footer">
   <rect id="svg_226" height="113.6" width="1306.7" class="st74" y="821.6" x="-3.4"/>
   <path id="svg_227" d="m126.399986,897.900024c-2.799995,0 -5,-2.200012 -5,-5c0,-2.799988 2.200005,-4.900024 5,-4.900024c2.700005,0 5.000008,2.200012 5.000008,4.900024c0,2.699951 -2.199997,5 -5.000008,5m-33.699989,-5.5l-3.099998,0l0,-5.099976l3.099998,0c1.800003,0 2.600006,1.199951 2.700005,2.399963c-0.099998,1.399963 -1,2.700012 -2.700005,2.700012m-16.5,0.699951l2.600006,-5.400024l2.599998,5.400024l-5.200005,0zm-24.899998,-10.5c-3.899998,0 -7,-3.099976 -7,-7c0,-3.900024 3.100002,-7 7,-7c3.900002,0 7,3.099976 7,7c0,3.900024 -3.099998,7 -7,7m11,-14.199951l3.399998,0c1.900002,0 2.800003,1.299988 2.800003,2.700012c0,1.299988 -0.900002,2.799988 -2.800003,2.799988l-3.399998,0l0,-5.5zm9.100002,4.399963l0,7.900024l-2.900002,-4.300049c1.400002,-0.799988 2.400002,-2.199951 2.900002,-3.599976m54.999985,12c-3.199997,0 -5.899994,1.799988 -7.199997,4.400024l0,-5.300049c0,-0.199951 -0.199997,-0.399963 -0.400002,-0.399963l-1.799988,0c-0.199997,0 -0.300003,0.099976 -0.400002,0.200012l-6.199997,9.899963l0,0l-0.800003,1.100037l-0.099998,0l-0.699997,-1.100037l0,0l-6.300003,-9.799988c-0.099998,-0.200012 -0.199997,-0.200012 -0.400002,-0.200012l-1.799995,0c-0.200005,0 -0.400002,0.200012 -0.400002,0.400024l0,17.299988l-4.200012,-6.299988c1.900009,-0.900024 3,-3 3,-4.900024c0,-2.399963 -2,-5.399963 -5.099991,-5.399963l-6.599998,0c-0.199997,0 -0.400002,0.199951 -0.400002,0.399963l0,13l-7.599998,-15.5c-0.099998,-0.099976 -0.199997,-0.200012 -0.300003,-0.200012l-0.199997,0c-0.099998,0 -0.199997,0.100037 -0.300003,0.200012l-8.699997,17.900024l0,-16.5c0,-0.200012 -0.199997,-0.400024 -0.400002,-0.400024l-2.199997,0c-0.200012,0 -0.400002,0.200012 -0.400002,0.400024l0,6.799988l-7.5,0l0,-8.200012c0,-0.099976 0.099998,-0.200012 0.200001,-0.299988l2.200001,0c0.199997,0 0.399998,-0.100037 0.399998,-0.400024l0,-4.799988l3.299999,0l2.800003,4.299988c0.199997,0.299988 0.699997,0.900024 1.299995,0.900024l2,0l0,0l0,0l2.200005,0c0.199997,0 0.400002,-0.200012 0.400002,-0.400024l0,-8.299988l7.099998,8.5c0.099998,0.099976 0.299995,0.200012 0.400002,0.200012l2.299995,0c0.599998,0 0.800003,-0.600037 0.400002,-1l-6.800003,-8.100037l6.400002,-6.699951c0.300003,-0.300049 0.099998,-0.900024 -0.400002,-0.900024l-2.299995,0c-0.200005,0 -0.300003,0.099976 -0.599998,0.200012l-6.700005,7l0,-6.200012c0,-0.599976 -0.400002,-1 -1.099998,-1l-1.400002,0c-0.199997,0 -0.299995,0.200012 -0.199997,0.599976c0.099998,0.400024 0.099998,0.800049 0.199997,1.300049l0,2.199951c-0.699997,-2.099976 -2.599998,-4.099976 -5.099998,-4.099976l-6.700001,0c-0.200001,0 -0.399998,0.200012 -0.399998,0.400024l0,3.099976c-1.900002,-2.200012 -4.700001,-3.700012 -7.900002,-3.700012c-2,0 -3.799999,0.600037 -5.299999,1.400024l2.200001,-4.400024c0.199997,-0.299988 -0.100002,-0.799988 -0.400002,-0.799988l-2.299999,0c-0.200001,0 -0.299999,0.099976 -0.400002,0.299988l-4.899998,10.200012l-6.5,-10.400024c-0.100002,-0.099976 -0.200001,-0.199951 -0.400002,-0.199951l-2.6,0c-0.4,0 -0.699999,0.399963 -0.4,0.799988l8,12.799988c0.099998,0.099976 0.099998,0.299988 0,0.599976l-3.900002,7.900024c-0.299999,0.400024 -0.099998,1 0.700001,1l2.100002,0c0.099998,0 0.199997,-0.099976 0.199997,-0.099976l3.800003,-7.700012c0.599998,5.200012 4.899998,9.200012 10.199997,9.200012c1.900002,0 3.700001,-0.600037 5.200001,-1.400024l0,12.099976c0,0.200012 0.200001,0.400024 0.400002,0.400024l2.299999,0c0.200001,0 0.400002,-0.200012 0.400002,-0.400024l0,-3l7.299995,0l0,7.700012c0,0.700012 0.300003,1.100037 1,1.100037l1.400002,0l0,0l2.400002,0c0.199997,0 0.300003,-0.100037 0.400002,-0.200012l3,-6.299988l7.400002,0l1.399994,3l0,0c0.100006,0.299988 0.400002,0.599976 0.900002,0.599976l2.400002,0c0,0 0,0 0.099998,0c0,0 0,0 0.099998,0l2.200005,0c0.199997,0 0.299995,-0.099976 0.299995,-0.400024l0,-3.599976l3.100006,0l6,9.200012c0.199997,0.299988 0.699997,0.899963 1.199997,0.899963l2.300003,0c0.199997,0 0.399994,-0.199951 0.399994,-0.399963l0,-15.200012l5.600006,8.299988c0.099998,0.200012 0.199997,0.200012 0.399994,0.200012l1.400002,0c0.200005,0 0.300003,-0.099976 0.400002,-0.200012l5.5,-8.299988l0,10.700012c0,0.200012 0.199997,0.399963 0.400002,0.399963l2.099998,0c0.199997,0 0.400002,-0.199951 0.400002,-0.399963l0,-4c1.299995,2.700012 4,4.399963 7.200012,4.399963c4.399986,0 7.999992,-3.599976 7.999992,-8.099976c0.299988,-4.799988 -3.200012,-8.299988 -7.700005,-8.299988m26.400002,-8l-2.100006,0c-0.199997,0 -0.399994,0.200012 -0.399994,0.400024l0,21.899963l-12.5,-14.299988c-0.100006,-0.200012 -0.199997,-0.200012 -0.400009,-0.200012l-1.199997,0c-0.199997,0 -0.399994,0.200012 -0.399994,0.400024c0,0 0,15.5 0,15.700012c0,0.199951 0.199997,0.299988 0.399994,0.299988l2.100006,0c0.199997,0 0.300003,-0.100037 0.300003,-0.200012l0,-0.099976l0,-10.200012l12.5,14.299988c0.099991,0.200012 0.199997,0.299988 0.399994,0.299988l1.199997,0c0.199997,0 0.400009,-0.200012 0.400009,-0.399963l0,-27.400024c0.099991,-0.299988 0,-0.5 -0.300003,-0.5m18.800003,19.5c-0.199997,-0.099976 -0.300003,-0.099976 -0.599991,0c-0.900009,0.900024 -2.200012,1.400024 -3.600006,1.400024c-2.800003,0 -5,-2.100037 -5,-4.900024c0,-2.799988 2.199997,-5 5,-5c1.399994,0 2.699997,0.599976 3.699997,1.400024c0.199997,0.199951 0.300003,0.199951 0.600006,0l1.699997,-1.400024c0.199997,-0.099976 0.199997,-0.299988 0,-0.599976c-1.399994,-1.700012 -3.600006,-2.700012 -5.899994,-2.700012c-4.400009,0 -8,3.599976 -8,8.099976c0,4.600037 3.599991,8 8,8c2.299988,0 4.399994,-1 5.899994,-2.599976c0.199997,-0.200012 0.100006,-0.400024 0,-0.600037l-1.800003,-1.099976zm-111.000008,3l-6.399998,0l0,-11.099976c0,-0.100037 -0.100002,-0.200012 -0.299999,-0.200012l-2.300003,0c-0.099998,0 -0.199997,0.099976 -0.199997,0.200012l0,13.799988c0,0.099976 0.099998,0.299988 0.299999,0.299988l9.099998,0c0.100002,0 0.200001,-0.099976 0.200001,-0.299988l0,-2.400024c-0.099998,-0.199951 -0.200001,-0.299988 -0.400002,-0.299988m97.000008,-14.799988l-2.099991,0c-0.200012,0 -0.400009,0.200012 -0.400009,0.400024l0,15.5c0,0.199951 0.199997,0.399963 0.400009,0.399963l2.099991,0c0.199997,0 0.400009,-0.200012 0.400009,-0.399963l0,-15.5c-0.100021,-0.200012 -0.200012,-0.400024 -0.400009,-0.400024m-109.000008,3.5l-2.299999,0c-0.200001,0 -0.299999,0.099976 -0.299999,0.299988l0,16.700012c0,0.200012 0.099998,0.299988 0.299999,0.299988l2.299999,0c0.100002,0 0.300003,-0.099976 0.300003,-0.299988l0,-16.799988c0,-0.100037 -0.100002,-0.200012 -0.300003,-0.200012m-10.199997,-26.599976l2.099998,0c0.200001,0 0.400002,-0.200012 0.400002,-0.400024l0,-10.099976l11.399998,12.400024c0.299999,0.299988 0.799999,0.799988 1.900002,0.799988l7.5,0c0.200001,0 0.399998,-0.200012 0.399998,-0.400024l0,-2.200012c0,-0.199951 -0.199997,-0.399963 -0.399998,-0.399963l-6.200001,0l0,-3.600037l3.799999,0c0.200001,0 0.400002,-0.199951 0.400002,-0.399963l0,-2.200012c0,-0.200012 -0.200001,-0.400024 -0.400002,-0.400024l-3.899998,0l0,-3.799988l4.599998,0c0.099998,0 0.200001,0.100037 0.299999,0.100037l6.000004,13c0.099998,0.199951 0.199997,0.399963 0.399994,0.399963l0.300003,0c0.199997,0 0.300003,-0.200012 0.400002,-0.399963l2.199997,-4.800049l2.200012,4.800049c0.099991,0.199951 0.199989,0.399963 0.399986,0.399963l0.200005,0c0.199997,0 0.299995,-0.200012 0.400009,-0.399963l8.899986,-18.5c0.100014,-0.200012 -0.199997,-0.400024 -0.399986,-0.400024l-2.700012,0c-0.199997,0 -0.299988,0.200012 -0.400002,0.400024l-5.599998,12.399963c-0.099998,0 -0.099998,0 -0.099998,0l-1.099998,-2.399963l3.299995,-7.200012c0.100014,-0.200012 -0.199997,-0.400024 -0.399986,-0.400024l-2.700012,0c-0.199997,0 -0.299988,0.200012 -0.400002,0.400024l-1.599998,3.399963l-1.599998,-3.399963c-0.099991,-0.200012 -0.199989,-0.400024 -0.400002,-0.400024l-2.599998,0c-0.199989,0 -0.599991,0.200012 -0.400002,0.400024l3.300003,7.200012l-1.099991,2.399963c-0.100014,0 -0.100014,0 -0.100014,0l-4.299995,-9.700012c-0.099991,-0.199951 -0.200001,-0.399963 -0.400002,-0.399963l-9.299999,0c-0.200001,0 -0.400002,0.200012 -0.400002,0.399963l0,11.400024l-12.099998,-14.299988c-0.100002,-0.200012 -0.200001,-0.200012 -0.400002,-0.200012l-1.200001,0c-0.199997,0 -0.399998,0.200012 -0.399998,0.400024l0,16c-0.299999,-0.000061 0,0.099976 0.200001,0.099976m-11.800001,30l-3.1,0l0,-5.099976l3.1,0c1.799999,0 2.699999,1.199951 2.699999,2.599976c-0.099998,1.299988 -1,2.5 -2.699999,2.5m16.800001,-6.900024l-2.300003,0c-0.199997,0 -0.299999,0.099976 -0.299999,0.299988l0,7.299988l-7.299999,0l0,-5c0,-0.199951 -0.099998,-0.299988 -0.299999,-0.299988l-1.300001,0c-0.799999,-1.799988 -2.4,-3.299988 -4.699999,-3.299988l-6.200001,0c-0.200001,0 -0.4,0.200012 -0.4,0.400024l0,18.099976c0,0.200012 0.1,0.400024 0.299999,0.400024l2.1,0c0.200001,0 0.299999,-0.100037 0.299999,-0.400024l0,-7.5l3.800001,0c1.299999,0 2.6,-0.599976 3.4,-1.299988l0,9c0,0.200012 0.1,0.299988 0.299999,0.299988l2.299999,0c0.200001,0 0.300003,-0.099976 0.300003,-0.299988l0,-6.5l7.299999,0l0,5.099976c0,0.200012 0.099998,0.299988 0.299999,0.299988l2.299999,0c0.200001,0 0.299999,-0.099976 0.299999,-0.299988l0,-15.899963c0,-0.300049 -0.099998,-0.400024 -0.199997,-0.400024" class="st75"/>
   <g id="svg_228" class="st35">
    <g id="svg_229">
     <g id="svg_230">
      <ellipse id="svg_231" ry="2.9" rx="2.9" cy="867.683263" cx="1096.994672" class="st9" transform="matrix(0.7527 -0.6584 0.6584 0.7527 -300.46 938.138)"/>
     </g>
     <g id="svg_232">
      <ellipse id="svg_233" ry="2.9" rx="2.9" cy="874.283514" cx="1102.694302" class="st9" transform="matrix(0.7528 -0.6582 0.6582 0.7528 -303.375 943.277)"/>
     </g>
     <g id="svg_234">
      <ellipse id="svg_235" ry="2.9" rx="2.9" cy="880.683514" cx="1090.594302" class="st9" transform="matrix(0.7528 -0.6582 0.6582 0.7528 -310.581 936.825)"/>
     </g>
     <g id="svg_236">
      <ellipse id="svg_237" ry="2.9" rx="2.9" cy="881.283289" cx="1099.094474" class="st9" transform="matrix(0.7527 -0.6583 0.6583 0.7527 -308.925 942.756)"/>
     </g>
     <g id="svg_238">
      <ellipse id="svg_239" ry="2.9" rx="2.9" cy="888.483263" cx="1102.094672" class="st9" transform="matrix(0.7527 -0.6584 0.6584 0.7527 -312.921 946.643)"/>
     </g>
     <g id="svg_240">
      <ellipse id="svg_241" ry="2.9" rx="2.9" cy="894.583514" cx="1095.194302" class="st9" transform="matrix(0.7528 -0.6582 0.6582 0.7528 -318.602 943.26)"/>
     </g>
    </g>
    <g id="svg_242">
     <path id="svg_243" d="m1227.300049,857.400024l0,27.200012l-5.599976,0l0,-27.200012l5.599976,0z" class="st9"/>
     <path id="svg_244" d="m1244.800049,884.599976c-0.5,0 -0.900024,-0.099976 -1.199951,-0.200012c-0.300049,-0.099976 -0.5,-0.399963 -0.700073,-0.899963l-0.400024,-1c-0.5,0.399963 -0.899902,0.799988 -1.399902,1.099976c-0.400024,0.299988 -0.900024,0.599976 -1.400024,0.799988c-0.5,0.200012 -1,0.400024 -1.5,0.5c-0.5,0.100037 -1.099976,0.200012 -1.800049,0.200012c-0.900024,0 -1.599976,-0.099976 -2.299927,-0.299988c-0.700073,-0.200012 -1.300049,-0.600037 -1.800049,-1c-0.5,-0.400024 -0.900024,-1 -1.099976,-1.600037c-0.300049,-0.599976 -0.400024,-1.399963 -0.400024,-2.299988c0,-0.700012 0.199951,-1.399963 0.5,-2.099976c0.300049,-0.700012 0.900024,-1.299988 1.800049,-1.900024c0.799927,-0.599976 2,-1.099976 3.399902,-1.399963c1.400024,-0.400024 3.200073,-0.600037 5.400024,-0.600037l0,-0.799988c0,-1.099976 -0.199951,-1.900024 -0.699951,-2.400024c-0.5,-0.5 -1.099976,-0.699951 -1.900024,-0.699951c-0.699951,0 -1.199951,0.099976 -1.599976,0.199951c-0.400024,0.100037 -0.800049,0.300049 -1.099976,0.5c-0.300049,0.200012 -0.700073,0.300049 -1,0.5c-0.300049,0.100037 -0.700073,0.200012 -1.100098,0.200012c-0.399902,0 -0.699951,-0.099976 -1,-0.299988c-0.299927,-0.200012 -0.5,-0.400024 -0.599976,-0.700012l-1,-1.799988c1.099976,-1 2.400024,-1.799988 3.800049,-2.200012c1.400024,-0.5 2.900024,-0.700012 4.5,-0.700012c1.099976,0 2.199951,0.200012 3.099976,0.600037c0.900024,0.399963 1.699951,0.899963 2.300049,1.5s1.099976,1.399963 1.5,2.399963c0.299927,0.900024 0.5,1.900024 0.5,3l0,11.800049l-2.800049,0l0,-0.400024zm-6.400024,-3.399963c0.699951,0 1.400024,-0.099976 1.900024,-0.400024c0.5,-0.299988 1.099976,-0.699951 1.699951,-1.199951l0,-2.600037c-1.099976,0 -2.099976,0.099976 -2.799927,0.200012c-0.700073,0.099976 -1.300049,0.299988 -1.700073,0.5c-0.400024,0.200012 -0.699951,0.5 -0.900024,0.799988c-0.199951,0.299988 -0.199951,0.599976 -0.199951,0.900024c0,0.599976 0.199951,1.099976 0.5,1.399963c0.299927,0.200012 0.799927,0.400024 1.5,0.400024z" class="st9"/>
     <path id="svg_245" d="m1251.400024,884.599976l0,-27.200012l5.599976,0l0,10.400024c0.700073,-0.700012 1.5,-1.200012 2.400024,-1.700012c0.900024,-0.400024 1.900024,-0.599976 3.099976,-0.599976c1,0 1.900024,0.199951 2.700073,0.599976c0.799927,0.400024 1.599976,1 2.199951,1.900024c0.599976,0.799988 1.099976,1.799988 1.400024,3c0.299927,1.199951 0.5,2.5 0.5,4.099976c0,1.400024 -0.200073,2.700012 -0.599976,3.900024c-0.400024,1.199951 -0.900024,2.199951 -1.700073,3.099976c-0.699951,0.900024 -1.599976,1.599976 -2.5,2.099976c-1,0.5 -2.099976,0.700012 -3.299927,0.700012c-0.600098,0 -1.100098,-0.099976 -1.5,-0.200012c-0.400024,-0.099976 -0.800049,-0.299988 -1.200073,-0.5c-0.400024,-0.199951 -0.699951,-0.399963 -1,-0.699951c-0.299927,-0.300049 -0.599976,-0.600037 -0.900024,-0.900024l-0.199951,0.900024c-0.099976,0.399963 -0.199951,0.699951 -0.5,0.799988c-0.199951,0.099976 -0.5,0.200012 -0.900024,0.200012l-3.599976,0l0,0.099976zm9.199951,-14.899963c-0.400024,0 -0.800049,0 -1.099976,0.099976c-0.300049,0.100037 -0.599976,0.200012 -0.900024,0.300049c-0.300049,0.099976 -0.5,0.299988 -0.800049,0.599976c-0.199951,0.200012 -0.5,0.5 -0.699951,0.799988l0,8c0.400024,0.5 0.900024,0.799988 1.400024,1c0.5,0.200012 1,0.299988 1.599976,0.299988c0.5,0 1,-0.099976 1.400024,-0.299988c0.400024,-0.200012 0.799927,-0.5 1.099976,-1c0.300049,-0.5 0.599976,-1 0.800049,-1.799988c0.199951,-0.700012 0.299927,-1.599976 0.299927,-2.700012c0,-1 -0.099976,-1.799988 -0.199951,-2.5c-0.099976,-0.700012 -0.300049,-1.200012 -0.599976,-1.599976c-0.300049,-0.400024 -0.600098,-0.700012 -0.900024,-0.900024c-0.599976,-0.200012 -1,-0.299988 -1.400024,-0.299988z" class="st9"/>
    </g>
    <g id="svg_246">
     <path id="svg_247" d="m1113.300049,884.400024l0,-18.599976l3.400024,0c0.299927,0 0.599976,0.099976 0.900024,0.199951c0.199951,0.200012 0.399902,0.400024 0.5,0.700012l0.299927,1c0.300049,-0.299988 0.599976,-0.599976 1,-0.899963c0.300049,-0.300049 0.700073,-0.5 1.099976,-0.700012c0.400024,-0.200012 0.800049,-0.400024 1.300049,-0.5c0.400024,-0.100037 0.900024,-0.200012 1.5,-0.200012c1.099976,0 2.099976,0.299988 2.800049,0.900024c0.699951,0.599976 1.299927,1.399963 1.699951,2.299988c0.300049,-0.600037 0.699951,-1.100037 1.099976,-1.5c0.400024,-0.400024 0.900024,-0.700012 1.400024,-1c0.5,-0.299988 1.099976,-0.400024 1.599976,-0.600037c0.599976,-0.099976 1.200073,-0.199951 1.700073,-0.199951c1.099976,0 2,0.199951 2.799927,0.5c0.800049,0.299988 1.5,0.799988 2.099976,1.399963c0.600098,0.600037 1,1.299988 1.300049,2.200012c0.300049,0.900024 0.400024,1.900024 0.400024,3l0,11.799988l-5.5,0l0,-11.799988c0,-1.900024 -0.800049,-2.900024 -2.5,-2.900024c-0.800049,0 -1.400024,0.200012 -1.900024,0.700012c-0.5,0.5 -0.699951,1.200012 -0.699951,2.100037l0,11.799988l-5.5,0l0,-11.799988c0,-1.100037 -0.200073,-1.800049 -0.600098,-2.200012c-0.399902,-0.400024 -1,-0.600037 -1.799927,-0.600037c-0.5,0 -1,0.100037 -1.400024,0.300049c-0.400024,0.199951 -0.900024,0.5 -1.300049,0.899963l0,13.400024l-5.699951,0l0,0.299988z" class="st9"/>
     <path id="svg_248" d="m1149.300049,865.799988l0,11.799988c0,0.900024 0.199951,1.600037 0.599976,2.100037c0.400024,0.5 1,0.799988 1.800049,0.799988c0.599976,0 1.199951,-0.100037 1.699951,-0.400024s1,-0.599976 1.5,-1.099976l0,-13.200012l5.5,0l0,18.599976l-3.400024,0c-0.699951,0 -1.099976,-0.299988 -1.399902,-0.899963l-0.300049,-1.100037c-0.400024,0.300049 -0.699951,0.700012 -1.099976,0.900024c-0.400024,0.299988 -0.800049,0.5 -1.200073,0.700012c-0.399902,0.200012 -0.899902,0.399963 -1.399902,0.5c-0.5,0.099976 -1,0.200012 -1.600098,0.200012c-1,0 -1.899902,-0.200012 -2.699951,-0.5c-0.800049,-0.400024 -1.400024,-0.800049 -2,-1.5c-0.5,-0.600037 -0.900024,-1.400024 -1.199951,-2.200012c-0.300049,-0.900024 -0.400024,-1.799988 -0.400024,-2.799988l0,-11.800049l5.599976,0l0,-0.099976z" class="st9"/>
     <path id="svg_249" d="m1176.199951,869.900024c-0.099976,0.200012 -0.300049,0.400024 -0.5,0.5c-0.199951,0.099976 -0.400024,0.099976 -0.599976,0.099976c-0.300049,0 -0.5,-0.099976 -0.800049,-0.199951c-0.299927,-0.100037 -0.5,-0.200012 -0.799927,-0.400024c-0.300049,-0.099976 -0.600098,-0.299988 -1,-0.400024c-0.400024,-0.099976 -0.800049,-0.199951 -1.300049,-0.199951c-0.699951,0 -1.199951,0.099976 -1.599976,0.399963c-0.400024,0.299988 -0.599976,0.600037 -0.599976,1.100037c0,0.299988 0.099976,0.599976 0.399902,0.899963c0.200073,0.200012 0.600098,0.400024 1,0.600037c0.400024,0.199951 0.900024,0.299988 1.400024,0.5c0.5,0.199951 1,0.299988 1.599976,0.5c0.5,0.199951 1.100098,0.399963 1.600098,0.699951c0.5,0.300049 1,0.600037 1.399902,0.900024c0.400024,0.400024 0.700073,0.799988 1,1.400024c0.200073,0.5 0.400024,1.199951 0.400024,1.899963c0,0.900024 -0.199951,1.799988 -0.5,2.5c-0.299927,0.799988 -0.799927,1.400024 -1.5,2c-0.699951,0.600037 -1.5,1 -2.400024,1.299988c-1,0.300049 -2.099976,0.5 -3.399902,0.5c-0.600098,0 -1.300049,-0.099976 -1.900024,-0.199951c-0.599976,-0.100037 -1.200073,-0.300049 -1.800049,-0.5c-0.599976,-0.200012 -1.099976,-0.400024 -1.599976,-0.700012c-0.5,-0.299988 -0.900024,-0.600037 -1.300049,-0.900024l1.300049,-2c0.199951,-0.200012 0.300049,-0.399963 0.599976,-0.599976c0.200073,-0.100037 0.5,-0.200012 0.800049,-0.200012c0.299927,0 0.599976,0.099976 0.900024,0.200012c0.299927,0.099976 0.5,0.299988 0.799927,0.5c0.300049,0.200012 0.599976,0.299988 1,0.5c0.400024,0.099976 0.900024,0.200012 1.5,0.200012c0.400024,0 0.800049,0 1.099976,-0.100037c0.300049,-0.099976 0.5,-0.200012 0.700073,-0.399963c0.199951,-0.200012 0.299927,-0.300049 0.400024,-0.5c0.099976,-0.200012 0.099976,-0.400024 0.099976,-0.600037c0,-0.399963 -0.099976,-0.700012 -0.400024,-0.899963c-0.199951,-0.200012 -0.599976,-0.400024 -1,-0.600037c-0.400024,-0.200012 -0.900024,-0.299988 -1.400024,-0.5c-0.5,-0.099976 -1,-0.299988 -1.599976,-0.5c-0.5,-0.200012 -1.099976,-0.399963 -1.599976,-0.700012c-0.5,-0.299988 -1,-0.599976 -1.400024,-1c-0.400024,-0.399963 -0.699951,-0.899963 -1,-1.5c-0.199951,-0.599976 -0.400024,-1.299988 -0.400024,-2.199951c0,-0.800049 0.200073,-1.5 0.5,-2.200012c0.300049,-0.700012 0.800049,-1.299988 1.400024,-1.900024c0.599976,-0.5 1.400024,-1 2.300049,-1.299988c0.899902,-0.299988 2,-0.5 3.199951,-0.5c0.699951,0 1.300049,0.099976 1.900024,0.200012c0.599976,0.099976 1.199951,0.299988 1.799927,0.5c0.5,0.200012 1,0.5 1.5,0.799988c0.5,0.299988 0.900024,0.599976 1.200073,1l-1.400024,2z" class="st9"/>
     <path id="svg_250" d="m1188.5,865.599976c1.199951,0 2.400024,0.200012 3.400024,0.599976c1,0.400024 1.900024,0.900024 2.599976,1.700012c0.699951,0.700012 1.300049,1.600037 1.699951,2.700012c0.400024,1.099976 0.600098,2.299988 0.600098,3.599976c0,0.400024 0,0.800049 -0.100098,1c0,0.300049 -0.099976,0.5 -0.199951,0.600037c-0.099976,0.200012 -0.199951,0.299988 -0.400024,0.299988c-0.199951,0.099976 -0.400024,0.099976 -0.599976,0.099976l-10.699951,0c0.199951,1.600037 0.699951,2.700012 1.399902,3.400024c0.800049,0.700012 1.700073,1 3,1c0.600098,0 1.200073,-0.099976 1.700073,-0.200012c0.5,-0.200012 0.900024,-0.299988 1.199951,-0.5c0.400024,-0.200012 0.700073,-0.399963 1,-0.5c0.300049,-0.200012 0.599976,-0.200012 1,-0.200012c0.400024,0 0.800049,0.200012 1,0.5l1.599976,2c-0.599976,0.700012 -1.199951,1.200012 -1.899902,1.600037c-0.700073,0.399963 -1.300049,0.700012 -2,1c-0.700073,0.200012 -1.400024,0.399963 -2.100098,0.5c-0.699951,0.099976 -1.399902,0.099976 -2,0.099976c-1.299927,0 -2.5,-0.200012 -3.699951,-0.599976c-1.099976,-0.400024 -2.099976,-1.100037 -3,-1.900024c-0.900024,-0.799988 -1.5,-1.899963 -2,-3.099976c-0.5,-1.200012 -0.699951,-2.700012 -0.699951,-4.299988c0,-1.200012 0.199951,-2.400024 0.599976,-3.5c0.400024,-1.100037 1,-2.100037 1.799927,-2.900024c0.800049,-0.799988 1.800049,-1.5 2.900024,-2c1.200073,-0.799988 2.5,-1 3.900024,-1zm0.099976,3.800049c-1.099976,0 -1.900024,0.299988 -2.5,0.900024c-0.599976,0.599976 -1,1.5 -1.199951,2.599976l6.899902,0c0,-0.400024 -0.099976,-0.900024 -0.199951,-1.299988c-0.099976,-0.400024 -0.300049,-0.799988 -0.599976,-1.100037c-0.300049,-0.299988 -0.599976,-0.599976 -1,-0.799988c-0.300049,-0.200012 -0.800049,-0.299988 -1.400024,-0.299988z" class="st9"/>
     <path id="svg_251" d="m1213.099976,884.400024c-0.300049,0 -0.599976,-0.099976 -0.900024,-0.200012c-0.199951,-0.200012 -0.400024,-0.399963 -0.5,-0.700012l-0.400024,-1.399963c-0.399902,0.399963 -0.799927,0.799988 -1.199951,1.099976c-0.400024,0.299988 -0.800049,0.600037 -1.300049,0.799988c-0.5,0.200012 -1,0.400024 -1.5,0.5c-0.5,0.100037 -1.099976,0.200012 -1.799927,0.200012c-1,0 -1.900024,-0.200012 -2.700073,-0.599976c-0.799927,-0.400024 -1.5,-1 -2.099976,-1.900024c-0.599976,-0.799988 -1.099976,-1.799988 -1.400024,-3c-0.299927,-1.200012 -0.5,-2.5 -0.5,-4c0,-1.399963 0.200073,-2.700012 0.600098,-3.899963c0.399902,-1.200012 0.899902,-2.200012 1.599976,-3.100037c0.699951,-0.899963 1.5,-1.5 2.5,-2c1,-0.5 2.099976,-0.700012 3.199951,-0.700012c1,0 1.800049,0.100037 2.400024,0.400024c0.699951,0.299988 1.300049,0.599976 1.800049,1.099976l0,-9.399963l5.5,0l0,26.799988l-3.300049,0zm-5.699951,-4c0.400024,0 0.800049,0 1.099976,-0.099976c0.300049,-0.100037 0.599976,-0.200012 0.900024,-0.300049c0.300049,-0.099976 0.5,-0.299988 0.800049,-0.5c0.199951,-0.199951 0.5,-0.5 0.699951,-0.799988l0,-7.899963c-0.400024,-0.5 -0.900024,-0.800049 -1.400024,-1c-0.5,-0.200012 -1,-0.300049 -1.5,-0.300049c-0.5,0 -1,0.100037 -1.400024,0.300049c-0.399902,0.199951 -0.799927,0.5 -1.099976,1c-0.299927,0.399963 -0.599976,1 -0.699951,1.699951c-0.200073,0.700012 -0.300049,1.600037 -0.300049,2.600037c0,1 0.099976,1.799988 0.200073,2.5c0.099976,0.700012 0.299927,1.200012 0.599976,1.599976c0.299927,0.400024 0.599976,0.700012 0.900024,0.900024c0.399902,0.199951 0.799927,0.299988 1.199951,0.299988z" class="st9"/>
    </g>
    <g id="svg_252">
     <path id="svg_253" d="m1114.099976,888.599976c0,0 0.099976,0 0.099976,0c0,0 0.099976,0 0.099976,0.099976c0,0 0.100098,0.100037 0.100098,0.100037l4.599976,5.799988c0,-0.099976 0,-0.299988 0,-0.400024c0,-0.099976 0,-0.299988 0,-0.399963l0,-5.299988l1.400024,0l0,8.699951l-0.800049,0c-0.099976,0 -0.199951,0 -0.300049,-0.099976c-0.099976,0 -0.199951,-0.099976 -0.199951,-0.200012l-4.5,-5.799988c0,0.099976 0,0.299988 0,0.400024c0,0.099976 0,0.199951 0,0.299988l0,5.299988l-1.400024,0l0,-8.700012l0.800049,0c0,0.200012 0.099976,0.200012 0.099976,0.200012z" class="st9"/>
     <path id="svg_254" d="m1126,893.900024l0,3.400024l-1.599976,0l0,-3.400024l-3.200073,-5.299988l1.400024,0c0.099976,0 0.300049,0 0.300049,0.099976c0.099976,0.100037 0.199951,0.200012 0.199951,0.299988l1.599976,2.900024c0.100098,0.200012 0.200073,0.299988 0.200073,0.5c0.099976,0.200012 0.099976,0.299988 0.199951,0.5c0.099976,-0.200012 0.099976,-0.299988 0.200073,-0.5c0.099976,-0.200012 0.099976,-0.299988 0.199951,-0.5l1.599976,-2.900024c0,-0.099976 0.099976,-0.199951 0.200073,-0.199951c0.099976,-0.100037 0.199951,-0.100037 0.299927,-0.100037l1.400024,0l-3,5.200012z" class="st9"/>
     <path id="svg_255" d="m1133.5,896c0.300049,0 0.599976,-0.099976 0.800049,-0.200012c0.199951,-0.099976 0.5,-0.200012 0.599976,-0.399963c0.199951,-0.200012 0.299927,-0.400024 0.400024,-0.700012c0.099976,-0.299988 0.099976,-0.600037 0.099976,-0.900024l0,-5.200012l1.599976,0l0,5.200012c0,0.5 -0.099976,1 -0.199951,1.400024c-0.200073,0.399963 -0.400024,0.799988 -0.700073,1.099976c-0.299927,0.299988 -0.699951,0.600037 -1.099976,0.700012s-0.900024,0.299988 -1.5,0.299988c-0.599976,0 -1.099976,-0.099976 -1.5,-0.299988c-0.400024,-0.200012 -0.800049,-0.400024 -1.099976,-0.700012c-0.300049,-0.299988 -0.5,-0.700012 -0.700073,-1.099976c-0.199951,-0.400024 -0.199951,-0.900024 -0.199951,-1.400024l0,-5.200012l1.599976,0l0,5.200012c0,0.299988 0,0.600037 0.099976,0.900024c0.100098,0.299988 0.200073,0.5 0.400024,0.700012c0.200073,0.199951 0.400024,0.299988 0.599976,0.399963c0.200073,0.100037 0.5,0.200012 0.800049,0.200012z" class="st9"/>
     <path id="svg_256" d="m1141,897.299988l0,-6.200012l0.900024,0c0.199951,0 0.299927,0.100037 0.400024,0.299988l0.099976,0.5c0.099976,-0.099976 0.199951,-0.199951 0.299927,-0.299988c0.100098,-0.099976 0.200073,-0.200012 0.400024,-0.299988c0.099976,-0.099976 0.300049,-0.099976 0.400024,-0.200012c0.199951,0 0.300049,-0.099976 0.5,-0.099976c0.400024,0 0.699951,0.099976 1,0.299988c0.199951,0.200012 0.400024,0.5 0.599976,0.799988c0.099976,-0.200012 0.200073,-0.399963 0.400024,-0.5c0.099976,-0.099976 0.300049,-0.299988 0.5,-0.399963c0.199951,-0.100037 0.400024,-0.200012 0.5,-0.200012c0.199951,0 0.400024,-0.100037 0.599976,-0.100037c0.300049,0 0.599976,0.100037 0.900024,0.200012c0.300049,0.100037 0.5,0.299988 0.699951,0.5c0.200073,0.200012 0.300049,0.400024 0.400024,0.700012c0.099976,0.299988 0.099976,0.599976 0.099976,1l0,3.900024l-1.5,0l0,-3.900024c0,-0.400024 -0.099976,-0.700012 -0.299927,-0.900024c-0.200073,-0.199951 -0.400024,-0.299988 -0.800049,-0.299988c-0.199951,0 -0.299927,0 -0.400024,0.100037c-0.099976,0.099976 -0.199951,0.099976 -0.299927,0.199951c-0.099976,0.100037 -0.200073,0.200012 -0.200073,0.400024c-0.099976,0.099976 -0.099976,0.299988 -0.099976,0.5l0,3.900024l-1.5,0l0,-3.900024c0,-0.400024 -0.099976,-0.700012 -0.199951,-0.900024c-0.200073,-0.199951 -0.400024,-0.299988 -0.700073,-0.299988c-0.199951,0 -0.399902,0.100037 -0.599976,0.200012c-0.199951,0.099976 -0.400024,0.299988 -0.5,0.400024l0,4.5l-1.599976,0l0,0.099976z" class="st9"/>
     <path id="svg_257" d="m1152.5,891.099976l0,3.900024c0,0.399963 0.099976,0.699951 0.300049,0.899963c0.199951,0.200012 0.399902,0.299988 0.799927,0.299988c0.300049,0 0.5,-0.099976 0.700073,-0.199951c0.199951,-0.100037 0.399902,-0.300049 0.599976,-0.5l0,-4.400024l1.5,0l0,6.200012l-0.900024,0c-0.199951,0 -0.300049,-0.100037 -0.400024,-0.299988l-0.099976,-0.5c-0.099976,0.099976 -0.300049,0.199951 -0.400024,0.399963c-0.099976,0.100037 -0.299927,0.200012 -0.400024,0.299988c-0.199951,0.100037 -0.299927,0.100037 -0.5,0.200012c-0.199951,0 -0.399902,0.100037 -0.599976,0.100037c-0.299927,0 -0.599976,-0.100037 -0.900024,-0.200012c-0.299927,-0.100037 -0.5,-0.299988 -0.699951,-0.5c-0.199951,-0.200012 -0.300049,-0.5 -0.400024,-0.700012c-0.099976,-0.299988 -0.099976,-0.599976 -0.099976,-0.900024l0,-3.899963l1.5,0l0,-0.200012z" class="st9"/>
     <path id="svg_258" d="m1161.599976,892.299988c0,0.099976 -0.099976,0.099976 -0.099976,0.099976c0,0 -0.099976,0 -0.200073,0c-0.099976,0 -0.099976,0 -0.199951,-0.099976c-0.099976,0 -0.199951,-0.099976 -0.300049,-0.099976c-0.099976,0 -0.199951,-0.100037 -0.399902,-0.100037c-0.100098,0 -0.300049,-0.099976 -0.5,-0.099976c-0.300049,0 -0.5,0.099976 -0.700073,0.200012c-0.199951,0.099976 -0.299927,0.299988 -0.299927,0.5c0,0.099976 0,0.199951 0.099976,0.299988c0.099976,0.099976 0.199951,0.200012 0.299927,0.200012c0.100098,0.099976 0.300049,0.099976 0.5,0.199951c0.200073,0.100037 0.400024,0.100037 0.600098,0.200012c0.199951,0.100037 0.399902,0.100037 0.599976,0.200012c0.199951,0.099976 0.299927,0.200012 0.5,0.299988c0.099976,0.100037 0.299927,0.299988 0.299927,0.5c0.100098,0.200012 0.100098,0.400024 0.100098,0.600037c0,0.299988 -0.100098,0.599976 -0.200073,0.799988c-0.099976,0.200012 -0.299927,0.5 -0.5,0.599976c-0.199951,0.200012 -0.5,0.299988 -0.799927,0.400024c-0.300049,0.099976 -0.700073,0.200012 -1.100098,0.200012c-0.199951,0 -0.399902,0 -0.599976,-0.100037c-0.199951,0 -0.400024,-0.099976 -0.599976,-0.200012c-0.199951,-0.099976 -0.400024,-0.099976 -0.5,-0.199951c-0.199951,-0.100037 -0.300049,-0.200012 -0.400024,-0.300049l0.300049,-0.599976c0,-0.099976 0.099976,-0.099976 0.199951,-0.200012c0.099976,0 0.099976,-0.099976 0.200073,-0.099976c0.099976,0 0.199951,0 0.299927,0.099976c0.099976,0.100037 0.200073,0.100037 0.300049,0.200012c0.099976,0.099976 0.199951,0.099976 0.400024,0.200012c0.099976,0.099976 0.299927,0.099976 0.599976,0.099976c0.199951,0 0.299927,0 0.5,-0.099976c0.099976,0 0.199951,-0.100037 0.299927,-0.200012c0.100098,-0.099976 0.100098,-0.099976 0.200073,-0.200012c0,-0.099976 0.099976,-0.200012 0.099976,-0.299988c0,-0.099976 0,-0.299988 -0.099976,-0.400024c-0.099976,-0.099976 -0.200073,-0.199951 -0.300049,-0.199951c-0.099976,-0.100037 -0.299927,-0.100037 -0.5,-0.200012c-0.199951,-0.100037 -0.400024,-0.100037 -0.599976,-0.200012c-0.199951,-0.099976 -0.400024,-0.099976 -0.599976,-0.200012c-0.200073,-0.099976 -0.300049,-0.200012 -0.5,-0.299988c-0.099976,-0.099976 -0.300049,-0.299988 -0.300049,-0.5c-0.099976,-0.200012 -0.099976,-0.400024 -0.099976,-0.700012c0,-0.299988 0,-0.5 0.199951,-0.700012c0.100098,-0.199951 0.200073,-0.399963 0.400024,-0.599976c0.200073,-0.200012 0.400024,-0.299988 0.700073,-0.400024c0.299927,-0.099976 0.599976,-0.199951 1,-0.199951c0.399902,0 0.799927,0.099976 1.199951,0.199951c0.300049,0.100037 0.599976,0.300049 0.900024,0.600037l-0.400024,0.799988z" class="st9"/>
     <path id="svg_259" d="m1165,889.299988c0,0.099976 0,0.200012 -0.099976,0.400024c-0.099976,0.099976 -0.099976,0.199951 -0.200073,0.299988c-0.099976,0.099976 -0.199951,0.200012 -0.299927,0.200012c-0.099976,0.099976 -0.200073,0.099976 -0.400024,0.099976c-0.099976,0 -0.199951,0 -0.400024,-0.099976c-0.099976,0 -0.199951,-0.100037 -0.299927,-0.200012c-0.100098,-0.100037 -0.200073,-0.200012 -0.200073,-0.299988c0,-0.100037 -0.099976,-0.200012 -0.099976,-0.400024c0,-0.099976 0,-0.299988 0.099976,-0.400024c0,-0.099976 0.099976,-0.199951 0.200073,-0.299988c0.099976,-0.099976 0.199951,-0.200012 0.299927,-0.200012c0.099976,0 0.200073,-0.099976 0.400024,-0.099976c0.099976,0 0.300049,0 0.400024,0.099976c0.099976,0.100037 0.199951,0.100037 0.299927,0.200012c0.100098,0.100037 0.200073,0.200012 0.200073,0.299988c0,0.200012 0.099976,0.300049 0.099976,0.400024zm-0.300049,1.799988l0,6.200012l-1.5,0l0,-6.200012l1.5,0z" class="st9"/>
     <path id="svg_260" d="m1170.699951,892.400024c0,0.099976 -0.099976,0.099976 -0.099976,0.099976c0,0 -0.099976,0 -0.200073,0c-0.099976,0 -0.099976,0 -0.199951,-0.099976c-0.099976,0 -0.199951,-0.099976 -0.300049,-0.200012c-0.099976,-0.099976 -0.199951,-0.099976 -0.399902,-0.200012c-0.100098,0 -0.300049,-0.099976 -0.5,-0.099976c-0.300049,0 -0.5,0 -0.700073,0.099976c-0.199951,0.100037 -0.400024,0.200012 -0.5,0.400024c-0.099976,0.200012 -0.199951,0.400024 -0.299927,0.599976c-0.100098,0.300049 -0.100098,0.5 -0.100098,0.800049c0,0.299988 0,0.599976 0.100098,0.899963c0.099976,0.299988 0.199951,0.5 0.299927,0.600037c0.099976,0.199951 0.300049,0.299988 0.5,0.399963c0.200073,0.100037 0.400024,0.100037 0.599976,0.100037c0.200073,0 0.400024,0 0.600098,-0.100037c0.099976,-0.099976 0.299927,-0.099976 0.399902,-0.200012c0.100098,-0.099976 0.200073,-0.099976 0.300049,-0.199951c0.099976,-0.100037 0.199951,-0.100037 0.199951,-0.100037c0.100098,0 0.200073,0 0.300049,0.100037l0.400024,0.5c-0.200073,0.199951 -0.300049,0.399963 -0.5,0.5c-0.200073,0.099976 -0.400024,0.199951 -0.599976,0.299988c-0.200073,0.099976 -0.400024,0.099976 -0.600098,0.200012c-0.199951,0 -0.399902,0 -0.699951,0c-0.400024,0 -0.699951,-0.100037 -1.099976,-0.200012c-0.300049,-0.100037 -0.599976,-0.299988 -0.900024,-0.600037s-0.400024,-0.599976 -0.599976,-1c-0.099976,-0.399963 -0.200073,-0.799988 -0.200073,-1.299988c0,-0.5 0.100098,-0.899963 0.200073,-1.299988c0.099976,-0.400024 0.299927,-0.700012 0.599976,-1c0.300049,-0.299988 0.599976,-0.5 0.900024,-0.700012c0.400024,-0.200012 0.799927,-0.200012 1.299927,-0.200012c0.5,0 0.900024,0.100037 1.200073,0.200012c0.299927,0.100037 0.699951,0.400024 0.900024,0.600037l-0.300049,1.099976z" class="st9"/>
     <path id="svg_261" d="m1177,891c0.400024,0 0.699951,0.099976 1.099976,0.200012c0.300049,0.099976 0.599976,0.299988 0.800049,0.5c0.199951,0.200012 0.400024,0.5 0.599976,0.899963c0.099976,0.300049 0.199951,0.700012 0.199951,1.200012c0,0.100037 0,0.200012 0,0.299988c0,0.100037 0,0.100037 -0.099976,0.200012c0,0 -0.099976,0.100037 -0.099976,0.100037c0,0 -0.099976,0 -0.199951,0l-3.800049,0c0,0.599976 0.199951,1.099976 0.5,1.399963c0.300049,0.299988 0.699951,0.400024 1.199951,0.400024c0.200073,0 0.400024,0 0.600098,-0.100037c0.199951,-0.099976 0.299927,-0.099976 0.5,-0.199951c0.099976,-0.100037 0.199951,-0.100037 0.299927,-0.200012c0.099976,-0.100037 0.200073,-0.100037 0.300049,-0.100037c0.099976,0 0.099976,0 0.199951,0c0,0 0.099976,0.100037 0.099976,0.100037l0.400024,0.5c-0.199951,0.200012 -0.299927,0.399963 -0.599976,0.5c-0.199951,0.099976 -0.400024,0.200012 -0.599976,0.299988c-0.200073,0.099976 -0.400024,0.099976 -0.700073,0.200012c-0.199951,0 -0.5,0 -0.699951,0c-0.400024,0 -0.800049,-0.100037 -1.199951,-0.200012c-0.400024,-0.099976 -0.700073,-0.400024 -1,-0.599976c-0.300049,-0.300049 -0.5,-0.600037 -0.600098,-1c-0.199951,-0.400024 -0.199951,-0.900024 -0.199951,-1.400024c0,-0.400024 0.099976,-0.799988 0.199951,-1.200012c0.100098,-0.399963 0.300049,-0.700012 0.600098,-1c0.299927,-0.299988 0.599976,-0.5 0.899902,-0.700012c0.400024,0 0.800049,-0.099976 1.300049,-0.099976zm0,1.099976c-0.400024,0 -0.800049,0.099976 -1,0.400024c-0.199951,0.199951 -0.400024,0.599976 -0.5,1l2.800049,0c0,-0.200012 0,-0.400024 -0.100098,-0.5c-0.099976,-0.200012 -0.099976,-0.300049 -0.199951,-0.400024c-0.099976,-0.099976 -0.199951,-0.200012 -0.400024,-0.299988c-0.199951,-0.200012 -0.400024,-0.200012 -0.599976,-0.200012z" class="st9"/>
     <path id="svg_262" d="m1182,894.099976l-2,-3l1.400024,0c0.099976,0 0.199951,0 0.199951,0c0.099976,0 0.099976,0.099976 0.099976,0.099976l1.300049,2.100037c0,-0.100037 0,-0.100037 0.099976,-0.200012c0,-0.099976 0.099976,-0.099976 0.099976,-0.200012l1,-1.599976c0,-0.100037 0.100098,-0.100037 0.100098,-0.200012c0.099976,0 0.099976,-0.099976 0.199951,-0.099976l1.400024,0l-2,2.899963l2.099976,3.200012l-1.400024,0c-0.099976,0 -0.199951,0 -0.299927,-0.099976c-0.100098,-0.100037 -0.100098,-0.100037 -0.200073,-0.200012l-1.299927,-2.100037c0,0.100037 -0.100098,0.300049 -0.100098,0.400024l-1.199951,1.799988c0,0.100037 -0.099976,0.100037 -0.199951,0.200012c-0.100098,0.099976 -0.100098,0.099976 -0.200073,0.099976l-1.299927,0l2.199951,-3.099976z" class="st9"/>
     <path id="svg_263" d="m1187,899.299988l0,-8.200012l0.900024,0c0.099976,0 0.199951,0 0.199951,0.100037c0.099976,0 0.099976,0.099976 0.099976,0.199951l0.100098,0.600037c0.199951,-0.299988 0.5,-0.5 0.899902,-0.700012c0.300049,-0.200012 0.700073,-0.299988 1.100098,-0.299988c0.299927,0 0.599976,0.099976 0.899902,0.200012c0.300049,0.099976 0.5,0.299988 0.700073,0.599976c0.199951,0.299988 0.400024,0.599976 0.5,1c0.099976,0.400024 0.199951,0.799988 0.199951,1.299988c0,0.5 -0.099976,0.900024 -0.199951,1.299988c-0.099976,0.400024 -0.300049,0.700012 -0.5,1c-0.200073,0.300049 -0.5,0.5 -0.800049,0.700012c-0.299927,0.200012 -0.699951,0.200012 -1.099976,0.200012c-0.300049,0 -0.599976,-0.099976 -0.900024,-0.200012c-0.199951,-0.099976 -0.5,-0.299988 -0.699951,-0.399963l0,2.5l-1.400024,0l0,0.099976zm2.900024,-7.099976c-0.300049,0 -0.599976,0.099976 -0.800049,0.200012c-0.199951,0.099976 -0.399902,0.299988 -0.599976,0.5l0,2.799988c0.200073,0.200012 0.400024,0.400024 0.5,0.400024c0.200073,0.099976 0.400024,0.099976 0.599976,0.099976c0.200073,0 0.400024,0 0.600098,-0.099976c0.199951,-0.100037 0.299927,-0.200012 0.5,-0.400024c0.099976,-0.200012 0.199951,-0.400024 0.299927,-0.700012c0.099976,-0.299988 0.099976,-0.599976 0.099976,-0.899963c0,-0.400024 0,-0.700012 -0.099976,-0.900024c-0.099976,-0.200012 -0.099976,-0.5 -0.199951,-0.599976c-0.099976,-0.200012 -0.200073,-0.300049 -0.400024,-0.300049c-0.200073,-0.099976 -0.400024,-0.099976 -0.5,-0.099976z" class="st9"/>
     <path id="svg_264" d="m1196.300049,891c0.400024,0 0.699951,0.099976 1.099976,0.200012c0.300049,0.099976 0.599976,0.299988 0.800049,0.5c0.199951,0.200012 0.400024,0.5 0.599976,0.899963c0.099976,0.300049 0.199951,0.700012 0.199951,1.200012c0,0.100037 0,0.200012 0,0.299988c0,0.100037 0,0.100037 -0.099976,0.200012c0,0 -0.099976,0.100037 -0.099976,0.100037c0,0 -0.099976,0 -0.199951,0l-3.800049,0c0,0.599976 0.199951,1.099976 0.5,1.399963c0.300049,0.299988 0.699951,0.400024 1.199951,0.400024c0.200073,0 0.400024,0 0.600098,-0.100037c0.199951,-0.099976 0.299927,-0.099976 0.5,-0.199951c0.099976,-0.100037 0.199951,-0.100037 0.299927,-0.200012c0.099976,-0.100037 0.200073,-0.100037 0.300049,-0.100037c0.099976,0 0.099976,0 0.199951,0c0,0 0.099976,0.100037 0.099976,0.100037l0.400024,0.5c-0.199951,0.200012 -0.299927,0.399963 -0.599976,0.5c-0.199951,0.099976 -0.400024,0.200012 -0.599976,0.299988c-0.200073,0.099976 -0.400024,0.099976 -0.700073,0.200012c-0.199951,0 -0.5,0 -0.699951,0c-0.400024,0 -0.800049,-0.100037 -1.199951,-0.200012c-0.400024,-0.099976 -0.700073,-0.400024 -1,-0.599976c-0.300049,-0.300049 -0.5,-0.600037 -0.600098,-1c-0.199951,-0.400024 -0.199951,-0.900024 -0.199951,-1.400024c0,-0.400024 0.099976,-0.799988 0.199951,-1.200012c0.100098,-0.399963 0.300049,-0.700012 0.600098,-1c0.299927,-0.299988 0.599976,-0.5 0.899902,-0.700012c0.400024,0 0.800049,-0.099976 1.300049,-0.099976zm0,1.099976c-0.400024,0 -0.800049,0.099976 -1,0.400024c-0.199951,0.199951 -0.400024,0.599976 -0.5,1l2.800049,0c0,-0.200012 0,-0.400024 -0.100098,-0.5c-0.099976,-0.200012 -0.099976,-0.300049 -0.199951,-0.400024c-0.099976,-0.099976 -0.199951,-0.200012 -0.400024,-0.299988c-0.200073,-0.200012 -0.400024,-0.200012 -0.599976,-0.200012z" class="st9"/>
     <path id="svg_265" d="m1200.199951,897.299988l0,-6.200012l0.900024,0c0.199951,0 0.299927,0 0.299927,0.100037c0.100098,0.099976 0.100098,0.199951 0.100098,0.299988l0.099976,0.700012c0.199951,-0.400024 0.5,-0.700012 0.799927,-0.900024c0.300049,-0.200012 0.600098,-0.299988 1,-0.299988c0.300049,0 0.600098,0.099976 0.800049,0.200012l-0.199951,1.099976c0,0.099976 0,0.099976 -0.100098,0.200012c0,0 -0.099976,0 -0.199951,0c-0.099976,0 -0.099976,0 -0.199951,0c-0.100098,0 -0.200073,0 -0.400024,0c-0.300049,0 -0.599976,0.099976 -0.800049,0.299988c-0.199951,0.200012 -0.400024,0.400024 -0.599976,0.700012l0,3.799988l-1.5,0z" class="st9"/>
     <path id="svg_266" d="m1206.900024,889.299988c0,0.099976 0,0.200012 -0.099976,0.400024c-0.099976,0.099976 -0.099976,0.199951 -0.200073,0.299988c-0.099976,0.099976 -0.199951,0.200012 -0.299927,0.200012c-0.099976,0.099976 -0.200073,0.099976 -0.400024,0.099976c-0.099976,0 -0.199951,0 -0.400024,-0.099976c-0.099976,0 -0.199951,-0.100037 -0.299927,-0.200012c-0.100098,-0.100037 -0.200073,-0.200012 -0.200073,-0.299988c0,-0.100037 -0.099976,-0.200012 -0.099976,-0.400024c0,-0.099976 0,-0.299988 0.099976,-0.400024c0.099976,-0.099976 0.099976,-0.199951 0.200073,-0.299988c0.099976,-0.099976 0.199951,-0.200012 0.299927,-0.200012c0.099976,0 0.200073,-0.099976 0.400024,-0.099976c0.099976,0 0.300049,0 0.400024,0.099976c0.099976,0.100037 0.199951,0.100037 0.299927,0.200012c0.100098,0.100037 0.200073,0.200012 0.200073,0.299988c0,0.200012 0.099976,0.300049 0.099976,0.400024zm-0.300049,1.799988l0,6.200012l-1.5,0l0,-6.200012l1.5,0z" class="st9"/>
     <path id="svg_267" d="m1210.900024,891c0.400024,0 0.699951,0.099976 1.099976,0.200012c0.300049,0.099976 0.599976,0.299988 0.800049,0.5c0.199951,0.200012 0.400024,0.5 0.599976,0.899963c0.099976,0.300049 0.199951,0.700012 0.199951,1.200012c0,0.100037 0,0.200012 0,0.299988c0,0.100037 0,0.100037 -0.099976,0.200012c0,0 -0.099976,0.100037 -0.099976,0.100037c0,0 -0.099976,0 -0.199951,0l-3.800049,0c0,0.599976 0.199951,1.099976 0.5,1.399963c0.300049,0.299988 0.699951,0.400024 1.199951,0.400024c0.200073,0 0.400024,0 0.600098,-0.100037c0.199951,-0.099976 0.299927,-0.099976 0.5,-0.199951c0.099976,-0.100037 0.199951,-0.100037 0.299927,-0.200012c0.099976,-0.100037 0.200073,-0.100037 0.300049,-0.100037c0.099976,0 0.099976,0 0.199951,0c0,0 0.099976,0.100037 0.099976,0.100037l0.400024,0.5c-0.199951,0.200012 -0.299927,0.399963 -0.599976,0.5c-0.199951,0.099976 -0.400024,0.200012 -0.599976,0.299988c-0.200073,0.099976 -0.400024,0.099976 -0.700073,0.200012c-0.199951,0 -0.5,0 -0.699951,0c-0.400024,0 -0.800049,-0.100037 -1.199951,-0.200012c-0.400024,-0.099976 -0.700073,-0.400024 -1,-0.599976c-0.300049,-0.300049 -0.5,-0.600037 -0.600098,-1c-0.199951,-0.400024 -0.199951,-0.900024 -0.199951,-1.400024c0,-0.400024 0.099976,-0.799988 0.199951,-1.200012c0.100098,-0.399963 0.300049,-0.700012 0.600098,-1c0.299927,-0.299988 0.599976,-0.5 0.899902,-0.700012c0.400024,0 0.800049,-0.099976 1.300049,-0.099976zm0,1.099976c-0.400024,0 -0.800049,0.099976 -1,0.400024c-0.199951,0.199951 -0.400024,0.599976 -0.5,1l2.800049,0c0,-0.200012 0,-0.400024 -0.100098,-0.5c-0.099976,-0.200012 -0.099976,-0.300049 -0.199951,-0.400024c-0.099976,-0.099976 -0.199951,-0.200012 -0.400024,-0.299988c-0.199951,-0.200012 -0.400024,-0.200012 -0.599976,-0.200012z" class="st9"/>
     <path id="svg_268" d="m1214.699951,897.299988l0,-6.200012l0.900024,0c0.199951,0 0.299927,0.100037 0.400024,0.299988l0.099976,0.5c0.099976,-0.099976 0.299927,-0.199951 0.400024,-0.299988c0.099976,-0.099976 0.299927,-0.200012 0.399902,-0.299988c0.200073,-0.099976 0.300049,-0.099976 0.5,-0.200012c0.200073,0 0.400024,-0.099976 0.600098,-0.099976c0.299927,0 0.599976,0.099976 0.899902,0.200012s0.5,0.299988 0.700073,0.5c0.199951,0.199951 0.299927,0.5 0.400024,0.699951c0.099976,0.300049 0.099976,0.600037 0.099976,0.900024l0,3.900024l-1.5,0l0,-3.900024c0,-0.400024 -0.099976,-0.700012 -0.300049,-0.900024c-0.199951,-0.199951 -0.400024,-0.299988 -0.799927,-0.299988c-0.300049,0 -0.5,0.100037 -0.700073,0.200012c-0.199951,0.099976 -0.400024,0.299988 -0.599976,0.5l0,4.400024l-1.5,0l0,0.099976z" class="st9"/>
     <path id="svg_269" d="m1225.900024,892.400024c0,0.099976 -0.099976,0.099976 -0.099976,0.099976c0,0 -0.099976,0 -0.200073,0c-0.099976,0 -0.099976,0 -0.199951,-0.099976c-0.099976,0 -0.199951,-0.099976 -0.300049,-0.200012c-0.099976,-0.099976 -0.199951,-0.099976 -0.399902,-0.200012c-0.100098,0 -0.300049,-0.099976 -0.5,-0.099976c-0.300049,0 -0.5,0 -0.700073,0.099976c-0.199951,0.100037 -0.400024,0.200012 -0.5,0.400024c-0.099976,0.200012 -0.199951,0.400024 -0.299927,0.599976c-0.100098,0.300049 -0.100098,0.5 -0.100098,0.800049c0,0.299988 0,0.599976 0.100098,0.899963c0.099976,0.299988 0.199951,0.5 0.299927,0.600037c0.099976,0.199951 0.300049,0.299988 0.5,0.399963c0.200073,0.100037 0.400024,0.100037 0.599976,0.100037c0.200073,0 0.400024,0 0.600098,-0.100037c0.099976,-0.099976 0.299927,-0.099976 0.399902,-0.200012c0.100098,-0.099976 0.200073,-0.099976 0.300049,-0.199951c0.099976,-0.100037 0.199951,-0.100037 0.199951,-0.100037c0.100098,0 0.200073,0 0.300049,0.100037l0.400024,0.5c-0.200073,0.199951 -0.300049,0.399963 -0.5,0.5c-0.200073,0.099976 -0.400024,0.199951 -0.599976,0.299988c-0.200073,0.099976 -0.400024,0.099976 -0.600098,0.200012c-0.199951,0 -0.399902,0 -0.699951,0c-0.400024,0 -0.699951,-0.100037 -1.099976,-0.200012c-0.300049,-0.100037 -0.599976,-0.299988 -0.900024,-0.600037s-0.400024,-0.599976 -0.599976,-1c-0.099976,-0.399963 -0.200073,-0.799988 -0.200073,-1.299988c0,-0.5 0.100098,-0.899963 0.200073,-1.299988c0.099976,-0.400024 0.299927,-0.700012 0.599976,-1c0.300049,-0.299988 0.599976,-0.5 0.900024,-0.700012c0.400024,-0.200012 0.799927,-0.200012 1.299927,-0.200012c0.5,0 0.900024,0.100037 1.200073,0.200012c0.299927,0.100037 0.699951,0.400024 0.900024,0.600037l-0.300049,1.099976z" class="st9"/>
     <path id="svg_270" d="m1229.800049,891c0.400024,0 0.699951,0.099976 1.099976,0.200012c0.300049,0.099976 0.599976,0.299988 0.800049,0.5c0.199951,0.200012 0.400024,0.5 0.599976,0.899963c0.099976,0.300049 0.199951,0.700012 0.199951,1.200012c0,0.100037 0,0.200012 0,0.299988c0,0.100037 0,0.100037 -0.099976,0.200012c0,0 -0.099976,0.100037 -0.099976,0.100037c0,0 -0.099976,0 -0.199951,0l-3.800049,0c0,0.599976 0.199951,1.099976 0.5,1.399963c0.300049,0.299988 0.699951,0.400024 1.199951,0.400024c0.200073,0 0.400024,0 0.600098,-0.100037c0.199951,-0.099976 0.299927,-0.099976 0.5,-0.199951c0.099976,-0.100037 0.199951,-0.100037 0.299927,-0.200012c0.099976,-0.100037 0.200073,-0.100037 0.300049,-0.100037c0.099976,0 0.099976,0 0.199951,0c0,0 0.099976,0.100037 0.099976,0.100037l0.400024,0.5c-0.199951,0.200012 -0.299927,0.399963 -0.599976,0.5c-0.199951,0.099976 -0.400024,0.200012 -0.599976,0.299988c-0.200073,0.099976 -0.400024,0.099976 -0.700073,0.200012c-0.199951,0 -0.5,0 -0.699951,0c-0.400024,0 -0.800049,-0.100037 -1.199951,-0.200012c-0.400024,-0.099976 -0.700073,-0.400024 -1,-0.599976c-0.300049,-0.300049 -0.5,-0.600037 -0.600098,-1c-0.199951,-0.400024 -0.199951,-0.900024 -0.199951,-1.400024c0,-0.400024 0.099976,-0.799988 0.199951,-1.200012c0.100098,-0.399963 0.300049,-0.700012 0.600098,-1c0.299927,-0.299988 0.599976,-0.5 0.899902,-0.700012c0.400024,0 0.800049,-0.099976 1.300049,-0.099976zm0,1.099976c-0.400024,0 -0.800049,0.099976 -1,0.400024c-0.199951,0.199951 -0.400024,0.599976 -0.5,1l2.800049,0c0,-0.200012 0,-0.400024 -0.100098,-0.5c-0.099976,-0.200012 -0.099976,-0.300049 -0.199951,-0.400024c-0.099976,-0.099976 -0.199951,-0.200012 -0.400024,-0.299988c-0.200073,-0.200012 -0.300049,-0.200012 -0.599976,-0.200012z" class="st9"/>
     <path id="svg_271" d="m1240.300049,897.299988c-0.199951,0 -0.300049,-0.099976 -0.400024,-0.299988l-0.099976,-0.600037c-0.099976,0.100037 -0.300049,0.300049 -0.400024,0.400024c-0.099976,0.099976 -0.299927,0.200012 -0.5,0.299988c-0.199951,0.100037 -0.299927,0.100037 -0.5,0.200012c-0.199951,0 -0.400024,0.099976 -0.599976,0.099976c-0.300049,0 -0.599976,-0.099976 -0.900024,-0.199951c-0.299927,-0.100037 -0.5,-0.300049 -0.699951,-0.600037c-0.200073,-0.299988 -0.400024,-0.599976 -0.5,-1c-0.099976,-0.399963 -0.200073,-0.799988 -0.200073,-1.299988c0,-0.5 0.100098,-0.900024 0.200073,-1.299988c0.099976,-0.400024 0.299927,-0.700012 0.5,-1c0.199951,-0.299988 0.5,-0.5 0.799927,-0.700012c0.300049,-0.200012 0.700073,-0.200012 1.100098,-0.200012c0.299927,0 0.599976,0.100037 0.899902,0.200012c0.200073,0.099976 0.5,0.299988 0.700073,0.400024l0,-3.300049l1.5,0l0,8.900024l-0.900024,0zm-2,-1.099976c0.300049,0 0.599976,-0.099976 0.800049,-0.200012c0.199951,-0.099976 0.399902,-0.299988 0.599976,-0.5l0,-2.799988c-0.200073,-0.200012 -0.300049,-0.299988 -0.5,-0.400024c-0.200073,-0.099976 -0.400024,-0.099976 -0.599976,-0.099976c-0.200073,0 -0.400024,0 -0.600098,0.099976c-0.199951,0.100037 -0.299927,0.200012 -0.5,0.400024c-0.099976,0.200012 -0.199951,0.400024 -0.299927,0.599976c-0.099976,0.300049 -0.099976,0.600037 -0.099976,0.900024c0,0.400024 0,0.700012 0.099976,0.900024c0.099976,0.199951 0.099976,0.5 0.199951,0.599976c0.099976,0.200012 0.200073,0.299988 0.400024,0.299988c0.199951,0.200012 0.399902,0.200012 0.5,0.200012z" class="st9"/>
     <path id="svg_272" d="m1245.400024,891c0.400024,0 0.699951,0.099976 1.099976,0.200012c0.300049,0.099976 0.599976,0.299988 0.800049,0.5c0.199951,0.200012 0.400024,0.5 0.599976,0.899963c0.099976,0.300049 0.199951,0.700012 0.199951,1.200012c0,0.100037 0,0.200012 0,0.299988c0,0.100037 0,0.100037 -0.099976,0.200012c0,0 -0.099976,0.100037 -0.099976,0.100037c0,0 -0.099976,0 -0.199951,0l-3.800049,0c0,0.599976 0.199951,1.099976 0.5,1.399963c0.300049,0.299988 0.699951,0.400024 1.199951,0.400024c0.200073,0 0.400024,0 0.600098,-0.100037c0.199951,-0.099976 0.299927,-0.099976 0.5,-0.199951c0.099976,-0.100037 0.199951,-0.100037 0.299927,-0.200012c0.099976,-0.100037 0.200073,-0.100037 0.300049,-0.100037c0.099976,0 0.099976,0 0.199951,0c0,0 0.099976,0.100037 0.099976,0.100037l0.400024,0.5c-0.199951,0.200012 -0.299927,0.399963 -0.599976,0.5c-0.199951,0.099976 -0.400024,0.200012 -0.599976,0.299988c-0.200073,0.099976 -0.400024,0.099976 -0.700073,0.200012c-0.199951,0 -0.5,0 -0.699951,0c-0.400024,0 -0.800049,-0.100037 -1.199951,-0.200012c-0.400024,-0.099976 -0.700073,-0.400024 -1,-0.599976c-0.300049,-0.300049 -0.5,-0.600037 -0.600098,-1c-0.199951,-0.400024 -0.199951,-0.900024 -0.199951,-1.400024c0,-0.400024 0.099976,-0.799988 0.199951,-1.200012c0.100098,-0.399963 0.300049,-0.700012 0.600098,-1c0.299927,-0.299988 0.599976,-0.5 0.899902,-0.700012c0.400024,0 0.800049,-0.099976 1.300049,-0.099976zm0,1.099976c-0.400024,0 -0.800049,0.099976 -1,0.400024c-0.199951,0.199951 -0.400024,0.599976 -0.5,1l2.800049,0c0,-0.200012 0,-0.400024 -0.100098,-0.5c-0.099976,-0.200012 -0.099976,-0.300049 -0.199951,-0.400024c-0.099976,-0.099976 -0.199951,-0.200012 -0.400024,-0.299988c-0.199951,-0.200012 -0.400024,-0.200012 -0.599976,-0.200012z" class="st9"/>
     <path id="svg_273" d="m1252.900024,892.299988c0,0.099976 -0.099976,0.099976 -0.099976,0.099976c0,0 -0.099976,0 -0.200073,0c-0.099976,0 -0.099976,0 -0.199951,-0.099976c-0.099976,0 -0.199951,-0.099976 -0.300049,-0.099976c-0.099976,0 -0.199951,-0.100037 -0.399902,-0.100037c-0.100098,0 -0.300049,-0.099976 -0.5,-0.099976c-0.300049,0 -0.5,0.099976 -0.700073,0.200012c-0.199951,0.099976 -0.299927,0.299988 -0.299927,0.5c0,0.099976 0,0.199951 0.099976,0.299988c0.099976,0.099976 0.199951,0.200012 0.299927,0.200012c0.100098,0.099976 0.300049,0.099976 0.5,0.199951c0.200073,0.100037 0.400024,0.100037 0.600098,0.200012c0.199951,0.100037 0.399902,0.100037 0.599976,0.200012c0.199951,0.099976 0.299927,0.200012 0.5,0.299988c0.099976,0.100037 0.299927,0.299988 0.299927,0.5c0.100098,0.200012 0.100098,0.400024 0.100098,0.600037c0,0.299988 -0.100098,0.599976 -0.200073,0.799988c-0.099976,0.200012 -0.299927,0.5 -0.5,0.599976c-0.199951,0.200012 -0.5,0.299988 -0.799927,0.400024c-0.300049,0.099976 -0.700073,0.200012 -1.100098,0.200012c-0.199951,0 -0.399902,0 -0.599976,-0.100037c-0.199951,0 -0.400024,-0.099976 -0.599976,-0.200012c-0.199951,-0.099976 -0.400024,-0.099976 -0.5,-0.199951c-0.199951,-0.100037 -0.300049,-0.200012 -0.400024,-0.300049l0.300049,-0.599976c0,-0.099976 0.099976,-0.099976 0.199951,-0.200012c0.099976,0 0.099976,-0.099976 0.200073,-0.099976c0.099976,0 0.199951,0 0.299927,0.099976c0.099976,0.100037 0.200073,0.100037 0.300049,0.200012c0.099976,0.099976 0.199951,0.099976 0.400024,0.200012c0.099976,0.099976 0.299927,0.099976 0.599976,0.099976c0.199951,0 0.299927,0 0.5,-0.099976c0.099976,0 0.199951,-0.100037 0.299927,-0.200012c0.100098,-0.099976 0.100098,-0.099976 0.200073,-0.200012c0,-0.099976 0.099976,-0.200012 0.099976,-0.299988c0,-0.099976 0,-0.299988 -0.099976,-0.400024c-0.099976,-0.099976 -0.200073,-0.199951 -0.300049,-0.199951c-0.099976,-0.100037 -0.299927,-0.100037 -0.5,-0.200012c-0.199951,-0.100037 -0.400024,-0.100037 -0.599976,-0.200012c-0.199951,-0.099976 -0.400024,-0.099976 -0.599976,-0.200012c-0.200073,-0.099976 -0.300049,-0.200012 -0.5,-0.299988c-0.099976,-0.099976 -0.300049,-0.299988 -0.300049,-0.5c-0.099976,-0.200012 -0.099976,-0.400024 -0.099976,-0.700012c0,-0.299988 0.099976,-0.5 0.099976,-0.700012c0.099976,-0.199951 0.200073,-0.399963 0.400024,-0.599976c0.199951,-0.200012 0.400024,-0.299988 0.699951,-0.400024c0.300049,-0.099976 0.600098,-0.199951 1,-0.199951c0.400024,0 0.800049,0.099976 1.200073,0.199951c0.299927,0.100037 0.599976,0.300049 0.900024,0.600037l-0.300049,0.799988z" class="st9"/>
     <path id="svg_274" d="m1256.300049,889.299988c0,0.099976 0,0.200012 -0.099976,0.400024c-0.099976,0.099976 -0.099976,0.199951 -0.200073,0.299988c-0.099976,0.099976 -0.199951,0.200012 -0.299927,0.200012c-0.099976,0.099976 -0.200073,0.099976 -0.400024,0.099976c-0.099976,0 -0.199951,0 -0.400024,-0.099976c-0.099976,0 -0.199951,-0.100037 -0.299927,-0.200012c-0.100098,-0.100037 -0.200073,-0.200012 -0.200073,-0.299988c-0.099976,-0.100037 -0.099976,-0.200012 -0.099976,-0.400024c0,-0.099976 0,-0.299988 0.099976,-0.400024c0,-0.099976 0.099976,-0.199951 0.200073,-0.299988c0.099976,-0.099976 0.199951,-0.200012 0.299927,-0.200012c0.099976,0 0.200073,-0.099976 0.400024,-0.099976c0.099976,0 0.300049,0 0.400024,0.099976c0.099976,0.100037 0.199951,0.100037 0.299927,0.200012c0.100098,0.100037 0.200073,0.200012 0.200073,0.299988c0.099976,0.200012 0.099976,0.300049 0.099976,0.400024zm-0.200073,1.799988l0,6.200012l-1.5,0l0,-6.200012l1.5,0z" class="st9"/>
     <path id="svg_275" d="m1259.900024,891c0.300049,0 0.5,0 0.699951,0.099976c0.200073,0.100037 0.400024,0.100037 0.600098,0.200012l1.799927,0l0,0.600037c0,0.099976 0,0.199951 -0.099976,0.199951c0,0.100037 -0.099976,0.100037 -0.199951,0.100037l-0.600098,0.099976c0,0.100037 0.100098,0.200012 0.100098,0.299988c0,0.100037 0,0.200012 0,0.400024c0,0.299988 -0.100098,0.599976 -0.200073,0.799988c-0.099976,0.200012 -0.299927,0.5 -0.5,0.600037c-0.199951,0.199951 -0.5,0.299988 -0.799927,0.399963c-0.300049,0.100037 -0.600098,0.100037 -1,0.100037c-0.200073,0 -0.5,0 -0.700073,-0.100037c-0.199951,0.100037 -0.299927,0.200012 -0.299927,0.400024c0,0.099976 0.099976,0.200012 0.199951,0.299988c0.099976,0.099976 0.300049,0.099976 0.5,0.099976c0.199951,0 0.400024,0 0.599976,0c0.200073,0 0.5,0 0.700073,0c0.199951,0 0.5,0.100037 0.699951,0.100037c0.199951,0.099976 0.400024,0.099976 0.599976,0.200012c0.200073,0.099976 0.300049,0.299988 0.5,0.399963c0.099976,0.200012 0.200073,0.400024 0.200073,0.700012c0,0.299988 -0.100098,0.5 -0.200073,0.799988c-0.099976,0.299988 -0.299927,0.5 -0.599976,0.700012s-0.599976,0.400024 -0.900024,0.5c-0.400024,0.099976 -0.799927,0.200012 -1.299927,0.200012c-0.5,0 -0.900024,0 -1.200073,-0.100037c-0.299927,-0.099976 -0.599976,-0.199951 -0.900024,-0.399963c-0.199951,-0.100037 -0.399902,-0.299988 -0.5,-0.5c-0.099976,-0.200012 -0.199951,-0.400024 -0.199951,-0.600037c0,-0.299988 0.099976,-0.5 0.300049,-0.699951c0.199951,-0.200012 0.399902,-0.400024 0.699951,-0.5c-0.199951,-0.100037 -0.300049,-0.200012 -0.400024,-0.300049c-0.099976,-0.099976 -0.099976,-0.299988 -0.099976,-0.5c0,-0.099976 0,-0.199951 0,-0.299988c0,-0.099976 0.099976,-0.200012 0.099976,-0.299988c0.099976,-0.099976 0.099976,-0.200012 0.200073,-0.299988c0.099976,-0.100037 0.199951,-0.200012 0.399902,-0.200012c-0.299927,-0.200012 -0.599976,-0.400024 -0.699951,-0.700012c-0.199951,-0.299988 -0.300049,-0.599976 -0.300049,-1c0,-0.299988 0.100098,-0.599976 0.200073,-0.799988c0.099976,-0.200012 0.299927,-0.5 0.5,-0.599976c0.199951,-0.200012 0.5,-0.300049 0.799927,-0.400024c0.599976,0.099976 0.900024,0 1.300049,0zm1.599976,6.5c0,-0.099976 0,-0.200012 -0.099976,-0.299988c-0.099976,-0.100037 -0.200073,-0.100037 -0.300049,-0.200012c-0.099976,0 -0.299927,-0.099976 -0.400024,-0.099976c-0.199951,0 -0.299927,0 -0.5,0s-0.399902,0 -0.599976,0c-0.199951,0 -0.400024,0 -0.599976,-0.100037c-0.199951,0.100037 -0.300049,0.200012 -0.400024,0.299988c-0.099976,0.100037 -0.199951,0.300049 -0.199951,0.400024c0,0.099976 0,0.200012 0.099976,0.299988c0.099976,0.100037 0.099976,0.200012 0.300049,0.200012c0.099976,0.099976 0.299927,0.099976 0.5,0.200012c0.199951,0 0.399902,0.099976 0.699951,0.099976c0.300049,0 0.5,0 0.699951,-0.099976c0.200073,0 0.400024,-0.100037 0.5,-0.200012c0.100098,-0.099976 0.200073,-0.200012 0.300049,-0.299988c0,0.099976 0,0 0,-0.200012zm-1.599976,-3.400024c0.199951,0 0.300049,0 0.5,-0.099976c0.099976,-0.100037 0.199951,-0.100037 0.300049,-0.200012c0.099976,-0.100037 0.199951,-0.200012 0.199951,-0.299988c0,-0.100037 0.099976,-0.300049 0.099976,-0.400024c0,-0.299988 -0.099976,-0.5 -0.299927,-0.700012c-0.200073,-0.200012 -0.5,-0.299988 -0.800049,-0.299988s-0.599976,0.099976 -0.800049,0.299988c-0.199951,0.200012 -0.299927,0.400024 -0.299927,0.700012c0,0.099976 0,0.299988 0.099976,0.400024c0,0.099976 0.099976,0.199951 0.199951,0.299988c0.100098,0.099976 0.200073,0.200012 0.300049,0.200012c0.099976,0 0.299927,0.099976 0.5,0.099976z" class="st9"/>
     <path id="svg_276" d="m1263.900024,897.299988l0,-6.200012l0.900024,0c0.199951,0 0.299927,0.100037 0.400024,0.299988l0.099976,0.5c0.099976,-0.099976 0.299927,-0.199951 0.400024,-0.299988c0.099976,-0.099976 0.299927,-0.200012 0.399902,-0.299988c0.200073,-0.099976 0.300049,-0.099976 0.5,-0.200012c0.200073,0 0.400024,-0.099976 0.600098,-0.099976c0.299927,0 0.599976,0.099976 0.899902,0.200012c0.300049,0.099976 0.5,0.299988 0.700073,0.5c0.199951,0.199951 0.299927,0.5 0.400024,0.699951c0.099976,0.300049 0.099976,0.600037 0.099976,0.900024l0,3.900024l-1.5,0l0,-3.900024c0,-0.400024 -0.099976,-0.700012 -0.300049,-0.900024c-0.199951,-0.199951 -0.400024,-0.299988 -0.799927,-0.299988c-0.300049,0 -0.5,0.100037 -0.700073,0.200012c-0.199951,0.099976 -0.400024,0.299988 -0.599976,0.5l0,4.400024l-1.5,0l0,0.099976z" class="st9"/>
    </g>
   </g>
  </g>
 </g>
</svg>
